<svg width="16" viewBox="0 0 29 20" xmlns="http://www.w3.org/2000/svg" fill-rule="evenodd" clip-rule="evenodd" stroke-linejoin="round" stroke-miterlimit="2">
  <path d="M14.2 1C8.5 1 4.6 3.4 4.6 3.4c2.1-2 6-3 6-3l-.4-.4C6.6 0 3.4 2.5 3.4 2.5-.2 10 0 16.5 0 16.5 3 20.1 7.3 20 7.3 20l1.5-2a7.9 7.9 0 0 1-4.3-2.8s4 2.7 9.7 2.7c5.7 0 9.6-2.7 9.6-2.7s-1.6 2.3-4.3 2.9L21 20s4.4.2 7.3-3.6c0 0 .3-6.4-3.3-13.9 0 0-3.3-2.4-6.8-2.5l-.4.3s3.8 1.2 6 3c0 0-4-2.3-9.6-2.3zm4.4 7.9c1.4 0 2.5 1.2 2.5 2.6 0 1.5-1.1 2.7-2.5 2.7-1.3 0-2.5-1.2-2.5-2.7 0-1.4 1.1-2.6 2.5-2.6zm-8.8 0c1.4 0 2.5 1.2 2.5 2.6 0 1.5-1.1 2.7-2.5 2.7-1.3 0-2.4-1.2-2.4-2.7 0-1.4 1-2.6 2.4-2.6z" fill="#fff"/>
</svg>