<svg width="62" height="62" viewBox="0 0 62 62" xmlns="http://www.w3.org/2000/svg" fill-rule="evenodd" clip-rule="evenodd" stroke-linecap="round" stroke-linejoin="round" stroke-miterlimit="10">
    <ellipse cx="31" cy="30.985" rx="30" ry="29.985" fill="none" stroke="#2c2f31"/>
    <path d="M2.762 21.961h56.762M2.774 41.662h55.89M30.2 1c-6.494 6.411-9.74 16.531-9.74 30.362 0 13.225 2.968 23.058 8.906 29.499M31 1c6.494 6.411 9.741 16.531 9.741 30.362 0 13.245-2.978 23.088-8.933 29.528" fill="none" stroke="#2c2f31"/>
    <clipPath id="a">
        <path d="M49.806 61C55.988 61 61 55.988 61 49.806c0-6.182-5.012-11.194-11.194-11.194-6.182 0-11.194 5.012-11.194 11.194C38.612 55.988 43.624 61 49.806 61z"/>
    </clipPath>
    <g clip-path="url(#a)">
        <path fill="#fff" d="M33.612 33.612H66V66H33.612z"/>
    </g>
    <circle cx="49.806" cy="49.806" r="11.194" fill="none" stroke="#2c2f31"/>
    <clipPath id="b">
        <path d="M48.76 50.737c-.169.468-.335.493-.498.545-2.002.631-3.45 2.214-3.45 4.551H54.8c0-2.337-1.447-3.92-3.45-4.551-.162-.052-.328-.077-2.59-.545z"/>
    </clipPath>
    <g clip-path="url(#b)">
        <path fill="#41ff8b" d="M39.812 45.737h19.989v15.096H39.812z"/>
    </g>
    <path d="M48.76 50.737c-.169.468-.335.493-.498.545-2.002.631-3.45 2.214-3.45 4.552H54.8c0-2.338-1.447-3.921-3.45-4.552-.162-.052-.328-.077-.498-.545" fill="none" stroke="#2c2f31"/>
    <path d="M46.879 47.146c-.225.073-.251.615-.056 1.212.188.58.514.993.74.951.514 1.008 1.485 1.891 2.184 1.891.7 0 1.67-.883 2.185-1.891.225.042.551-.371.74-.951.194-.597.169-1.139-.057-1.212m-.635 4.402c0 .512-.973.927-2.174.927s-2.174-.415-2.174-.927" fill="none" stroke="#2c2f31"/>
    <path d="M46.945 47.169s.806-.122.927-1.275c.459-.283 3.07.753 3.384 1.129 0 0-.338-1.082-.338-1.176 0-.094 1.112.517 1.378 1.647 0 0 .822-.518.967-1.859.145-1.341-1.378-4.542-5.391-1.835-.436.047-2.281-.444-.927 3.369z" fill="none" stroke="#2c2f31"/>
</svg>
