<svg width="51" height="51" viewBox="0 0 51 51" xmlns="http://www.w3.org/2000/svg" fill-rule="evenodd" clip-rule="evenodd" stroke-linecap="round" stroke-linejoin="round" stroke-miterlimit="10">
    <path d="M36.951 36.751l.296-3.806c1.712-1.275 8.649-6.763 11.41-13.867.872-2.244 1.407-4.693 1.59-7.279a29.603 29.603 0 0 0-.539-8.032c-.083-.486-.222-1.3-1.076-1.737-.463-.237-.953-.305-1.347-.358-.113-.016-.226-.031-.334-.051a28.41 28.41 0 0 0-2.079-.297 29.246 29.246 0 0 0-5.958-.033c-2.305.227-4.498.74-6.518 1.526-7.104 2.76-12.592 9.698-13.867 11.41l-3.806.296a.972.972 0 0 0-.784.514L6.573 28.941a.979.979 0 0 0 1.013 1.425c.033-.005 2.831-.41 4.914.404l-.202.201a.977.977 0 0 0 .002 1.382l6.821 6.821a.977.977 0 0 0 1.382.002l.201-.202c.815 2.083.41 4.881.404 4.914a.98.98 0 0 0 1.426 1.012l13.904-7.365a.971.971 0 0 0 .513-.784z" fill="none" stroke="#2c2f31"/>
    <clipPath id="a">
        <path d="M14.994 35.017l1.864 1.864a2 2 0 0 1 .36 2.338c-.431.827-1.03 1.624-1.796 2.39-1.79 1.79-6.725 4.116-7.998 2.842-1.273-1.273 1.052-6.208 2.842-7.998.766-.766 1.563-1.364 2.39-1.795a2 2 0 0 1 2.338.359z"/>
    </clipPath>
    <g clip-path="url(#a)">
        <path d="M10.002 54.1L-2.225 41.873 13.348 26.3l12.227 12.227L10.002 54.1z" fill="#f67069"/>
    </g>
    <path d="M14.994 35.017l1.864 1.864a2 2 0 0 1 .359 2.338c-.43.827-1.029 1.624-1.795 2.39-1.79 1.79-6.725 4.116-7.998 2.842-1.274-1.273 1.052-6.208 2.842-7.998.766-.766 1.563-1.364 2.39-1.795a2 2 0 0 1 2.338.359zm34.217-2.85l-4.109 4.109M19.616 2.571L15.507 6.68m26.512 35.347l-8.142 8.143M9.334 9.548L1.192 17.69m38.805-6.214c-2.264-2.264-5.941-2.271-8.196-.016-2.255 2.256-2.249 5.933.015 8.197 2.264 2.264 5.941 2.27 8.196.015 2.256-2.256 2.249-5.932-.015-8.196z" fill="none" stroke="#2c2f31"/>
</svg>
