<svg width="56" height="60" viewBox="0 0 56 60" xmlns="http://www.w3.org/2000/svg" fill-rule="evenodd" clip-rule="evenodd" stroke-linecap="round" stroke-linejoin="round" stroke-miterlimit="10">
    <path d="M44.786 1.262v10h10" fill="none" stroke="#2c2f31"/>
    <path d="M12.286 15.989V3.276c0-1.091.877-2.014 1.968-2.014h30.532c.519 0 .76.224 1.129.587l8.281 8.172c.376.371.59.713.59 1.241v45.5c0 1.092-.885 2-1.979 2H14.254c-1.091 0-1.968-.908-1.968-2V45.109" fill="none" stroke="#2c2f31"/>
    <clipPath id="a">
        <path d="M15.707 45.415c8.123 0 14.708-6.585 14.708-14.708C30.415 22.585 23.83 16 15.707 16 7.585 16 1 22.585 1 30.707c0 8.123 6.585 14.708 14.707 14.708z"/>
    </clipPath>
    <g clip-path="url(#a)">
        <path fill="#fff" d="M-4 11h39.415v39.415H-4z"/>
    </g>
    <circle cx="15.707" cy="30.707" r="14.707" fill="none" stroke="#2c2f31"/>
    <clipPath id="b">
        <path d="M14.133 32.275c-.22.602-.436.635-.647.7C10.882 33.787 9 35.822 9 38.828h12.985c0-3.006-1.882-5.041-4.485-5.852-.211-.066-.427-.099-3.367-.701z"/>
    </clipPath>
    <g clip-path="url(#b)">
        <path fill="#41ff8b" d="M4 27.275h22.985v16.552H4z"/>
    </g>
    <path d="M14.133 32.275c-.22.602-.436.635-.647.701C10.882 33.787 9 35.822 9 38.828h12.985c0-3.006-1.882-5.041-4.485-5.852-.211-.066-.427-.099-.647-.701" fill="none" stroke="#2c2f31"/>
    <path d="M11.688 27.659c-.293.093-.327.79-.074 1.558.245.745.669 1.277.962 1.222.669 1.296 1.931 2.432 2.84 2.432.909 0 2.171-1.136 2.84-2.432.293.055.717-.477.962-1.222.253-.768.22-1.465-.074-1.558m-.825 5.659c0 .658-1.265 1.191-2.826 1.191-1.561 0-2.827-.533-2.827-1.191" fill="none" stroke="#2c2f31"/>
    <path d="M11.773 27.687s1.048-.156 1.205-1.639c.597-.363 3.992.969 4.4 1.453 0 0-.44-1.392-.44-1.513s1.446.665 1.792 2.118c0 0 1.068-.666 1.257-2.39.188-1.725-1.792-5.84-7.009-2.36-.566.06-2.965-.57-1.205 4.331zm17.702 13.459l-2.829 2.829-2.121-2.121 2.829-2.829 2.121 2.121zm12.303 11.39l-4.242 4.242-11.314-11.314 4.242-4.242 11.314 11.314z" fill="none" stroke="#2c2f31"/>
</svg>
