<svg width="53" height="60" viewBox="0 0 53 60" xmlns="http://www.w3.org/2000/svg">
    <g fill="none" fill-rule="evenodd">
        <path d="M-2 0h60v60H-2z"/>
        <path stroke="#2C2F31" stroke-linecap="round" stroke-linejoin="round" d="M41.786 1.262v10h10"/>
        <path d="M9.286 15.99V3.275c0-1.09.877-2.014 1.968-2.014h30.532c.519 0 .76.224 1.13.587l8.28 8.172c.376.371.59.713.59 1.241v45.5c0 1.092-.885 2-1.979 2H11.254c-1.091 0-1.968-.908-1.968-2V45.11" stroke="#2C2F31" stroke-linecap="round" stroke-linejoin="round"/>
        <path d="M12.233 19C6.03 19 1 24.05 1 30.28c0 4.981 3.219 9.209 7.683 10.7.562.104.767-.244.767-.543 0-.268-.01-.977-.016-1.918-3.125.682-3.785-1.512-3.785-1.512-.51-1.303-1.246-1.65-1.246-1.65-1.02-.7.077-.685.077-.685 1.127.08 1.72 1.162 1.72 1.162 1.003 1.723 2.63 1.226 3.27.937.102-.73.392-1.226.713-1.509-2.494-.284-5.117-1.25-5.117-5.573 0-1.231.438-2.238 1.157-3.027-.116-.285-.502-1.431.11-2.984 0 0 .943-.304 3.089 1.156a10.74 10.74 0 0 1 2.813-.38c.953.005 1.914.13 2.812.38 2.144-1.46 3.086-1.156 3.086-1.156.613 1.553.228 2.699.112 2.984.72.79 1.155 1.796 1.155 3.027 0 4.333-2.627 5.286-5.13 5.566.403.348.763 1.036.763 2.088 0 1.508-.014 2.724-.014 3.094 0 .302.202.653.773.542a11.278 11.278 0 0 0 7.676-10.7c0-6.23-5.03-11.279-11.235-11.279z" stroke="#0971FF"/>
    </g>
</svg>
