<svg width="20" height="20" viewBox="0 0 24 25" xmlns="http://www.w3.org/2000/svg" fill-rule="evenodd" clip-rule="evenodd" stroke-linejoin="round" stroke-miterlimit="1.414">
    <path d="M23.345 20.22a2.264 2.264 0 0 1 0 3.188 2.264 2.264 0 0 1-3.188 0l-8.188-8.188-8.188 8.188a2.188 2.188 0 0 1-3.125 0 2.264 2.264 0 0 1 0-3.188l8.125-8.188L.656 3.844a2.264 2.264 0 0 1 0-3.188 2.188 2.188 0 0 1 3.125 0l8.188 8.188L20.157.656a2.264 2.264 0 0 1 3.188 0 2.264 2.264 0 0 1 0 3.188l-8.188 8.188 8.188 8.188z" fill="#fff" fill-rule="nonzero"/>
</svg>
