<svg width="44" height="60" viewBox="0 0 44 60" xmlns="http://www.w3.org/2000/svg" xmlns:xlink="http://www.w3.org/1999/xlink">
    <title>
        bounty
    </title>
    <defs>
        <path id="a" d="M7.79 20.184h4.83v5.119H7.79z"/>
    </defs>
    <g fill="none" fill-rule="evenodd">
        <path d="M-8 0h60v60H-8z"/>
        <g stroke-linecap="round" stroke-linejoin="round">
            <path stroke="#2C2F31" d="M33.274 1.274v10h10"/>
            <path d="M43.274 56.775c0 1.091-.885 2-1.979 2H2.742c-1.091 0-1.968-.909-1.968-2V3.288c0-1.09.877-2.014 1.968-2.014h30.532c.519 0 .76.224 1.129.587l8.281 8.172c.376.371.59.713.59 1.241v45.5zM18.486 23.826h17.16" stroke="#2C2F31"/>
            <g transform="translate(.5 1)">
                <use fill="#FFF" xlink:href="#a"/>
                <use stroke="#2C2F31" fill="#41FF8B" xlink:href="#a"/>
            </g>
            <path d="M18.486 33.827h17.16" stroke="#2C2F31"/>
            <path stroke="#2C2F31" fill="#0971FF" d="M8.29 31.185h4.83v5.119H8.29z"/>
            <path d="M18.486 43.828h17.16M8.29 41.186h4.83v5.119H8.29z" stroke="#2C2F31"/>
        </g>
    </g>
</svg>
