<svg width="88" height="114" viewBox="0 0 88 114" xmlns="http://www.w3.org/2000/svg" xmlns:xlink="http://www.w3.org/1999/xlink">
    <title>
        2D814A0E-52D2-4C4B-B80D-62C9585DBB59
    </title>
    <defs>
        <path id="a" d="M0 .01h14.887v13.933H0z"/>
        <linearGradient x1="50%" y1="0%" x2="50%" y2="100%" id="c">
            <stop stop-color="#15AAFF" offset="0%"/>
            <stop stop-color="#0971FF" offset="100%"/>
        </linearGradient>
        <linearGradient x1="50%" y1="0%" x2="50%" y2="100%" id="d">
            <stop stop-color="#76FFBF" offset="0%"/>
            <stop stop-color="#41FF8B" offset="100%"/>
        </linearGradient>
    </defs>
    <g transform="translate(-15 1)" fill="none" fill-rule="evenodd">
        <path d="M0 5h109v109H0z"/>
        <g transform="translate(29 22)">
            <mask id="b" fill="#fff">
                <use xlink:href="#a"/>
            </mask>
            <path d="M14.36.01h-1.442L5.58 6.878l1.066.998a.163.163 0 0 1 0 .241L5.09 9.573a.191.191 0 0 1-.258 0L2.148 7.061a.285.285 0 0 1 .002-.423L9.358.01H5.44l1.115 1.072a.163.163 0 0 1-.005.242L4.951 2.763a.191.191 0 0 1-.256-.002L1.717.01H.527C.237.01 0 .233 0 .504V13.45c0 .271.237.493.527.493h1.357l7.422-6.946L8.24 6a.163.163 0 0 1 0-.242l1.557-1.457a.191.191 0 0 1 .258 0l2.684 2.512a.285.285 0 0 1-.002.424l-7.295 6.706h4.149l-1.145-1.101a.163.163 0 0 1 .005-.243l1.598-1.438a.191.191 0 0 1 .256.003l3.002 2.772 1.053.007c.29 0 .527-.222.527-.493V.504c0-.271-.237-.493-.527-.493" fill="#3D8CFF" mask="url(#b)"/>
        </g>
        <path d="M25 6.982V3.63C25 1.663 26.588 0 28.566 0h55.316c.94 0 1.378.403 2.046 1.058l15.004 14.724c.68.668 1.068 1.284 1.068 2.236V100" stroke="#B0C8D3" stroke-width="2" fill="#FFF" stroke-linecap="round" stroke-linejoin="round"/>
        <path d="M93 108.383c0 1.974-1.603 3.617-3.585 3.617h-69.85c-1.977 0-3.565-1.643-3.565-3.617v-96.74C16 9.669 17.588 8 19.566 8h55.316c.94 0 1.378.404 2.046 1.062l15.004 14.78c.68.67 1.068 1.29 1.068 2.245v82.296z" stroke="#B0C8D3" stroke-width="2" fill="#FFF" stroke-linecap="round" stroke-linejoin="round"/>
        <rect fill="url(#c)" x="40" y="41" width="39" height="8" rx="4"/>
        <rect fill="url(#d)" x="57" y="64" width="22" height="8" rx="4"/>
        <rect fill="url(#d)" x="57" y="87" width="22" height="8" rx="4"/>
        <path stroke="#B0C8D3" stroke-width="2" stroke-linecap="round" stroke-linejoin="round" d="M75 8v18h18"/>
        <path stroke="#B0C8D3" stroke-width="2" d="M40.218 44.986H29.06v46.968M27.958 91h29.147M28.02 68h29.147"/>
    </g>
</svg>
