<svg width="279" height="32" viewBox="0 0 279 32" xmlns="http://www.w3.org/2000/svg" fill-rule="evenodd" clip-rule="evenodd" stroke-linejoin="round" stroke-miterlimit="1.414">
    <g fill="#00e5f3">
        <path d="M50.838 10.174v.99c0 .126-.09.198-.216.198h-3.456V22.09c0 .126-.072.198-.198.198H45.87c-.126 0-.216-.072-.216-.198V11.362h-3.438c-.126 0-.216-.072-.216-.198v-.99c0-.126.09-.216.216-.216h8.406c.126 0 .216.09.216.216zm10.368 0V22.09c0 .126-.09.198-.216.198h-1.098c-.126 0-.216-.072-.216-.198v-5.598H53.79v5.598c0 .126-.072.198-.198.198h-1.116c-.126 0-.198-.072-.198-.198V10.174c0-.126.072-.216.198-.216h1.116c.126 0 .198.09.198.216v4.932h5.886v-4.932c0-.126.09-.216.216-.216h1.098c.126 0 .216.09.216.216zm10.458 10.962v.954c0 .126-.072.198-.198.198h-7.002c-.126 0-.198-.072-.198-.198V10.174c0-.126.072-.216.198-.216h6.984c.126 0 .216.09.216.216v.936c0 .126-.09.198-.216.198h-5.67v3.834h5.67c.126 0 .216.072.216.198v.936c0 .126-.09.216-.216.216h-5.67v4.446h5.688c.126 0 .198.072.198.198zm15.588-10.962V22.09c0 .126-.09.198-.216.198H85.65a.334.334 0 0 1-.306-.18l-4.518-8.424c-.342-.612-.882-2.016-1.008-2.358.072.468.198 2.862.198 4.068v6.696c0 .126-.072.198-.198.198h-1.116c-.126 0-.198-.072-.198-.198V10.174c0-.126.072-.216.198-.216h1.476c.144 0 .198.108.27.252l4.482 8.352a15.2 15.2 0 0 1 1.008 2.358c-.126-.846-.198-2.502-.198-3.708v-7.038c0-.126.072-.216.198-.216h1.098c.126 0 .216.09.216.216zm10.764 8.298v-4.698c0-1.638-1.062-2.574-2.664-2.574h-1.044c-1.584 0-2.664.9-2.664 2.574v4.698c0 1.71 1.08 2.574 2.664 2.574h1.044c1.602 0 2.664-.918 2.664-2.574zm1.512-4.698v4.698c0 2.394-1.764 3.924-4.14 3.924h-1.17c-2.502 0-4.086-1.548-4.086-3.924v-4.698c0-2.394 1.71-3.924 4.086-3.924h1.224c2.43 0 4.086 1.602 4.086 3.924zm11.628-3.6V22.09c0 .126-.09.198-.216.198h-1.386a.334.334 0 0 1-.306-.18l-4.518-8.424c-.342-.612-.882-2.016-1.008-2.358.072.468.198 2.862.198 4.068v6.696c0 .126-.072.198-.198.198h-1.116c-.126 0-.198-.072-.198-.198V10.174c0-.126.072-.216.198-.216h1.476c.144 0 .198.108.27.252l4.482 8.352a15.2 15.2 0 0 1 1.008 2.358c-.126-.846-.198-2.502-.198-3.708v-7.038c0-.126.072-.216.198-.216h1.098c.126 0 .216.09.216.216zm7.776 6.444v1.026c0 .126-.072.198-.198.198h-4.302c-.126 0-.216-.072-.216-.198v-1.026c0-.126.09-.216.216-.216h4.302c.126 0 .198.09.198.216zm4.572.216v5.256c0 .126-.072.198-.198.198h-1.116c-.126 0-.198-.072-.198-.198V10.174c0-.126.072-.216.198-.216h6.984c.126 0 .216.09.216.216v.936c0 .126-.09.198-.216.198h-5.67v4.176h5.67c.126 0 .216.072.216.198v.936c0 .126-.09.216-.216.216h-5.67zm16.866-6.66v8.298c0 2.394-1.764 3.924-4.14 3.924h-.666c-2.502 0-4.086-1.548-4.086-3.924v-8.298c0-.126.09-.216.216-.216h1.098c.126 0 .198.09.198.216v8.298c0 1.71 1.08 2.574 2.664 2.574h.54c1.602 0 2.664-.918 2.664-2.574v-8.298c0-.126.072-.216.198-.216h1.116c.126 0 .198.09.198.216zm11.718 0V22.09c0 .126-.09.198-.216.198h-1.386a.334.334 0 0 1-.306-.18l-4.518-8.424c-.342-.612-.882-2.016-1.008-2.358.072.468.198 2.862.198 4.068v6.696c0 .126-.072.198-.198.198h-1.116c-.126 0-.198-.072-.198-.198V10.174c0-.126.072-.216.198-.216h1.476c.144 0 .198.108.27.252l4.482 8.352a15.2 15.2 0 0 1 1.008 2.358c-.126-.846-.198-2.502-.198-3.708v-7.038c0-.126.072-.216.198-.216h1.098c.126 0 .216.09.216.216zm11.682 1.134h-4.626c-1.638 0-2.664.954-2.664 2.574v4.464c0 1.71 1.08 2.592 2.664 2.592h3.33V16.87h-2.232c-.126 0-.216-.072-.216-.198v-.936c0-.126.09-.216.216-.216h3.546c.126 0 .198.09.198.216v6.354c0 .126-.072.198-.198.198h-4.734c-2.502 0-4.086-1.566-4.086-3.942v-4.464c0-2.394 1.71-3.924 4.086-3.924h4.716c.126 0 .216.09.216.216v.936c0 .126-.09.198-.216.198zm4.608-1.134V22.09c0 .126-.072.198-.198.198h-1.116c-.126 0-.198-.072-.198-.198V10.174c0-.126.072-.216.198-.216h1.116c.126 0 .198.09.198.216zm10.278 8.91v-.702c0-1.188-.72-1.89-1.998-1.89h-3.708v4.446h3.744c1.224 0 1.962-.63 1.962-1.854zm-.252-5.634v-.558c0-1.026-.72-1.584-1.89-1.584h-3.564v3.834h3.51c1.134 0 1.944-.63 1.944-1.692zm1.782 4.842v.756c0 1.746-1.098 3.24-3.204 3.24h-5.346c-.126 0-.198-.072-.198-.198V10.174c0-.126.072-.216.198-.216h5.076c1.908 0 3.204 1.062 3.204 2.808v.594c0 1.206-.648 2.034-1.53 2.412.918.27 1.8 1.17 1.8 2.52zm9.108 2.79v1.008c0 .126-.09.198-.216.198h-6.138c-.126 0-.198-.072-.198-.198V10.174c0-.126.072-.216.198-.216h1.116c.126 0 .198.09.198.216v10.71h4.824c.126 0 .216.072.216.198zm9.468.054v.954c0 .126-.072.198-.198.198h-7.002c-.126 0-.198-.072-.198-.198V10.174c0-.126.072-.216.198-.216h6.984c.126 0 .216.09.216.216v.936c0 .126-.09.198-.216.198h-5.67v3.834h5.67c.126 0 .216.072.216.198v.936c0 .126-.09.216-.216.216h-5.67v4.446h5.688c.126 0 .198.072.198.198zm14.328.972l-1.008-3.096h-5.22l-1.008 3.096c-.036.126-.126.18-.234.18h-1.224c-.108 0-.162-.072-.162-.162 0-.036.018-.09.036-.144l4.05-11.754c.054-.18.126-.27.324-.27h1.656c.18 0 .27.09.324.27l4.032 11.7a.73.73 0 0 1 .054.216c0 .072-.072.144-.162.144h-1.224c-.108 0-.198-.054-.234-.18zm-3.618-11.07l-2.178 6.624h4.338l-2.16-6.624zm13.482 10.044v1.008c0 .126-.09.198-.216.198H216.6c-.126 0-.198-.072-.198-.198V10.174c0-.126.072-.216.198-.216h1.116c.126 0 .198.09.198.216v10.71h4.824c.126 0 .216.072.216.198zm8.622 0v1.008c0 .126-.09.198-.216.198h-6.138c-.126 0-.198-.072-.198-.198V10.174c0-.126.072-.216.198-.216h1.116c.126 0 .198.09.198.216v10.71h4.824c.126 0 .216.072.216.198zm3.582-10.908V22.09c0 .126-.072.198-.198.198h-1.116c-.126 0-.198-.072-.198-.198V10.174c0-.126.072-.216.198-.216h1.116c.126 0 .198.09.198.216zm10.548 11.934l-1.008-3.096h-5.22l-1.008 3.096c-.036.126-.126.18-.234.18h-1.224c-.108 0-.162-.072-.162-.162 0-.036.018-.09.036-.144l4.05-11.754c.054-.18.126-.27.324-.27h1.656c.18 0 .27.09.324.27l4.032 11.7a.73.73 0 0 1 .054.216c0 .072-.072.144-.162.144h-1.224c-.108 0-.198-.054-.234-.18zm-3.618-11.07l-2.178 6.624h4.338l-2.16-6.624zm15.678-.864V22.09c0 .126-.09.198-.216.198h-1.386a.334.334 0 0 1-.306-.18l-4.518-8.424c-.342-.612-.882-2.016-1.008-2.358.072.468.198 2.862.198 4.068v6.696c0 .126-.072.198-.198.198h-1.116c-.126 0-.198-.072-.198-.198V10.174c0-.126.072-.216.198-.216h1.476c.144 0 .198.108.27.252l4.482 8.352a15.2 15.2 0 0 1 1.008 2.358c-.126-.846-.198-2.502-.198-3.708v-7.038c0-.126.072-.216.198-.216h1.098c.126 0 .216.09.216.216zm11.124 0v3.96c0 .126-.072.198-.198.198h-1.116c-.126 0-.198-.072-.198-.198v-2.826h-2.556c-1.548 0-2.664.882-2.664 2.574v4.446c0 1.71 1.08 2.61 2.664 2.61h3.852c.126 0 .216.09.216.216v.936c0 .126-.09.198-.216.198h-3.942c-2.466 0-4.086-1.566-4.086-3.96v-4.446c0-2.394 1.71-3.924 4.086-3.924h3.96c.126 0 .198.09.198.216zm10.098 10.962v.954c0 .126-.072.198-.198.198h-7.002c-.126 0-.198-.072-.198-.198V10.174c0-.126.072-.216.198-.216h6.984c.126 0 .216.09.216.216v.936c0 .126-.09.198-.216.198h-5.67v3.834h5.67c.126 0 .216.072.216.198v.936c0 .126-.09.216-.216.216h-5.67v4.446h5.688c.126 0 .198.072.198.198zM18.39 3.245a3 3 0 1 1-5.999 0 3 3 0 0 1 5.999 0M18.39 29.001a3 3 0 1 1-5.999 0 3 3 0 0 1 5.999 0"/>
        <path d="M21.61 16.123c0-1.348.483-2.585 1.288-3.549l7.378-7.444a2.656 2.656 0 0 0-3.756-3.756l-6.593 6.593h-.024a5.877 5.877 0 0 1-4.353 1.897 5.88 5.88 0 0 1-4.354-1.897L4.533 1.374A2.655 2.655 0 1 0 .778 5.13l7.146 7.145h-.047a5.528 5.528 0 0 1 1.558 3.848 5.545 5.545 0 0 1-2.01 4.27L.778 27.116a2.656 2.656 0 0 0 3.755 3.756l6.864-6.863h.021a5.658 5.658 0 0 1 4.132-1.78c1.743 0 3.302.782 4.338 2.01l6.632 6.633a2.648 2.648 0 0 0 1.878.778 2.656 2.656 0 0 0 1.878-4.534l-7.378-7.443a5.522 5.522 0 0 1-1.288-3.55"/>
        <path d="M30.305 19.938a.736.736 0 0 1-.522-.216l-3.077-3.077a.739.739 0 0 1 0-1.044l3.077-3.077a.739.739 0 0 1 1.044 1.044l-2.554 2.555 2.554 2.555a.737.737 0 0 1-.522 1.26M.89 19.938a.737.737 0 0 1-.522-1.26l2.554-2.555-2.554-2.555a.739.739 0 0 1 1.044-1.044l3.077 3.077a.739.739 0 0 1 0 1.044l-3.077 3.077a.736.736 0 0 1-.522.216"/>
    </g>
</svg>
