<svg width="283" height="32" viewBox="0 0 283 32" xmlns="http://www.w3.org/2000/svg">
    <title>
        82E7EF31-5E07-4E10-B497-E8F9E91CF916
    </title>
    <g fill="#00E5F3" fill-rule="evenodd">
        <path d="M7.638 14.246l-2.821-2.821a2.677 2.677 0 0 0-3.785 3.784l.93.93-.93.93a2.676 2.676 0 1 0 3.785 3.784l2.821-2.822a2.676 2.676 0 0 0 0-3.785M33.844 16.139l.93-.93a2.676 2.676 0 0 0-3.785-3.784l-2.822 2.821a2.676 2.676 0 0 0 0 3.785l2.822 2.822a2.667 2.667 0 0 0 1.892.784 2.676 2.676 0 0 0 1.892-4.569l-.93-.93zM20.779 3.022a3.022 3.022 0 1 1-6.044 0 3.022 3.022 0 0 1 6.044 0M20.779 28.218a3.022 3.022 0 1 1-6.045 0 3.022 3.022 0 0 1 6.045 0"/>
        <path d="M24.024 16.139c0-1.359.487-2.605 1.298-3.577l7.435-7.502a2.677 2.677 0 0 0-3.785-3.785L22.328 7.92h-.024a5.927 5.927 0 0 1-4.388 1.912A5.927 5.927 0 0 1 13.53 7.92L6.815 1.275A2.676 2.676 0 0 0 3.03 5.06l7.201 7.201h-.046a5.572 5.572 0 0 1 1.57 3.878c0 1.726-.788 3.27-2.026 4.303L3.03 27.218a2.676 2.676 0 0 0 3.785 3.784l6.917-6.916h.02a5.703 5.703 0 0 1 4.164-1.794c1.758 0 3.328.788 4.372 2.026l6.684 6.684a2.669 2.669 0 0 0 1.893.784 2.677 2.677 0 0 0 1.892-4.569l-7.435-7.501a5.564 5.564 0 0 1-1.298-3.577M54.838 10.324v.99c0 .126-.09.198-.216.198h-3.456V22.24c0 .126-.072.198-.198.198H49.87c-.126 0-.216-.072-.216-.198V11.512h-3.438c-.126 0-.216-.072-.216-.198v-.99c0-.126.09-.216.216-.216h8.406c.126 0 .216.09.216.216zm10.368 0V22.24c0 .126-.09.198-.216.198h-1.098c-.126 0-.216-.072-.216-.198v-5.598H57.79v5.598c0 .126-.072.198-.198.198h-1.116c-.126 0-.198-.072-.198-.198V10.324c0-.126.072-.216.198-.216h1.116c.126 0 .198.09.198.216v4.932h5.886v-4.932c0-.126.09-.216.216-.216h1.098c.126 0 .216.09.216.216zm10.458 10.962v.954c0 .126-.072.198-.198.198h-7.002c-.126 0-.198-.072-.198-.198V10.324c0-.126.072-.216.198-.216h6.984c.126 0 .216.09.216.216v.936c0 .126-.09.198-.216.198h-5.67v3.834h5.67c.126 0 .216.072.216.198v.936c0 .126-.09.216-.216.216h-5.67v4.446h5.688c.126 0 .198.072.198.198zm15.588-10.962V22.24c0 .126-.09.198-.216.198H89.65a.334.334 0 0 1-.306-.18l-4.518-8.424c-.342-.612-.882-2.016-1.008-2.358.072.468.198 2.862.198 4.068v6.696c0 .126-.072.198-.198.198h-1.116c-.126 0-.198-.072-.198-.198V10.324c0-.126.072-.216.198-.216h1.476c.144 0 .198.108.27.252l4.482 8.352a15.2 15.2 0 0 1 1.008 2.358c-.126-.846-.198-2.502-.198-3.708v-7.038c0-.126.072-.216.198-.216h1.098c.126 0 .216.09.216.216zm10.764 8.298v-4.698c0-1.638-1.062-2.574-2.664-2.574h-1.044c-1.584 0-2.664.9-2.664 2.574v4.698c0 1.71 1.08 2.574 2.664 2.574h1.044c1.602 0 2.664-.918 2.664-2.574zm1.512-4.698v4.698c0 2.394-1.764 3.924-4.14 3.924h-1.17c-2.502 0-4.086-1.548-4.086-3.924v-4.698c0-2.394 1.71-3.924 4.086-3.924h1.224c2.43 0 4.086 1.602 4.086 3.924zm11.628-3.6V22.24c0 .126-.09.198-.216.198h-1.386a.334.334 0 0 1-.306-.18l-4.518-8.424c-.342-.612-.882-2.016-1.008-2.358.072.468.198 2.862.198 4.068v6.696c0 .126-.072.198-.198.198h-1.116c-.126 0-.198-.072-.198-.198V10.324c0-.126.072-.216.198-.216h1.476c.144 0 .198.108.27.252l4.482 8.352a15.2 15.2 0 0 1 1.008 2.358c-.126-.846-.198-2.502-.198-3.708v-7.038c0-.126.072-.216.198-.216h1.098c.126 0 .216.09.216.216zm7.776 6.444v1.026c0 .126-.072.198-.198.198h-4.302c-.126 0-.216-.072-.216-.198v-1.026c0-.126.09-.216.216-.216h4.302c.126 0 .198.09.198.216zm4.572.216v5.256c0 .126-.072.198-.198.198h-1.116c-.126 0-.198-.072-.198-.198V10.324c0-.126.072-.216.198-.216h6.984c.126 0 .216.09.216.216v.936c0 .126-.09.198-.216.198h-5.67v4.176h5.67c.126 0 .216.072.216.198v.936c0 .126-.09.216-.216.216h-5.67zm16.866-6.66v8.298c0 2.394-1.764 3.924-4.14 3.924h-.666c-2.502 0-4.086-1.548-4.086-3.924v-8.298c0-.126.09-.216.216-.216h1.098c.126 0 .198.09.198.216v8.298c0 1.71 1.08 2.574 2.664 2.574h.54c1.602 0 2.664-.918 2.664-2.574v-8.298c0-.126.072-.216.198-.216h1.116c.126 0 .198.09.198.216zm11.718 0V22.24c0 .126-.09.198-.216.198h-1.386a.334.334 0 0 1-.306-.18l-4.518-8.424c-.342-.612-.882-2.016-1.008-2.358.072.468.198 2.862.198 4.068v6.696c0 .126-.072.198-.198.198h-1.116c-.126 0-.198-.072-.198-.198V10.324c0-.126.072-.216.198-.216h1.476c.144 0 .198.108.27.252l4.482 8.352a15.2 15.2 0 0 1 1.008 2.358c-.126-.846-.198-2.502-.198-3.708v-7.038c0-.126.072-.216.198-.216h1.098c.126 0 .216.09.216.216zm11.682 1.134h-4.626c-1.638 0-2.664.954-2.664 2.574v4.464c0 1.71 1.08 2.592 2.664 2.592h3.33V17.02h-2.232c-.126 0-.216-.072-.216-.198v-.936c0-.126.09-.216.216-.216h3.546c.126 0 .198.09.198.216v6.354c0 .126-.072.198-.198.198h-4.734c-2.502 0-4.086-1.566-4.086-3.942v-4.464c0-2.394 1.71-3.924 4.086-3.924h4.716c.126 0 .216.09.216.216v.936c0 .126-.09.198-.216.198zm4.608-1.134V22.24c0 .126-.072.198-.198.198h-1.116c-.126 0-.198-.072-.198-.198V10.324c0-.126.072-.216.198-.216h1.116c.126 0 .198.09.198.216zm10.278 8.91v-.702c0-1.188-.72-1.89-1.998-1.89h-3.708v4.446h3.744c1.224 0 1.962-.63 1.962-1.854zm-.252-5.634v-.558c0-1.026-.72-1.584-1.89-1.584h-3.564v3.834h3.51c1.134 0 1.944-.63 1.944-1.692zm1.782 4.842v.756c0 1.746-1.098 3.24-3.204 3.24h-5.346c-.126 0-.198-.072-.198-.198V10.324c0-.126.072-.216.198-.216h5.076c1.908 0 3.204 1.062 3.204 2.808v.594c0 1.206-.648 2.034-1.53 2.412.918.27 1.8 1.17 1.8 2.52zm9.108 2.79v1.008c0 .126-.09.198-.216.198h-6.138c-.126 0-.198-.072-.198-.198V10.324c0-.126.072-.216.198-.216h1.116c.126 0 .198.09.198.216v10.71h4.824c.126 0 .216.072.216.198zm9.468.054v.954c0 .126-.072.198-.198.198h-7.002c-.126 0-.198-.072-.198-.198V10.324c0-.126.072-.216.198-.216h6.984c.126 0 .216.09.216.216v.936c0 .126-.09.198-.216.198h-5.67v3.834h5.67c.126 0 .216.072.216.198v.936c0 .126-.09.216-.216.216h-5.67v4.446h5.688c.126 0 .198.072.198.198zm14.328.972l-1.008-3.096h-5.22l-1.008 3.096c-.036.126-.126.18-.234.18h-1.224c-.108 0-.162-.072-.162-.162 0-.036.018-.09.036-.144l4.05-11.754c.054-.18.126-.27.324-.27h1.656c.18 0 .27.09.324.27l4.032 11.7c.036.108.054.162.054.216 0 .072-.072.144-.162.144h-1.224c-.108 0-.198-.054-.234-.18zm-3.618-11.07l-2.178 6.624h4.338l-2.16-6.624zm13.482 10.044v1.008c0 .126-.09.198-.216.198H220.6c-.126 0-.198-.072-.198-.198V10.324c0-.126.072-.216.198-.216h1.116c.126 0 .198.09.198.216v10.71h4.824c.126 0 .216.072.216.198zm8.622 0v1.008c0 .126-.09.198-.216.198h-6.138c-.126 0-.198-.072-.198-.198V10.324c0-.126.072-.216.198-.216h1.116c.126 0 .198.09.198.216v10.71h4.824c.126 0 .216.072.216.198zm3.582-10.908V22.24c0 .126-.072.198-.198.198h-1.116c-.126 0-.198-.072-.198-.198V10.324c0-.126.072-.216.198-.216h1.116c.126 0 .198.09.198.216zm10.548 11.934l-1.008-3.096h-5.22l-1.008 3.096c-.036.126-.126.18-.234.18h-1.224c-.108 0-.162-.072-.162-.162 0-.036.018-.09.036-.144l4.05-11.754c.054-.18.126-.27.324-.27h1.656c.18 0 .27.09.324.27l4.032 11.7c.036.108.054.162.054.216 0 .072-.072.144-.162.144h-1.224c-.108 0-.198-.054-.234-.18zm-3.618-11.07l-2.178 6.624h4.338l-2.16-6.624zm15.678-.864V22.24c0 .126-.09.198-.216.198h-1.386a.334.334 0 0 1-.306-.18l-4.518-8.424c-.342-.612-.882-2.016-1.008-2.358.072.468.198 2.862.198 4.068v6.696c0 .126-.072.198-.198.198h-1.116c-.126 0-.198-.072-.198-.198V10.324c0-.126.072-.216.198-.216h1.476c.144 0 .198.108.27.252l4.482 8.352a15.2 15.2 0 0 1 1.008 2.358c-.126-.846-.198-2.502-.198-3.708v-7.038c0-.126.072-.216.198-.216h1.098c.126 0 .216.09.216.216zm11.124 0v3.96c0 .126-.072.198-.198.198h-1.116c-.126 0-.198-.072-.198-.198v-2.826h-2.556c-1.548 0-2.664.882-2.664 2.574v4.446c0 1.71 1.08 2.61 2.664 2.61h3.852c.126 0 .216.09.216.216v.936c0 .126-.09.198-.216.198h-3.942c-2.466 0-4.086-1.566-4.086-3.96v-4.446c0-2.394 1.71-3.924 4.086-3.924h3.96c.126 0 .198.09.198.216zm10.098 10.962v.954c0 .126-.072.198-.198.198h-7.002c-.126 0-.198-.072-.198-.198V10.324c0-.126.072-.216.198-.216h6.984c.126 0 .216.09.216.216v.936c0 .126-.09.198-.216.198h-5.67v3.834h5.67c.126 0 .216.072.216.198v.936c0 .126-.09.216-.216.216h-5.67v4.446h5.688c.126 0 .198.072.198.198z"/>
    </g>
</svg>
