<svg width="112" height="94" viewBox="0 0 112 94" xmlns="http://www.w3.org/2000/svg">
    <title>
        “
    </title>
    <path d="M23.358 94c-6.837 0-12.439-2.388-16.806-7.165C2.184 82.06 0 75.181 0 66.201c0-14.138 3.37-27.273 10.112-39.405C16.854 14.664 24.307 5.732 32.472 0L47 9.457c-10.634 11.655-16.711 25.22-18.23 40.695 5.127 1.147 9.21 3.535 12.248 7.165 3.039 3.63 4.558 8.215 4.558 13.756 0 6.878-2.184 12.419-6.552 16.622C34.657 91.898 29.434 94 23.358 94zm65 0c-6.837 0-12.439-2.388-16.806-7.165C67.184 82.06 65 75.181 65 66.201c0-14.138 3.37-27.273 10.112-39.405C81.854 14.664 89.307 5.732 97.472 0L112 9.457c-10.634 11.655-16.711 25.22-18.23 40.695 5.127 1.147 9.21 3.535 12.248 7.165 3.039 3.63 4.558 8.215 4.558 13.756 0 6.878-2.184 12.419-6.552 16.622C99.657 91.898 94.434 94 88.358 94z" fill="#2C2F31" fill-rule="evenodd" opacity=".08"/>
</svg>
