<svg xmlns="https://www.w3.org/2000/svg" fill-rule="evenodd" stroke-miterlimit="1.41" height="25" viewBox="0 0 31 25" clip-rule="evenodd" stroke-linejoin="round">
    <path fill-rule="nonzero" d="M30.3 3.5c-.83 1.24-1.83 2.24-3 3.1v.76c0 8-6.14 17.25-17.26 17.25-3.44 0-6.56-1-9.25-2.73.5.06.92.13 1.42.13 2.8 0 5.43-1 7.5-2.64-2.63-.06-4.88-1.8-5.63-4.2.37.08.74.14 1.12.14.56 0 1.12-.13 1.62-.25-2.75-.56-4.87-3-4.87-5.94v-.04c.8.44 1.75.75 2.75.75C3.07 8.77 2 6.9 2 4.77c0-1.12.32-2.12.82-3 3 3.7 7.44 6.07 12.44 6.32-.14-.44-.14-.88-.14-1.38 0-3.37 2.7-6.06 6.07-6.06 1.76 0 3.26.76 4.38 1.95 1.38-.25 2.7-.82 3.88-1.5-.44 1.44-1.44 2.62-2.7 3.37 1.26-.12 2.45-.44 3.5-.94z"/>
</svg>
