<svg viewBox="0 0 214 41" xmlns="http://www.w3.org/2000/svg" fill-rule="evenodd" clip-rule="evenodd" stroke-linejoin="round" stroke-miterlimit="1.414">
    <g fill-rule="nonzero">
        <path d="M102.86 7.588v21.436h5.187V7.588h-5.187zM72.089 8.625a14.682 14.682 0 0 0-6.57-1.556c-3.284 0-12.101 1.037-12.101 11.929 0 6.915 5.532 10.199 11.41 10.199 2.247 0 4.322-.346 6.396-1.21l.346-2.939c-1.556 1.556-3.63 2.42-5.705 2.42-3.63 0-7.261-2.766-7.261-8.816 0-6.051 3.285-9.508 7.088-9.508 2.075 0 4.149 1.037 5.359 2.766l1.038-3.285zm14.694-1.383c-9.162 0-12.101 6.742-12.101 11.064 0 8.817 6.742 11.064 11.582 11.064 8.99 0 12.274-6.396 12.274-11.237 0-7.433-5.359-10.891-11.755-10.891zm-.519 20.226c-2.593 0-6.396-1.555-6.396-9.335 0-4.322 2.247-9.335 6.742-9.335s6.742 3.976 6.742 8.817c0 4.84-1.901 9.853-7.088 9.853zm52.381-19.88v21.436c.173 1.556-.864 3.112-2.42 3.631l.519 1.556c2.42-.346 6.915-1.556 6.915-7.607s.173-18.843.173-18.843h-5.187v-.173zM185.494 7.588v21.436c.173 1.556-.864 3.112-2.42 3.631l.519 1.556c2.42-.346 6.915-1.556 6.915-7.607s.173-18.843.173-18.843h-5.187v-.173zM160.946 7.588l-.518 21.263h2.766V13.984l13.484 14.867h2.593l.518-21.263h-2.938l.345 14.694-13.484-14.694h-2.766zm-46.849 0l-.346 21.263h2.766V13.984l13.485 14.867h2.593l.345-21.263h-2.766l.346 14.694-13.484-14.694h-2.939zm90.759 0h-2.42l-8.817 21.263h2.939l2.248-6.223h7.088l2.247 6.223h5.359l-8.644-21.263zm-5.186 13.138l2.939-7.26 2.766 7.26h-5.705zM149.709 7.588v21.436h5.014V7.588h-5.014z" fill="#333"/>
        <path d="M36.477 16.75c0-2.247-1.556-4.149-3.804-4.667l-1.037-6.915h1.556c2.593 0 4.84-2.075 4.84-4.668H0c0 2.593 2.074 4.84 4.84 4.84h1.556l-1.037 6.915c-2.247.519-3.803 2.421-3.803 4.668h3.112L1.21 40.088c2.593.346 5.013-1.383 5.359-3.976l2.766-19.016h19.189l2.766 19.016c.346 2.593 2.766 4.322 5.359 3.976l-3.457-23.165 3.285-.173zM11.237 4.995h5.532v6.915H10.2l1.037-6.915zm10.199 6.915V4.995h5.532l1.038 6.915h-6.57z" fill="#ff3c00"/>
    </g>
</svg>
