<svg width="160" height="69" viewBox="0 0 160 69" xmlns="http://www.w3.org/2000/svg" xmlns:xlink="http://www.w3.org/1999/xlink">
    <use xlink:href="#a" transform="translate(57.276 47.681)" fill="#34495E"/>
    <use xlink:href="#b" transform="translate(69.653 15.531)" fill="#34495E"/>
    <use xlink:href="#c" transform="translate(50.133 .07)" fill="#34495E"/>
    <use xlink:href="#d" transform="translate(69.675 47.659)" fill="#34495E"/>
    <use xlink:href="#e" transform="translate(50.111 47.659)" fill="#34495E"/>
    <use xlink:href="#f" transform="translate(57.298 7.81)" fill="#34495E"/>
    <g>
        <use xlink:href="#g" transform="translate(.176 24.268)" fill="#34495E"/>
        <use xlink:href="#h" transform="translate(7.065 24.022)" fill="#34495E"/>
        <use xlink:href="#i" transform="translate(26.278 24.067)" fill="#34495E"/>
        <use xlink:href="#j" transform="translate(49.695 24.268)" fill="#34495E"/>
        <use xlink:href="#k" transform="translate(69.7 24.067)" fill="#34495E"/>
        <use xlink:href="#l" transform="translate(93.117 24.268)" fill="#34495E"/>
        <use xlink:href="#m" transform="translate(107.488 24.268)" fill="#34495E"/>
        <use xlink:href="#n" transform="translate(128.528 24.246)" fill="#34495E"/>
        <use xlink:href="#o" transform="translate(145.034 24.29)" fill="#34495E"/>
    </g>
    <defs>
        <path id="a" d="M1.309 1.349l20.14 11.588c.533.31 1.132.465 1.731.465.599 0 1.198-.155 1.73-.464L45.051 1.348c.555-.332 1.02-.796 1.309-1.349h-3.837L23.69 10.836c-.31.178-.71.178-1.02 0L3.837 0H0c.288.553.754 1.017 1.309 1.349z"/>
        <path id="b" d="M9.006.481L0 5.678h4.88l5.346-3.074a1.189 1.189 0 0 1 1.153 0l5.346 3.074h4.88L12.6.481c-1.087-.641-2.484-.641-3.593 0z"/>
        <path id="c" d="M2.44 21.142v-2.211c0-.376.2-.73.532-.907l26.84-15.459a1.134 1.134 0 0 1 1.065 0l26.84 15.459c.333.177.532.53.532.907v2.211h2.44v-2.211a3.463 3.463 0 0 0-1.752-3.008L32.097.464a3.538 3.538 0 0 0-3.505 0l-26.84 15.46A3.472 3.472 0 0 0 0 18.952v2.211h2.44v-.022z"/>
        <path id="d" d="M10.78 5.684c.622 0 1.243-.155 1.797-.487L21.583 0h-4.88l-5.324 3.096a1.189 1.189 0 0 1-1.153 0L4.88.022H0L9.006 5.22c.532.31 1.153.465 1.774.465z"/>
        <path id="e" d="M58.25.022v2.212c0 .376-.2.73-.533.906L30.877 18.6a1.134 1.134 0 0 1-1.065 0L2.972 3.14a1.023 1.023 0 0 1-.532-.906V.022H0v2.212C0 3.472.665 4.622 1.752 5.24L28.592 20.7c.533.31 1.154.464 1.753.464s1.22-.154 1.752-.464l26.84-15.459a3.472 3.472 0 0 0 1.753-3.03V0h-2.44v.022z"/>
        <path id="f" d="M45.051 12.053L24.911.464a3.455 3.455 0 0 0-3.461 0L1.309 12.053c-.555.332-1.02.796-1.309 1.349h3.837L22.67 2.565c.31-.177.71-.177 1.02 0l18.832 10.837h3.838c-.31-.553-.754-1.04-1.309-1.35z"/>
        <path id="g" d="M2.707 20.33H0V0h2.707v20.33z"/>
        <path id="h" d="M15.296 16.375c.154 0 .286.068.396.18l1.056 1.183a8.408 8.408 0 0 1-2.993 2.257c-1.188.536-2.575.804-4.225.804-1.453 0-2.751-.246-3.918-.76-1.166-.514-2.179-1.206-2.993-2.122a10.076 10.076 0 0 1-1.937-3.284C.22 13.36 0 11.953 0 10.411c0-1.542.242-2.927.726-4.223.484-1.273 1.167-2.368 2.069-3.284A9.3 9.3 0 0 1 5.965.76C7.196.246 8.56 0 10.057 0c1.474 0 2.75.223 3.807.693a9.862 9.862 0 0 1 2.84 1.876l-.881 1.274c-.066.089-.132.178-.22.223-.088.067-.198.09-.374.09a.64.64 0 0 1-.374-.135c-.133-.09-.287-.2-.485-.335a7.092 7.092 0 0 0-.66-.424 5.742 5.742 0 0 0-.902-.425 7.25 7.25 0 0 0-1.21-.335 8.404 8.404 0 0 0-1.585-.134c-1.079 0-2.047.179-2.95.559-.88.38-1.65.916-2.288 1.586-.638.692-1.145 1.541-1.497 2.524-.352.983-.528 2.1-.528 3.329 0 1.273.176 2.39.528 3.396a7.45 7.45 0 0 0 1.475 2.524 5.955 5.955 0 0 0 2.2 1.564c.859.357 1.761.536 2.73.536.594 0 1.122-.044 1.606-.111a5.735 5.735 0 0 0 1.32-.336c.397-.156.793-.335 1.123-.58a8.516 8.516 0 0 0 1.056-.827c.22-.09.375-.157.507-.157z"/>
        <path id="i" fill-rule="evenodd" d="M19.015 14.588c.462-1.273.704-2.68.704-4.2 0-1.519-.242-2.926-.704-4.2a9.5 9.5 0 0 0-2.003-3.284c-.858-.916-1.914-1.63-3.125-2.144C12.677.246 11.334 0 9.86 0 8.385 0 7.043.246 5.832.76c-1.21.513-2.267 1.228-3.125 2.144-.858.916-1.519 2.01-2.003 3.284C.242 7.462 0 8.87 0 10.388c0 1.542.22 2.927.704 4.2a9.5 9.5 0 0 0 2.003 3.284c.88.939 1.915 1.631 3.125 2.145s2.553.76 4.028.76c1.474 0 2.817-.246 4.027-.76s2.267-1.229 3.125-2.145c.859-.916 1.519-2.01 2.003-3.284zm-2.575-7.55c.33.982.506 2.1.506 3.35 0 1.251-.176 2.368-.506 3.351a7.122 7.122 0 0 1-1.43 2.502 6.198 6.198 0 0 1-2.245 1.564c-.859.358-1.849.537-2.927.537-1.079 0-2.047-.18-2.927-.537a5.938 5.938 0 0 1-2.245-1.564c-.616-.67-1.1-1.519-1.43-2.502-.33-.983-.507-2.1-.507-3.35 0-1.23.176-2.369.506-3.352a7.03 7.03 0 0 1 1.43-2.524c.617-.693 1.365-1.207 2.246-1.586.88-.38 1.848-.559 2.927-.559 1.078 0 2.046.179 2.927.559.88.38 1.628.893 2.245 1.586.616.692 1.1 1.541 1.43 2.524z"/>
        <path id="j" d="M16.242 20.33h-2.729v-9.25H2.73v9.25H0V0h2.729v9.07h10.784V0h2.73v20.33z"/>
        <path id="k" fill-rule="evenodd" d="M19.015 14.588c.462-1.273.704-2.68.704-4.2 0-1.519-.242-2.926-.704-4.2a9.5 9.5 0 0 0-2.003-3.284c-.858-.916-1.914-1.63-3.125-2.144C12.677.246 11.334 0 9.86 0 8.385 0 7.043.246 5.832.76c-1.21.513-2.267 1.228-3.125 2.144-.858.916-1.519 2.01-2.003 3.284C.242 7.462 0 8.87 0 10.388c0 1.542.22 2.927.704 4.2a9.5 9.5 0 0 0 2.003 3.284c.88.939 1.915 1.631 3.125 2.145s2.553.76 4.028.76c1.474 0 2.817-.246 4.027-.76s2.267-1.229 3.125-2.145c.859-.916 1.519-2.01 2.003-3.284zm-2.597-7.55c.33.982.506 2.1.506 3.35 0 1.251-.154 2.368-.506 3.351a7.122 7.122 0 0 1-1.43 2.502 6.39 6.39 0 0 1-2.245 1.564c-.859.358-1.849.537-2.927.537-1.079 0-2.047-.18-2.927-.537a5.938 5.938 0 0 1-2.245-1.564c-.616-.67-1.1-1.519-1.43-2.502-.33-.983-.507-2.1-.507-3.35 0-1.23.176-2.369.506-3.352a7.03 7.03 0 0 1 1.43-2.524C5.26 3.82 6.009 3.306 6.89 2.927c.88-.38 1.848-.559 2.927-.559 1.078 0 2.046.179 2.927.559.88.38 1.628.893 2.245 1.586.616.692 1.1 1.541 1.43 2.524z"/>
        <path id="l" d="M2.707 18.029h8.671v2.3H0V0h2.707v18.029z"/>
        <path id="m" fill-rule="evenodd" d="M16.638 14.342c.462-1.25.704-2.636.704-4.155 0-1.519-.242-2.904-.704-4.155-.462-1.251-1.122-2.324-2.003-3.217A9.164 9.164 0 0 0 11.51.737C10.3.246 8.957 0 7.483 0H0v20.33h7.483c1.474 0 2.817-.246 4.027-.737a8.609 8.609 0 0 0 3.126-2.056c.858-.871 1.518-1.943 2.002-3.194zm-2.575-7.506c.33.983.506 2.1.506 3.351s-.176 2.346-.506 3.329c-.33.983-.814 1.81-1.43 2.48a5.937 5.937 0 0 1-2.245 1.564c-.88.357-1.849.536-2.927.536H2.707V2.234h4.754c1.078 0 2.047.179 2.927.536.88.358 1.629.894 2.245 1.564.616.693 1.1 1.52 1.43 2.502z"/>
        <path id="n" d="M12.325.045v2.234H2.707v6.747h7.79v2.144h-7.79v6.926h9.618v2.234H0V0h12.325v.045z"/>
        <path id="o" fill-rule="evenodd" d="M2.685 20.33v-8.512h2.113c.374 0 .66.067.836.157.176.111.352.268.506.49l5.194 7.262c.242.38.617.58 1.1.58h2.4L9 12.243a3.032 3.032 0 0 0-.902-.872 7.421 7.421 0 0 0 2.069-.804 6.219 6.219 0 0 0 1.54-1.273c.419-.492.749-1.05.969-1.676.22-.625.33-1.296.33-2.01a6.06 6.06 0 0 0-.44-2.324 4.605 4.605 0 0 0-1.343-1.787C10.63 1.005 9.86.647 8.935.38 8.011.134 6.933 0 5.656 0H0v20.33h2.685zm2.84-10.5h-2.84V2.145h2.971c1.563 0 2.73.29 3.521.916.793.625 1.189 1.541 1.189 2.747 0 .604-.11 1.14-.308 1.631-.22.492-.528.916-.925 1.274-.418.357-.924.625-1.518.826-.594.201-1.299.29-2.09.29z"/>
    </defs>
</svg>
