<svg height="31" viewBox="0 0 127 31" xmlns="http://www.w3.org/2000/svg" fill-rule="evenodd" clip-rule="evenodd" stroke-linejoin="round" stroke-miterlimit="1.414">
    <g class="text-color">
        <path d="M114.291 8.702h-8.025v18.403h2.843V11.388h5.187l-.005-2.686zm2.54 0h2.336V2.934h2.89v5.768H127v2.74h-4.943v11.866a1.28 1.28 0 0 0 1.28 1.28h3.35v2.517h-3.521a4.017 4.017 0 0 1-4.018-4.017V11.449h-2.332l.015-2.747zm-62.054 0h3.247l12.347 18.403h-3.226l-10.528-15.68h-1.866l.026-2.723zm17.787 18.403h13.261v-2.526H75.582V14.53a3.164 3.164 0 0 1 3.164-3.163h3.941v2.652h3.005V8.702h-8.437a4.775 4.775 0 0 0-4.775 4.804l.084 13.599z"/>
        <path d="M54.92 27.105h3.57L69.863 8.702h-2.888c-.365 0-.705.188-.898.498L54.92 27.105zm47.507 0H91.948a2.67 2.67 0 0 1-2.671-2.671V12.059a3.353 3.353 0 0 1 3.357-3.357h6.66a3.574 3.574 0 0 1 3.571 3.57v6.969H91.857v3.986a1.278 1.278 0 0 0 1.283 1.279l9.287-.027v2.626zM92.009 16.664h7.89v-3.728c0-.979-.794-1.773-1.774-1.773h-4.401a1.774 1.774 0 0 0-1.774 1.802l.059 3.699zM52.474 7.179c0-2.345-1.992-4.245-4.45-4.245H39.75c-2.458 0-4.451 1.9-4.451 4.245v15.682c0 2.344 1.993 4.244 4.451 4.244h8.274c2.458 0 4.45-1.9 4.45-4.244V7.179zM49.7 12.525l-11.627 7.959v2.332c0 .862.733 1.561 1.637 1.561h8.353c.904 0 1.637-.699 1.637-1.561V12.525zm0-3.367V7.223c0-.862-.733-1.56-1.637-1.56H39.71c-.904 0-1.637.698-1.637 1.56v9.894L49.7 9.158z"/>
    </g>
    <path d="M28.733 0c.721 0 1.306.581 1.306 1.297v27.446c0 .715-.585 1.296-1.306 1.296h-2.146l-5.855-5.813a.55.55 0 0 0-.77 0l-2.758 2.739a.539.539 0 0 0 0 .764l2.327 2.31H10.85l11.572-11.488.003-.002.003.002.003.001.003-.001 3.14-3.117a.54.54 0 0 0 0-.765L20.347 9.48a.547.547 0 0 0-.77 0l-2.758 2.738a.537.537 0 0 0 0 .764l1.693 1.681a.537.537 0 0 1 0 .764L3.794 30.039H1.306A1.302 1.302 0 0 1 0 28.743V1.297C0 .581.585 0 1.306 0h2.437l5.534 5.495a.546.546 0 0 0 .769 0l2.759-2.739a.538.538 0 0 0 0-.764L10.798 0h8.015L4.428 14.281a.538.538 0 0 0 0 .764l5.388 5.349a.546.546 0 0 0 .769 0l2.758-2.738a.538.538 0 0 0 0-.765l-1.859-1.846a.537.537 0 0 1 0-.764L25.869 0h2.864z" fill="#3c8cff"/>
</svg>
