<svg width="30" viewBox="0 0 31 31" xmlns="http://www.w3.org/2000/svg" fill-rule="evenodd" clip-rule="evenodd" stroke-linejoin="round" stroke-miterlimit="1.414">
    <path d="M16.094.347c6.838.221 13.161 5.616 14.348 12.413.86 4.931-.937 10.238-4.62 13.633-4.253 3.92-10.859 5.079-16.244 2.692-4.769-2.114-8.274-6.869-8.848-12.07C.029 10.666 3.865 4.048 9.792 1.529A15.144 15.144 0 0 1 16.094.347zm-.21.966C9.529 1.227 3.449 5.896 1.983 12.124c-1.078 4.583.338 9.679 3.633 13.047 3.786 3.87 9.903 5.269 15.042 3.305 4.536-1.735 8.022-5.971 8.837-10.754 1.004-5.898-2.226-12.286-7.621-14.959a14.214 14.214 0 0 0-5.99-1.45zm-.166 1.911C9.021 3.187 3.561 8.588 3.525 15.287c-.038 6.698 5.363 12.158 12.059 12.195 6.699.037 12.159-5.363 12.196-12.061.037-6.699-5.364-12.16-12.062-12.197zm4.721 9.185c.109 1.19-.392 1.901-1.19 2.301 1.308.321 2.124 1.104 1.952 2.847-.212 2.165-1.829 2.737-4.136 2.856l-.013 2.276-1.372-.008.013-2.245a44.433 44.433 0 0 1-1.096-.016l-.012 2.255-1.371-.008.012-2.279c-.32-.003-.647-.011-.979-.013l-1.786-.01.282-1.637s1.015.022.997.006c.389.002.493-.277.518-.451l.02-3.597.145.001a1.165 1.165 0 0 0-.145-.011l.014-2.567c-.051-.279-.23-.602-.786-.605.017-.019-.996-.005-.996-.005l.008-1.465 1.892.011v.007c.285.001.576-.003.874-.008l.012-2.252 1.371.007-.012 2.209c.366-.005.735-.011 1.096-.009l.012-2.194 1.371.007-.012 2.254c1.77.165 3.169.717 3.317 2.343zm-5.784 3.332l-.017 3.02c.93.005 3.845.215 3.854-1.489.01-1.776-2.907-1.525-3.837-1.531zm.023-4.121l-.015 2.739c.774.004 3.206.199 3.214-1.351.009-1.616-2.424-1.384-3.199-1.388z"/>
</svg>
