<svg height="32" viewBox="0 0 29 32" xmlns="http://www.w3.org/2000/svg" fill-rule="evenodd" clip-rule="evenodd" stroke-linejoin="round" stroke-miterlimit="1.414">
    <path d="M9.231 31.035c.847.066 1.164-.507 1.164-.999 0-.482-.02-2.071-.028-3.757-5.615 1.221-6.798-2.381-6.798-2.381-.918-2.333-2.24-2.954-2.24-2.954-1.831-1.253.139-1.226.139-1.226 2.025.142 3.092 2.079 3.092 2.079 1.802 3.085 4.723 2.192 5.873 1.677.182-1.304.704-2.194 1.281-2.699-4.482-.509-9.194-2.24-9.194-9.974 0-2.202.789-4.003 2.078-5.416-.209-.51-.9-2.56.194-5.34 0 0 1.696-.543 5.553 2.068a19.349 19.349 0 0 1 5.05-.678c1.715.007 3.443.232 5.055.678C24.302-.498 25.995.045 25.995.045c1.097 2.78.408 4.833.199 5.34 1.294 1.413 2.076 3.214 2.076 5.416 0 7.752-4.722 9.457-9.215 9.957.724.625 1.37 1.854 1.37 3.736 0 2.699-.023 4.873-.023 5.537 0 .499.314 1.076 1.18.998-1.95.629-4.028.969-6.186.969-2.15 0-4.222-.338-6.165-.963z"/>
</svg>
