<svg width="31" viewBox="0 0 31 28" xmlns="http://www.w3.org/2000/svg" fill-rule="evenodd" clip-rule="evenodd" stroke-linejoin="round" stroke-miterlimit="1.414">
    <g fill-rule="evenodd">
        <path d="M15.186.301c-8.284 0-15 5.295-15 11.827 0 4.223 2.808 7.928 7.031 10.021-.23.792-1.476 5.097-1.526 5.435 0 0-.03.255.135.351.164.097.358.022.358.022.472-.066 5.472-3.578 6.338-4.188.864.122 1.755.186 2.664.186 8.284 0 15-5.295 15-11.827S23.47.301 15.186.301z"/>
        <path class="text" d="M6.893 16.256c-.477 0-.866-.37-.866-.826v-5.141h-1.35a.85.85 0 0 1-.849-.847.85.85 0 0 1 .849-.848h4.431c.469 0 .85.38.85.848a.85.85 0 0 1-.85.847h-1.35v5.141c0 .456-.388.826-.865.826zm7.588-.011c-.361 0-.637-.146-.72-.382l-.429-1.122h-2.638l-.429 1.123c-.083.235-.359.381-.72.381-.19 0-.377-.04-.55-.119-.239-.11-.468-.413-.205-1.229l2.07-5.449c.146-.414.589-.841 1.152-.854.566.013 1.008.44 1.155.855l2.069 5.446c.263.818.034 1.121-.205 1.231-.173.079-.36.119-.55.119zm-1.604-3.037l-.864-2.455-.864 2.455h1.728zm3.751 2.922c-.457 0-.829-.356-.829-.793V9.46c0-.478.396-.866.883-.866.488 0 .884.388.884.866v5.084h1.839c.457 0 .829.356.829.793 0 .437-.372.793-.829.793h-2.777zm4.808.115a.866.866 0 0 1-.865-.865V9.46a.866.866 0 0 1 1.731 0v1.86l2.414-2.415a.672.672 0 0 1 .48-.192c.216 0 .433.093.595.255a.85.85 0 0 1 .255.549.676.676 0 0 1-.191.527l-1.972 1.971 2.13 2.822a.858.858 0 0 1 .166.642.855.855 0 0 1-.336.57.86.86 0 0 1-1.211-.169l-2.03-2.689-.3.3v1.888a.87.87 0 0 1-.866.866z" />
    </g>
</svg>
