<svg height="16" viewBox="0 0 29 25" xmlns="https://www.w3.org/2000/svg" fill-rule="evenodd" clip-rule="evenodd" stroke-linejoin="round" stroke-miterlimit="1.41">
    <path d="M10.23 4.74v18.33c0 .49-.24.94-.77.94-.19 0-.36-.05-.52-.13l-7.26-3.64A1.53 1.53 0 0 1 .9 19V1.2c0-.4.18-.76.6-.76.26 0 .48.13.7.24l7.98 4 .05.07zm1 1.58l8.34 13.53-8.34-4.15V6.32zm17.67.28v16.47c0 .52-.3.88-.81.88-.27 0-.52-.08-.74-.2l-6.89-3.44L28.9 6.6zm-.05-1.87c0 .06-8.08 13.17-8.7 14.17L14.05 9 19.12.75a.94.94 0 0 1 .8-.44.9.9 0 0 1 .42.1l8.45 4.22c.03.01.06.04.06.09z" fill-rule="nonzero"/>
</svg>
