<svg width="31" viewBox="0 0 31 26" xmlns="http://www.w3.org/2000/svg" fill-rule="evenodd" clip-rule="evenodd" stroke-linejoin="round" stroke-miterlimit="1.414">
    <path d="M30.965 12.586c0 1.336-.735 2.472-1.804 3.007.067.334.067.602.067.935 0 5.078-5.946 9.22-13.295 9.22S2.705 21.672 2.705 16.594c0-.334 0-.668.067-1.002-1.069-.535-1.805-1.671-1.805-3.007 0-1.871 1.538-3.341 3.341-3.341.869 0 1.603.335 2.205.869 2.205-1.537 5.279-2.606 8.619-2.739h.134L17.337.492l6.013 1.202C23.885.759 24.82.091 25.956.091h.068c1.67 0 2.939 1.336 2.939 3.007s-1.27 3.007-2.939 3.007h-.068c-1.537 0-2.806-1.136-2.939-2.673l-4.477-.935-1.47 4.944c3.274.201 6.214 1.136 8.352 2.672a3.43 3.43 0 0 1 2.271-.869c1.805 0 3.274 1.47 3.274 3.341l-.002.001zM3.239 13.922c.335-1.003 1.003-1.938 1.938-2.74a1.64 1.64 0 0 0-1.003-.334c-.935 0-1.67.735-1.67 1.67 0 .602.267 1.137.735 1.404zM24.885 3.099c0 .602.468 1.136 1.069 1.136s1.136-.534 1.136-1.136c0-.602-.534-1.136-1.136-1.136-.602 0-1.069.534-1.069 1.136zM9.453 15.057a2.11 2.11 0 0 0 2.138 2.138 2.11 2.11 0 0 0 2.138-2.138c0-1.202-.936-2.071-2.138-2.071-1.203 0-2.138.869-2.138 2.071zm6.48 7.483c3.207 0 5.145-1.938 5.211-2.004l-.869-.802s-1.671 1.603-4.343 1.603c-2.74 0-4.276-1.603-4.276-1.603l-.869.802c.067.067 1.938 2.004 5.145 2.004h.001zm4.477-5.345a2.11 2.11 0 0 0 2.137-2.138c0-1.202-.935-2.071-2.137-2.071-1.203 0-2.138.869-2.138 2.071a2.11 2.11 0 0 0 2.138 2.138zm8.284-3.207c.468-.334.735-.869.735-1.47 0-.935-.735-1.67-1.67-1.67a1.64 1.64 0 0 0-1.003.334c.935.802 1.603 1.805 1.938 2.806z" fill-rule="nonzero"/>
</svg>
