<svg xmlns="http://www.w3.org/2000/svg" viewBox="0 0 1107.67 282.05">
    <defs>
        <style>
            .cls-1{fill:#2c2f31}
        </style>
    </defs>
    <g id="Layer_2" data-name="Layer 2">
        <path class="cls-1" d="M613.58 225.41l-48.53-72 42.37-67a2 2 0 0 0-1.69-3.07h-25.1a2 2 0 0 0-1.69.94l-29.63 46.94-30.82-47a2 2 0 0 0-1.67-.91H488a2 2 0 0 0-2 2v21.38a2 2 0 0 0 2 2h16l30.58 45.12-45.78 71.64a2 2 0 0 0 1.68 3.08h25.72a2 2 0 0 0 1.7-.95L550 175.7l34.83 51.94a2 2 0 0 0 1.66.89h25.4a2 2 0 0 0 1.77-1.06 2 2 0 0 0-.08-2.06zM738.48 227.89H632.71v-98.83c0-30 15.79-45.15 47-45.15H736v42h-23.09v-20.22H680.7q-23.69 0-23.68 24.63v75.78h81.46zM877.72 167.58h-85.25v30c0 5.68 2.84 8.52 8.21 8.52h73.26v21.79h-77.05c-18.94 0-28.41-9.16-28.41-27.79v-84.93c0-20.84 9.78-31.26 29.68-31.26h48.94c20.2 0 30.31 9.79 30.62 29.68zm-85.25-21.47H854v-30c0-6.94-3.79-10.42-11-10.42h-38.53c-7.89 0-12 3.79-12 11.69zM973.65 105.69h-38.83v122.2h-24.63v-144h63.46zM1014.86 105.69h-18.94V83.91h18.94V39.7h24.31v44.21h37.89v21.78h-37.89V196q0 10.89 10.42 10.42h20.21a55.27 55.27 0 0 0 7.58-.32v21.79h-32.21q-30.32 0-30.31-32.21zM422.75 44h-50.84c-28.41 0-42.62 12.31-42.62 37.25v112.68c0 25.57 13.89 38.2 41.68 38.2h52.73c27.78 0 41.67-12.63 41.67-38.2V81.2c0-24.94-14.2-37.2-42.62-37.2zm-50.84 22.68h50.84c10.73 0 16.1 4.74 16.1 14.52v2.13l-83 60.67V81.2c-.04-9.78 5.33-14.52 16.06-14.52zm50.21 142.72h-49.58c-11.05 0-16.73-5.69-16.73-16.74v-16.47l83-60.66v77.13c.04 11.05-5.64 16.74-16.69 16.74z"/>
        <path d="M254.36 13.51h-23.72L110 134.16l17.53 17.53a3 3 0 0 1 0 4.24l-25.61 25.61a3 3 0 0 1-4.24 0L53.53 137.4a5.23 5.23 0 0 1 0-7.44L172.1 13.51h-64.44L126 32.35a3 3 0 0 1-.07 4.26L99.62 61.88a3 3 0 0 1-4.21-.05l-49-48.32H26.87a8.69 8.69 0 0 0-8.66 8.66v227.49a8.69 8.69 0 0 0 8.66 8.66H49.2l122-122-17.53-17.53a3 3 0 0 1 0-4.24l25.65-25.65a3 3 0 0 1 4.24 0L227.7 133a5.24 5.24 0 0 1 0 7.44l-120 117.84h68.22L157.11 239a3 3 0 0 1 .07-4.26l26.28-25.27a3 3 0 0 1 4.21.05L237 258.19l17.32.13a8.69 8.69 0 0 0 8.66-8.66V22.17a8.69 8.69 0 0 0-8.62-8.66z" fill="#3d8cff"/>
    </g>
</svg>
