<?xml version="1.0" encoding="UTF-8"?>
<svg width="400px" height="72px" viewBox="0 0 400 72" version="1.1" xmlns="http://www.w3.org/2000/svg" xmlns:xlink="http://www.w3.org/1999/xlink">
    <!-- Generator: Sketch 57.1 (83088) - https://sketch.com -->
    <title>Artboard Copy 8</title>
    <desc>Created with Sketch.</desc>
    <g id="Artboard-Copy-8" stroke="none" stroke-width="1" fill="none" fill-rule="evenodd">
        <g id="Group-2" fill="#000000">
            <path d="M44.8191078,24.8340659 C43.5967624,23.7439506 42.0688536,22.9093436 40.2353354,22.3302198 C38.4018173,21.751096 36.6022802,21.4615385 34.8366702,21.4615385 C32.8673359,21.4615385 31.0677988,21.8192272 29.4380049,22.5346154 C27.808211,23.2500036 26.3991395,24.2379058 25.2107482,25.4983516 C24.0223568,26.7587975 23.0886347,28.2747164 22.4095539,30.0461538 C21.7304731,31.8175913 21.3909378,33.7252645 21.3909378,35.7692308 C21.3909378,37.813197 21.7644267,39.7208703 22.5114155,41.4923077 C23.2584044,43.2637451 24.2770103,44.779664 25.5672638,46.0401099 C26.8575173,47.3005558 28.3684494,48.288458 30.1001054,49.0038462 C31.8317614,49.7192343 33.6822288,50.0769231 35.651563,50.0769231 C37.9604377,50.0769231 40.0655566,49.582972 41.9669828,48.5950549 C43.868409,47.6071379 45.4981784,46.261547 46.85634,44.5582418 L32.3270987,44.5582418 L42.2015963,30.2505495 L66.9230769,30.2505495 L66.9230769,52.9384615 C65.3611911,55.7318821 63.493747,58.2697688 61.3206884,60.5521978 C59.1476299,62.8346268 56.7199525,64.7933984 54.0375834,66.4285714 C51.3552143,68.0637444 48.4521875,69.3241714 45.3284159,70.2098901 C42.2046443,71.0956088 38.9790589,71.5384615 35.651563,71.5384615 C30.7621814,71.5384615 26.1445013,70.6186905 21.7983843,68.7791209 C17.4522672,66.9395512 13.6664486,64.4186973 10.4408149,61.2164835 C7.21518116,58.0142697 4.6686664,54.2329888 2.80119424,49.8725275 C0.933722076,45.5120661 0,40.8110142 0,35.7692308 C0,30.8637117 0.882791781,26.230791 2.64840183,21.8703297 C4.41401187,17.5098683 6.84168927,13.7115546 9.93150685,10.4752747 C13.0213244,7.23899481 16.6883057,4.6840753 20.9325606,2.81043956 C25.1768155,0.936803819 29.7435653,0 34.632947,0 C38.4357994,0 41.7292918,0.374721527 44.513523,1.12417582 C47.2977542,1.87363012 49.6405478,2.72526996 51.541974,3.67912088 C53.7829406,4.76923622 55.6503848,5.96153199 57.1443625,7.25604396 L44.8191078,24.8340659 Z" id="Path"></path>
            <polygon id="Path" points="92.3458073 0 108.423423 0 133.846154 69.2307692 112.744283 69.2307692 100.472761 31.078328 88.024948 69.2307692 66.9230769 69.2307692"></polygon>
            <polygon id="Path" points="136.153846 0 158.126945 0 158.126945 51.0667743 180 51.0667743 173.507469 69.2307692 136.153846 69.2307692"></polygon>
            <polygon id="Path" points="202.345807 0 218.423423 0 243.846154 69.2307692 222.744283 69.2307692 210.472761 31.078328 198.024948 69.2307692 176.923077 69.2307692"></polygon>
            <polygon id="Path" points="265.227758 33.4217507 247.458903 0 270.849542 0 276.872882 11.313574 282.896223 0 306.387251 0 288.618396 33.4217507 307.692308 69.2307692 284.301669 69.2307692 276.872882 55.4261331 269.544485 69.2307692 246.153846 69.2307692"></polygon>
            <polygon id="Path" points="307.692308 0 330.769231 0 330.769231 69.2307692 307.692308 69.2307692"></polygon>
            <polygon id="Path" points="358.499653 0 374.57727 0 400 69.2307692 378.898129 69.2307692 366.626607 31.078328 354.178794 69.2307692 333.076923 69.2307692"></polygon>
        </g>
    </g>
</svg>