<?xml version="1.0" encoding="utf-8"?>
<!-- Generator: Adobe Illustrator 16.0.0, SVG Export Plug-In . SVG Version: 6.00 Build 0)  -->
<!DOCTYPE svg PUBLIC "-//W3C//DTD SVG 1.1//EN" "http://www.w3.org/Graphics/SVG/1.1/DTD/svg11.dtd">
<svg version="1.1" id="Layer_1" xmlns="http://www.w3.org/2000/svg" xmlns:xlink="http://www.w3.org/1999/xlink" x="0px" y="0px"
	 width="274.965px" height="88.181px" viewBox="0 0 274.965 88.181" enable-background="new 0 0 274.965 88.181"
	 xml:space="preserve">
<g>
	<g>
		<path fill="#2E348D" d="M66.271,84.681c-1.128,1.129-2.757,1.992-4.889,2.595c-2.133,0.604-4.689,0.905-7.665,0.905
			c-2.978,0-5.794-0.442-8.45-1.327c-2.655-0.885-4.828-3.019-6.518-6.398L26.798,56.072c-1.207-2.494-2.293-4.848-3.259-7.062
			c-0.966-2.213-2.013-4.769-3.139-7.666l-0.724,0.121c0.32,4.346,0.501,8.772,0.543,13.277c0.04,4.509,0.061,8.934,0.061,13.279
			v18.71c-0.887,0.242-2.233,0.482-4.044,0.725c-1.811,0.241-3.603,0.362-5.372,0.362c-1.771,0-3.341-0.121-4.708-0.362
			c-1.369-0.242-2.496-0.725-3.38-1.448C1.89,85.283,1.207,84.3,0.724,83.051C0.241,81.805,0,80.175,0,78.162V17.806
			c1.125-1.607,2.855-2.815,5.19-3.621c2.333-0.803,4.829-1.207,7.484-1.207c2.977,0,5.813,0.465,8.51,1.389
			c2.695,0.926,4.847,3.038,6.458,6.337l12.071,24.384c1.208,2.496,2.293,4.85,3.259,7.062c0.966,2.215,2.011,4.769,3.139,7.665
			l0.604-0.121c-0.322-4.346-0.524-8.69-0.604-13.035c-0.081-4.346-0.121-8.691-0.121-13.037V14.063
			c0.885-0.24,2.233-0.482,4.044-0.724c1.811-0.241,3.601-0.362,5.372-0.362c3.541,0,6.235,0.625,8.088,1.871
			c1.85,1.248,2.776,3.844,2.776,7.786V84.681z"/>
		<path fill="#2E348D" d="M128.385,14.063c0.562,0.887,1.066,2.073,1.51,3.562c0.441,1.488,0.664,3.037,0.664,4.646
			c0,3.139-0.664,5.371-1.992,6.699s-3.12,1.992-5.372,1.992H97.845v13.641h26.436c0.643,0.887,1.186,2.053,1.629,3.5
			c0.441,1.449,0.664,2.979,0.664,4.588c0,3.059-0.664,5.25-1.991,6.578c-1.328,1.328-3.12,1.992-5.372,1.992H98.086v25.47
			c-0.886,0.242-2.275,0.482-4.165,0.725c-1.892,0.241-3.763,0.362-5.613,0.362c-1.853,0-3.482-0.142-4.889-0.423
			c-1.409-0.28-2.595-0.784-3.561-1.509s-1.69-1.729-2.173-3.019c-0.483-1.285-0.724-2.976-0.724-5.068V25.29
			c0-3.459,1.005-6.195,3.018-8.208c2.011-2.011,4.748-3.019,8.208-3.019H128.385z"/>
		<path fill="#2E348D" d="M139.368,30.964c-0.564-0.885-1.086-2.092-1.57-3.621c-0.481-1.527-0.724-3.139-0.724-4.829
			c0-3.138,0.704-5.39,2.112-6.76c1.408-1.367,3.238-2.052,5.492-2.052h52.631c0.562,0.887,1.086,2.094,1.568,3.621
			c0.484,1.529,0.727,3.139,0.727,4.828c0,3.139-0.707,5.393-2.113,6.76c-1.408,1.37-3.24,2.053-5.494,2.053h-13.398v55.769
			c-0.887,0.242-2.275,0.482-4.164,0.725c-1.893,0.241-3.764,0.362-5.613,0.362c-1.852,0-3.482-0.142-4.887-0.423
			c-1.412-0.28-2.598-0.784-3.562-1.509c-0.967-0.725-1.691-1.729-2.174-3.019c-0.482-1.285-0.723-2.976-0.723-5.068V30.964H139.368
			z"/>
	</g>
	<g>
		<path fill="#2E348D" d="M219.284,13.702l7.355,11.82h0.049v-11.82h3.627v17.62h-3.873l-7.33-11.796h-0.049v11.796h-3.629v-17.62
			H219.284z"/>
		<path fill="#2E348D" d="M231.821,13.702h4.344l4.121,6.959l4.098-6.959h4.318l-6.541,10.857v6.763h-3.873v-6.86L231.821,13.702z"
			/>
		<path fill="#2E348D" d="M261.485,18.403c-0.23-0.371-0.52-0.695-0.865-0.975c-0.344-0.28-0.736-0.498-1.172-0.654
			s-0.893-0.234-1.369-0.234c-0.873,0-1.613,0.168-2.221,0.506c-0.609,0.337-1.104,0.789-1.48,1.357
			c-0.379,0.567-0.654,1.213-0.828,1.938c-0.172,0.724-0.258,1.473-0.258,2.245c0,0.74,0.086,1.46,0.258,2.159
			c0.174,0.699,0.449,1.329,0.828,1.889c0.377,0.559,0.871,1.008,1.48,1.345c0.607,0.337,1.348,0.506,2.221,0.506
			c1.184,0,2.109-0.362,2.775-1.086c0.668-0.724,1.074-1.679,1.223-2.862h3.752c-0.1,1.102-0.355,2.098-0.766,2.986
			c-0.412,0.888-0.955,1.645-1.629,2.27c-0.676,0.625-1.465,1.103-2.369,1.432c-0.904,0.328-1.9,0.494-2.986,0.494
			c-1.35,0-2.562-0.234-3.641-0.704c-1.078-0.469-1.986-1.114-2.727-1.937c-0.74-0.823-1.309-1.79-1.703-2.9
			s-0.592-2.308-0.592-3.591c0-1.315,0.197-2.538,0.592-3.665s0.963-2.109,1.703-2.949c0.74-0.839,1.648-1.496,2.727-1.975
			c1.078-0.477,2.291-0.715,3.641-0.715c0.971,0,1.889,0.14,2.752,0.42c0.863,0.279,1.637,0.687,2.32,1.221
			c0.682,0.535,1.246,1.197,1.689,1.986c0.445,0.791,0.725,1.695,0.84,2.715h-3.752C261.862,19.181,261.716,18.772,261.485,18.403z"
			/>
	</g>
	<path fill="#2E348D" d="M267.466,45h-53.668c-4.135,0-7.5-3.364-7.5-7.5v-30c0-4.136,3.365-7.5,7.5-7.5h53.668
		c4.135,0,7.5,3.364,7.5,7.5v30C274.966,41.636,271.601,45,267.466,45z M213.798,3c-2.48,0-4.5,2.019-4.5,4.5v30
		c0,2.481,2.02,4.5,4.5,4.5h53.668c2.48,0,4.5-2.019,4.5-4.5v-30c0-2.481-2.02-4.5-4.5-4.5H213.798z"/>
</g>
</svg>
