<?xml version="1.0" encoding="utf-8"?>
<!-- Generator: Adobe Illustrator 21.0.2, SVG Export Plug-In . SVG Version: 6.00 Build 0)  -->
<svg version="1.1" id="Calque_1" xmlns="http://www.w3.org/2000/svg" xmlns:xlink="http://www.w3.org/1999/xlink" x="0px" y="0px"
	 viewBox="0 0 488.7 141.7" style="enable-background:new 0 0 488.7 141.7;" xml:space="preserve">
<style type="text/css">
	.st0{fill:#211C1D;}
</style>
<g>
	<g>
		<path class="st0" d="M36.3,102c1.7,1.7,2.5,3.7,2.5,6c0,2.3-0.8,4.4-2.5,6.1c-1.7,1.7-3.7,2.6-6,2.6c-2.4,0-4.5-0.8-6.2-2.5
			c-1.7-1.7-2.5-3.7-2.5-6c0-2.3,0.8-4.4,2.5-6.1c1.7-1.7,3.7-2.6,6.2-2.6C32.6,99.5,34.6,100.3,36.3,102z"/>
	</g>
	<g>
		<path class="st0" d="M178.8,24.3c1.7,1.7,2.5,3.7,2.5,6c0,2.3-0.8,4.4-2.5,6.1c-1.7,1.7-3.7,2.6-6,2.6c-2.4,0-4.5-0.8-6.2-2.5
			c-1.7-1.7-2.5-3.7-2.5-6s0.8-4.4,2.5-6.1c1.7-1.7,3.7-2.6,6.2-2.6C175.2,21.8,177.2,22.7,178.8,24.3z"/>
	</g>
	<g>
		<path class="st0" d="M54,66.2l0.5-8.8c3-2.4,6.2-4.4,9.5-6c3.4-1.5,7.5-2.3,12.4-2.3c3.2,0,6.5,0.5,9.7,1.4c3.2,0.9,6,2.5,8.5,4.7
			c1.8,1.7,3.2,3.7,4.1,6c0.9,2.3,1.4,5.3,1.4,9.1c0,0.8-0.3,35.2,0.2,37.2c0.5,2,1.9,3,4.3,3c1.2,0,1.7-0.1,2.9-0.5l0.6,3.6
			c-2,1-3.7,1.7-5.1,2.2c-1.4,0.5-3,0.7-4.6,0.7c-2.3,0-4.5-0.7-6.4-2.2c-1.9-1.5-3.2-3.7-3.9-6.6c-2.8,2.9-5.7,5.2-8.8,6.9
			s-6.9,2.6-11.6,2.6c-3.3,0-6.2-0.6-8.6-1.7c-2.4-1.1-4.3-2.6-5.8-4.4c-1.5-1.8-2.6-3.7-3.2-5.8c-0.7-2.1-1-4.1-1-6.1
			c0-3.4,0.6-6.3,1.8-8.5c1.2-2.3,2.9-4.1,4.9-5.4c2.1-1.4,4.3-2.4,6.6-3.1c2.3-0.7,5.4-1.5,9.1-2.3l11.8-2.6
			c1.9-0.5,3.2-1.2,3.9-2.2c0.7-1,1.1-2.4,1.1-4.3c0-4.5-1.4-8.1-4.2-10.8c-2.8-2.7-6.4-4-11-4c-2.6,0-4.8,0.3-6.7,1
			c-1.8,0.7-3.3,1.6-4.5,2.6c-1.1,1.1-2,2.1-2.6,3.2c-0.6,1-1.2,2.1-1.6,3v0.1H54z M87.9,81.9c-5.6,0.8-10.1,1.8-13.6,2.9
			c-3.5,1.1-6.1,2.4-7.8,3.7s-2.9,2.8-3.5,4.3c-0.6,1.5-0.9,3.3-0.9,5.4c0,4,1.2,6.9,3.6,8.7c2.4,1.8,5,2.7,7.9,2.7
			c3.6,0,6.9-1.2,9.9-3.7c3-2.5,4.5-5.5,4.5-9.1V81.9z"/>
	</g>
	<g>
		<path class="st0" d="M153.9,62.6c-1.1-0.6-2.1-1.1-3.1-1.4c-1-0.3-2.3-0.4-3.9-0.4c-3.4,0-6.2,0.8-8.5,2.5
			c-2.2,1.7-3.8,3.4-4.8,5.2c-0.5,1.1-0.6,1.5-0.9,2.5l0,46.4h-14.5V49.2h14.5l0.1,12.9c0.7-1.7,0.2-0.4,1.2-2.1
			c1-1.7,2.4-3.3,4.2-5c1.8-1.7,3.9-3,6.4-4.1c2.5-1.1,5.5-1.6,8.8-1.6c0.3,0,2.2,0.1,2.4,0.1c-0.8,3.1-1.1,11.1-0.9,12.6
			L153.9,62.6z"/>
	</g>
	<g>
		<path class="st0" d="M165.8,49.2h13.7l0.1,68.2H166L165.8,49.2z"/>
	</g>
	<g>
		<path class="st0" d="M194.6,66.2l0.5-8.8c3-2.4,6.2-4.4,9.5-6c3.4-1.5,7.5-2.3,12.4-2.3c3.2,0,6.5,0.5,9.7,1.4
			c3.2,0.9,6,2.5,8.5,4.7c1.8,1.7,3.2,3.7,4.1,6c0.9,2.3,1.4,5.3,1.4,9.1c0,0.8-0.3,35.2,0.2,37.2c0.5,2,1.9,3,4.3,3
			c1.2,0,2.3-0.2,3.4-0.7l0.1,3.8c-2,1-3.7,1.7-5.1,2.2c-1.4,0.5-3,0.7-4.6,0.7c-2.3,0-4.5-0.7-6.4-2.2s-3.2-3.7-3.9-6.6
			c-2.8,2.9-5.7,5.2-8.8,6.9c-3.1,1.7-6.9,2.6-11.6,2.6c-3.3,0-6.2-0.6-8.6-1.7c-2.4-1.1-4.3-2.6-5.8-4.4c-1.5-1.8-2.6-3.7-3.2-5.8
			c-0.7-2.1-1-4.1-1-6.1c0-3.4,0.6-6.3,1.8-8.5c1.2-2.3,2.9-4.1,4.9-5.4c2.1-1.4,4.3-2.4,6.6-3.1c2.3-0.7,5.4-1.5,9.1-2.3l11.8-2.6
			c1.9-0.5,3.2-1.2,3.9-2.2c0.7-1,1.1-2.4,1.1-4.3c0-4.5-1.4-8.1-4.2-10.8c-2.8-2.7-6.4-4-11-4c-2.6,0-4.8,0.3-6.7,1
			c-1.8,0.7-3.3,1.6-4.5,2.6c-1.1,1.1-2,2.1-2.6,3.2c-0.6,1-1.2,2.1-1.6,3v0.1H194.6z M228.6,81.9c-5.6,0.8-10.1,1.8-13.6,2.9
			c-3.5,1.1-6.1,2.4-7.8,3.7c-1.8,1.4-2.9,2.8-3.5,4.3c-0.6,1.5-0.9,3.3-0.9,5.4c0,4,1.2,6.9,3.6,8.7c2.4,1.8,5,2.7,7.9,2.7
			c3.6,0,6.9-1.2,9.9-3.7c3-2.5,4.5-5.5,4.5-9.1V81.9z"/>
	</g>
	<g>
		<path class="st0" d="M258.9,49.2h14.2c0,0,0.1,10,0,11.8c2.4-3.4,4.1-5.3,8.1-7.8c4-2.6,8.9-3.9,14.7-3.9c5.1,0,9.3,0.8,12.6,2.4
			c3.2,1.6,5.6,3.6,7.1,6.1c1.5,2.5,2.5,5,2.9,7.4c0.5,2.5,0.7,5,0.7,7.6c0,0.1-0.2,42.4-0.1,44.5H305c0.3-4.6,0.5-8,0.7-11.8
			c0.2-3.8,0.3-7.2,0.4-10.3c0.1-3.9,0.1-7.7,0.1-11.4c0-4.2-0.1-7.8-0.4-10.6c-0.3-2.8-0.9-5.5-2-7.9c-1-2.4-2.6-4.3-4.7-5.7
			c-2.1-1.4-5-2.1-8.6-2.1c-7.4,0-12.8,3.1-16.1,9.3c-0.5,1.1-1,2.7-1.4,4.9v45.5h-14.3L258.9,49.2z"/>
	</g>
	<g>
		<path class="st0" d="M342.9,82.9c0,3.2,0.2,6.2,0.7,9.2c0.5,3,1.4,5.8,3,8.5c1.4,2.3,3,4.3,4.8,5.7c1.8,1.5,3.5,2.6,5.2,3.2
			c1.7,0.7,3.3,1.1,4.7,1.3c1.4,0.2,2.8,0.3,4.2,0.3c3.1,0,5.8-0.4,8.3-1.2c2.5-0.8,4.6-1.8,6.3-3c1.7-1.2,3.1-2.3,4.2-3.4
			c1.1-1.1,2-2.2,2.7-3.3l1.6,0.4c-0.5,2.2-0.8,4.5-0.9,7c0,0.5,0,0.8,0,1.1c-6.1,5.9-14.5,8.8-25.2,8.8c-10.3,0-18.4-3-24.3-9.1
			c-5.9-6-8.9-14.3-8.9-24.8c0-4.8,0.7-9.2,2-13.4c1.3-4.1,3.3-7.8,6-11c2.7-3.2,6.1-5.6,10.3-7.4c4.1-1.8,8.9-2.6,14.2-2.6
			c6.5,0,11.8,1.1,15.9,3.4c4.1,2.3,7.1,5.1,9.1,8.7c1.9,3.5,3.2,7.1,3.8,10.6c0.6,3.6,0.9,7.2,0.9,10.9H342.9z M377.9,77.2
			c0-2.1-0.1-4.2-0.3-6.4c-0.2-2.2-0.9-4.6-1.9-7c-1-2.5-2.7-4.6-4.9-6.4c-2.3-1.8-5.3-2.6-9.1-2.6c-5.7,0-10.1,2-13.1,6
			c-3.1,4-4.9,9.5-5.5,16.5H377.9z"/>
	</g>
	<g>
		<path class="st0" d="M415.1,82.9c0,3.2,0.2,6.2,0.7,9.2c0.5,3,1.4,5.8,3,8.5c1.4,2.3,3,4.3,4.8,5.7c1.8,1.5,3.5,2.6,5.2,3.2
			c1.7,0.7,3.3,1.1,4.7,1.3c1.4,0.2,2.8,0.3,4.2,0.3c3.1,0,5.8-0.4,8.3-1.2c2.5-0.8,4.6-1.8,6.3-3c1.7-1.2,3.1-2.3,4.2-3.4
			c1.1-1.1,2-2.2,2.7-3.3l1.6,0.4c-0.5,2.2-0.8,4.5-0.9,7c0,0.5,0,0.8,0,1.1c-6.1,5.9-14.5,8.8-25.2,8.8c-10.3,0-18.4-3-24.3-9.1
			c-5.9-6-8.9-14.3-8.9-24.8c0-4.8,0.7-9.2,2-13.4c1.3-4.1,3.3-7.8,6-11c2.7-3.2,6.1-5.6,10.3-7.4c4.1-1.8,8.9-2.6,14.2-2.6
			c6.5,0,11.8,1.1,15.9,3.4c4.1,2.3,7.1,5.1,9.1,8.7c1.9,3.5,3.2,7.1,3.8,10.6c0.6,3.6,0.9,7.2,0.9,10.9H415.1z M450.2,77.2
			c0-2.1-0.1-4.2-0.3-6.4c-0.2-2.2-0.9-4.6-1.9-7c-1-2.5-2.7-4.6-4.9-6.4c-2.3-1.8-5.3-2.6-9.1-2.6c-5.7,0-10.1,2-13.1,6
			c-3.1,4-4.9,9.5-5.5,16.5H450.2z"/>
	</g>
</g>
</svg>
