<svg xmlns="http://www.w3.org/2000/svg" viewBox="0 0 925.102 154.283">
  <g id="block-base" transform="translate(-43.628 -392.498)">
    <path id="Path_550" data-name="Path 550" d="M43.628,403.519H90.179c28.88,0,50.921,8.36,50.921,34.58,0,12.92-7.22,26.221-19.19,30.4v.95c15.2,3.61,26.41,14.25,26.41,33.25,0,28.311-23.56,41.421-54.531,41.421H43.628Zm44.461,57.19c17.86,0,25.65-7.22,25.65-18.43,0-12.35-8.36-17.29-25.271-17.29H71.748v35.72Zm3.23,61.751c19.19,0,29.64-6.84,29.64-21.47,0-13.68-10.26-19.38-29.64-19.38H71.749v40.851h19.57Z"/>
    <path id="Path_551" data-name="Path 551" d="M165.038,514.29V392.5h27.74V515.62c0,6.27,3.04,8.359,5.7,8.359a15.74,15.74,0,0,0,3.8-.38l3.42,20.711a38.032,38.032,0,0,1-14.44,2.47C171.878,546.78,165.038,534.05,165.038,514.29Z"/>
    <path id="Path_552" data-name="Path 552" d="M216.336,491.109c0-35.53,24.51-56.051,51.11-56.051s51.111,20.521,51.111,56.051c0,35.15-24.51,55.671-51.111,55.671S216.336,526.26,216.336,491.109Zm73.721,0c0-20.14-8.17-33.25-22.61-33.25s-22.61,13.11-22.61,33.25c0,19.95,8.17,32.87,22.61,32.87S290.057,511.06,290.057,491.109Z"/>
    <path id="Path_553" data-name="Path 553" d="M333.374,491.109c0-35.53,25.46-56.051,54.341-56.051,13.11,0,23.181,5.13,30.971,11.78l-13.3,18.05c-5.32-4.56-10.26-7.03-16.34-7.03-16.15,0-27.17,13.11-27.17,33.25,0,19.95,11.02,32.87,26.411,32.87,7.6,0,14.82-3.609,20.71-8.55l11.021,18.431a52.789,52.789,0,0,1-34.771,12.92C355.794,546.78,333.374,526.26,333.374,491.109Z"/>
    <path id="Path_554" data-name="Path 554" d="M438.253,392.5h27.17v91.2h.76l36.861-45.98h30.4L496.583,481.23l40.281,62.891H506.653l-25.84-44.081-15.39,17.48v26.6h-27.17Z"/>
    <path id="Path_555" data-name="Path 555" d="M553.582,403.519h46.551c28.881,0,50.921,8.36,50.921,34.58,0,12.92-7.221,26.221-19.19,30.4v.95c15.2,3.61,26.41,14.25,26.41,33.25,0,28.311-23.561,41.421-54.53,41.421H553.583v-140.6Zm44.461,57.19c17.86,0,25.65-7.22,25.65-18.43,0-12.35-8.36-17.29-25.271-17.29H581.7v35.72Zm3.229,61.751c19.19,0,29.641-6.84,29.641-21.47,0-13.68-10.26-19.38-29.641-19.38H581.7v40.851h19.57Z"/>
    <path id="Path_556" data-name="Path 556" d="M673.472,515.24c0-22.8,18.43-34.771,61.181-39.331-.38-10.45-4.94-18.43-18.051-18.43-9.88,0-19.38,4.37-29.26,10.07l-10.07-18.43c12.54-7.791,27.74-14.061,44.461-14.061,26.979,0,40.85,16.15,40.85,46.931V544.12h-22.8l-2.09-11.4h-.57c-9.31,7.98-19.95,14.061-32.11,14.061C686.012,546.78,673.472,533.29,673.472,515.24Zm61.18-.761v-21.47c-25.841,3.42-34.581,10.451-34.581,19.951,0,8.36,5.891,11.97,14.061,11.97C722.112,524.93,728,521.13,734.652,514.479Z"/>
    <path id="Path_557" data-name="Path 557" d="M779.11,531.77l12.729-17.479c9.5,7.41,18.62,11.59,28.5,11.59,10.64,0,15.39-4.56,15.39-11.21,0-7.98-11.02-11.59-22.23-15.96-13.49-5.13-29.07-13.3-29.07-30.97,0-19.19,15.58-32.681,39.521-32.681,15.581,0,27.36,6.46,36.291,13.11L847.7,465.08c-7.6-5.32-15.011-9.12-22.99-9.12-9.5,0-14.061,4.18-14.061,10.26,0,7.79,10.45,10.64,21.66,14.82,14.061,5.32,29.641,12.351,29.641,32.11,0,18.62-14.63,33.631-42.371,33.631C805.33,546.78,789.561,540.51,779.11,531.77Z"/>
    <path id="Path_558" data-name="Path 558" d="M874.679,491.109c0-34.581,24.13-56.051,49.591-56.051,29.26,0,44.46,21.47,44.46,50.921a51.853,51.853,0,0,1-1.33,12.73H901.849c2.28,17.48,13.681,26.6,29.45,26.6,8.74,0,16.341-2.66,23.94-7.41l9.5,17.1a67.118,67.118,0,0,1-37.24,11.78C897.858,546.78,874.679,526.07,874.679,491.109Zm70.11-10.83c0-14.44-6.46-23.561-20.14-23.561-11.21,0-21.091,7.98-23.181,23.561Z"/>
  </g>
</svg>
