<?xml version="1.0" encoding="utf-8"?>
<!-- Generator: Adobe Illustrator 16.0.0, SVG Export Plug-In . SVG Version: 6.00 Build 0)  -->
<!DOCTYPE svg PUBLIC "-//W3C//DTD SVG 1.1//EN" "http://www.w3.org/Graphics/SVG/1.1/DTD/svg11.dtd">
<svg version="1.1" id="Layer_1" xmlns="http://www.w3.org/2000/svg" xmlns:xlink="http://www.w3.org/1999/xlink" x="0px" y="0px"
	 width="1129.908px" height="271.478px" viewBox="218.161 -39.642 1129.908 271.478"
	 enable-background="new 218.161 -39.642 1129.908 271.478" xml:space="preserve">
<g>
	<g>
		<path fill="#666666" d="M1036.241,59.446c-3.978,1.271-7.709,3.062-11.207,5.369c-3.506,2.31-6.605,5.095-9.312,8.35
			c-2.711,3.266-4.854,6.799-6.438,10.616h-0.48V60.874H976.6v123.342h33.881v-55.588c0-5.562,0.55-10.73,1.662-15.503
			c1.111-4.771,2.988-8.947,5.607-12.523c2.619-3.578,6.082-6.399,10.379-8.473c4.293-2.062,9.543-3.102,15.744-3.102
			c2.062,0,4.217,0.115,6.441,0.354c2.215,0.239,4.129,0.521,5.729,0.839V58.73c-2.701-0.792-5.174-1.192-7.396-1.192
			C1044.354,57.536,1040.219,58.174,1036.241,59.446z"/>
		<path fill="#666666" d="M1168.76,79.962c-5.01-6.835-11.412-12.287-19.199-16.341c-7.801-4.062-16.938-6.085-27.438-6.085
			c-9.389,0-17.936,1.673-25.646,5.014c-7.709,3.34-14.354,7.909-19.916,13.721c-5.575,5.805-9.87,12.685-12.895,20.632
			c-3.014,7.952-4.531,16.54-4.531,25.768c0,9.539,1.471,18.287,4.412,26.242c2.939,7.959,7.121,14.787,12.531,20.515
			c5.396,5.729,12,10.143,19.805,13.247c7.791,3.101,16.537,4.651,26.236,4.651c13.994,0,25.932-3.183,35.789-9.548
			c9.854-6.355,17.17-16.938,21.949-31.729h-29.822c-1.107,3.817-4.127,7.443-9.062,10.854c-4.932,3.423-10.812,5.131-17.647,5.131
			c-9.543,0-16.863-2.467-21.949-7.396c-5.088-4.931-7.881-12.881-8.357-23.855H1182c0.643-9.543-0.16-18.688-2.387-27.438
			C1177.391,94.596,1173.77,86.804,1168.76,79.962z M1093.024,109.312c0.149-2.392,0.668-5.087,1.551-8.108
			c0.871-3.023,2.383-5.886,4.522-8.595c2.146-2.702,5.015-4.968,8.597-6.804c3.575-1.825,8.065-2.737,13.479-2.737
			c8.271,0,14.438,2.227,18.488,6.68c4.061,4.451,6.881,10.975,8.475,19.564H1093.024z"/>
		<path fill="#666666" d="M1288.411,13.877v62.026h-0.482c-3.811-6.047-9.02-10.616-15.619-13.726
			c-6.604-3.099-13.562-4.647-20.881-4.647c-9.062,0-17.018,1.789-23.852,5.37c-6.845,3.577-12.525,8.312-17.062,14.194
			c-4.526,5.887-7.953,12.682-10.256,20.396c-2.311,7.716-3.463,15.708-3.463,23.975c0,8.593,1.152,16.859,3.463,24.812
			c2.299,7.948,5.729,14.991,10.256,21.104c4.537,6.133,10.293,10.979,17.297,14.562c6.998,3.577,15.111,5.368,24.334,5.368
			c8.104,0,15.392-1.47,21.832-4.411c6.443-2.938,11.648-7.758,15.619-14.435h0.482v15.74h32.203V13.877H1288.411z M1288.172,136.99
			c-0.953,4.773-2.545,9.026-4.77,12.761c-2.23,3.743-5.213,6.722-8.949,8.942c-3.738,2.229-8.389,3.337-13.963,3.337
			c-5.238,0-9.732-1.146-13.479-3.456c-3.737-2.302-6.836-5.323-9.303-9.062c-2.457-3.732-4.256-7.986-5.369-12.767
			c-1.113-4.771-1.666-9.54-1.666-14.312c0-5.095,0.508-9.979,1.543-14.669c1.031-4.693,2.703-8.871,5.021-12.532
			c2.305-3.653,5.358-6.6,9.182-8.825c3.82-2.229,8.512-3.339,14.068-3.339c5.571,0,10.188,1.106,13.846,3.339
			c3.66,2.231,6.637,5.129,8.947,8.712c2.303,3.572,3.938,7.713,4.895,12.402c0.959,4.693,1.424,9.582,1.428,14.677
			C1289.6,127.286,1289.131,132.209,1288.172,136.99z"/>
	</g>
	<circle fill="#666666" cx="770.075" cy="155.278" r="28.936"/>
	<g>
		<path fill="#666666" d="M961.686,184.214h-44.354l-46.672-79.676l-27.795,28.373v51.303h-34.277V51.961
			c0-14.129,2.816-24.277,8.455-30.458c6.021-6.641,16.402-9.959,31.15-9.959c9.266,0,18.334,1.393,27.215,4.169l-4.398,22.699
			c-5.176-1.234-10.153-1.854-14.938-1.854c-5.406,0-9.074,1.505-11.002,4.518c-1.474,2.238-2.201,6.1-2.201,11.58V89.83
			l69.254-75.393h46.09l-63.926,66.126L961.686,184.214z"/>
	</g>
</g>
<g>
	<path fill="#666666" d="M360.195,59.194c-2.263-3.63-5.082-6.813-8.472-9.56c-3.388-2.74-7.222-4.878-11.493-6.412
		c-4.276-1.531-8.755-2.3-13.433-2.3c-8.553,0-15.812,1.656-21.78,4.961c-5.971,3.31-10.811,7.744-14.52,13.311
		c-3.713,5.565-6.413,11.898-8.107,18.997c-1.694,7.102-2.541,14.439-2.541,22.021c0,7.261,0.847,14.319,2.541,21.176
		c1.694,6.858,4.394,13.029,8.107,18.513c3.709,5.487,8.549,9.886,14.52,13.188c5.967,3.31,13.227,4.961,21.78,4.961
		c11.616,0,20.691-3.547,27.227-10.647c6.532-7.097,10.525-16.454,11.979-28.07h36.784c-0.968,10.812-3.471,20.568-7.502,29.282
		c-4.035,8.711-9.358,16.135-15.973,22.264c-6.616,6.134-14.36,10.812-23.231,14.036c-8.875,3.227-18.634,4.84-29.282,4.84
		c-13.229,0-25.13-2.299-35.695-6.896c-10.568-4.599-19.481-10.928-26.741-18.996c-7.26-8.065-12.826-17.545-16.698-28.437
		c-3.872-10.891-5.808-22.627-5.808-35.211c0-12.904,1.936-24.884,5.808-35.938c3.872-11.049,9.438-20.69,16.698-28.919
		c7.26-8.229,16.172-14.68,26.741-19.359c10.565-4.679,22.464-7.019,35.695-7.019c9.519,0,18.514,1.373,26.983,4.113
		c8.47,2.745,16.051,6.738,22.748,11.979c6.691,5.244,12.221,11.736,16.577,19.479c4.354,7.744,7.098,16.619,8.228,26.62h-36.784
		C363.904,66.817,362.452,62.824,360.195,59.194z"/>
	<path fill="#666666" d="M418.516,96.219c3.063-8.145,7.419-15.082,13.068-20.812c5.646-5.726,12.421-10.164,20.328-13.311
		c7.903-3.146,16.777-4.72,26.62-4.72c9.839,0,18.755,1.573,26.741,4.72c7.984,3.146,14.8,7.585,20.447,13.311
		c5.646,5.729,10.001,12.667,13.068,20.812c3.062,8.149,4.598,17.225,4.598,27.227c0,10.006-1.533,19.038-4.598,27.104
		c-3.066,8.069-7.422,14.968-13.068,20.691c-5.647,5.729-12.463,10.126-20.447,13.188c-7.986,3.062-16.902,4.599-26.741,4.599
		c-9.843,0-18.717-1.534-26.62-4.599c-7.907-3.062-14.684-7.461-20.328-13.188c-5.649-5.726-10.005-12.622-13.068-20.691
		c-3.064-8.064-4.598-17.099-4.598-27.104C413.918,113.444,415.449,104.369,418.516,96.219z M449.734,138.086
		c0.968,4.762,2.618,9.037,4.961,12.826c2.336,3.793,5.443,6.816,9.315,9.073c3.872,2.263,8.712,3.39,14.521,3.39
		c5.808,0,10.686-1.127,14.641-3.39c3.951-2.257,7.097-5.28,9.438-9.073c2.336-3.789,3.991-8.064,4.961-12.826
		c0.968-4.757,1.452-9.639,1.452-14.642c0-4.999-0.484-9.922-1.452-14.763c-0.97-4.841-2.625-9.113-4.961-12.826
		c-2.343-3.709-5.487-6.733-9.438-9.074c-3.956-2.338-8.833-3.51-14.641-3.51c-5.81,0-10.648,1.172-14.521,3.51
		c-3.872,2.341-6.979,5.365-9.315,9.074c-2.343,3.713-3.993,7.985-4.961,12.826c-0.97,4.841-1.452,9.764-1.452,14.763
		C448.282,128.448,448.766,133.329,449.734,138.086z"/>
	<path fill="#666666" d="M559.358,41.407V13.093h34.362v28.314H559.358z M593.722,60.767v125.113h-34.362V60.767H593.722z"/>
	<path fill="#666666" d="M646.235,60.767v17.424h0.726c4.356-7.26,10.002-12.542,16.939-15.852
		c6.936-3.305,14.037-4.961,21.297-4.961c9.193,0,16.734,1.251,22.627,3.751c5.887,2.503,10.524,5.972,13.914,10.406
		c3.389,4.438,5.768,9.843,7.139,16.214c1.369,6.375,2.059,13.432,2.059,21.175v76.956h-34.362v-70.664
		c0-10.322-1.615-18.028-4.842-23.11c-3.229-5.082-8.952-7.623-17.183-7.623c-9.356,0-16.135,2.783-20.328,8.35
		c-4.196,5.565-6.292,14.725-6.292,27.467v65.582h-34.363V60.767H646.235z"/>
</g>
</svg>
