<svg width="144" height="144" xmlns="http://www.w3.org/2000/svg">
    <defs>
        <linearGradient x1="0%" y1="0%" x2="82.049%" y2="82.049%" id="a">
            <stop stop-color="#2B3450" offset="0%"/>
            <stop stop-color="#06080E" offset="100%"/>
        </linearGradient>
    </defs>
    <g fill-rule="nonzero" fill="none">
        <path d="M132.375 71.91a8.63 8.63 0 0 1 8.266 6.09c.215-2.337.359-4.603.359-7.011C141 33.453 110.094 3 72 3S3 33.453 3 70.989v.92h129.375z" fill="#D8D1C6"/>
        <circle fill="#FF7507" cx="43.5" cy="34.5" r="13.5"/>
        <circle fill="#FF7507" cx="90" cy="42" r="21"/>
        <path d="M58.214 74.571l4.104.277 6.879-8.657 3.737 2.15 7.188 2.651 5.103-2.651L101.541 51l5.678 7.596 2.731-2.222h3.594l9.056 12.612 6.469-1.075 11.32 12.818c.403.042.612.069.611.08C137.651 117.645 110.094 141 72 141S3 110.188 3 72.21c0-.376 3.498-.422 9.38-.232l9.81-17.18h11.357l5.627 18.55c2.5.153 5.076.314 7.708.482l6.79-1.763 4.542 2.504z" fill="#C2B5AE"/>
        <path d="M72.026 141C43.316 141 18.763 121.127 9 96.072c1.953 0 3.978.071 6.075.071 1.012.287 2.17.43 3.399.43 1.012 0 3.45-.358 4.317-.573.434 0 .94 0 1.374.072-.144.43-.144.572-.144.715 0 3.222 2.226 5.759 6.926 5.759 4.629 0 7.053-2.04 7.27-5.118.723.072 2.785-.071 3.509 0 19.526 2.076 20.573 5.707 20.573 5.85.073.286-.312 3.398-4.217 6.047-8.39 5.727-10.4 8.577-9.604 12.156.94 4.295 5.716 4.182 13.821 6.587 2.183.648 5.135 1.002 7.955 1.575 3.11.716 6.364 1.36 9.474 1.933 5.786 1.145 11.644 2.29 16.272 3.723-.772 2.675-15.585 5.701-23.974 5.701z" fill="#D8D1C6"/>
        <path d="M31.5 81S27 96.12 27 96.408C27 97.848 29 99 31.5 99s4.5-1.152 4.5-2.592L31.5 81zM19.5 75S15 90.108 15 90.398C15 91.843 17.028 93 19.5 93s4.5-1.157 4.5-2.602C24 90.108 19.5 75 19.5 75z" fill="#FF7507"/>
        <path d="M114 76.614c0 5.848-27 5.848-27 0C87 70.765 93.031 66 100.465 66S114 70.693 114 76.614zM126 91.614c0 5.848-27 5.848-27 0s6.031-10.613 13.465-10.613C119.969 80.929 126 85.694 126 91.614zM99 109.614c0 5.848-27 5.848-27 0C72 103.765 78.031 99 85.465 99S99 103.765 99 109.614z" fill="#E1A57A"/>
        <path d="M72 0C32.328 0 0 32.328 0 72s32.328 72 72 72 72-32.328 72-72S111.672 0 72 0zm0 138.24c-28.152 0-52.272-17.64-61.848-42.48 1.872 0 3.888.072 5.904.072 1.008.288 2.088.432 3.312.432.936 0 1.872-.072 2.664-.288.432 0 .864 0 1.368.072-.144.432-.144.576-.144.72 0 3.168 3.384 5.472 8.064 5.472 4.536 0 7.848-2.16 7.992-5.184.72.072 1.512.144 2.232.216 19.152 2.088 20.448 5.544 20.448 5.688.072.288-.36 1.8-4.248 4.392-8.136 5.616-10.944 9-10.224 12.528.864 4.248 6.408 5.328 14.832 6.912 2.376.432 5.04.936 7.776 1.584 3.024.648 6.264 1.296 9.36 1.944 5.616 1.152 11.376 2.304 15.984 3.672A66.565 66.565 0 0 1 72 138.24zM17.568 90.072c.432-1.296 1.08-3.384 1.872-5.616.792 2.304 1.512 4.392 1.872 5.688-1.296 0-2.52-.072-3.744-.072zm11.88 6.12l1.944-5.832 1.944 5.832c-.432.144-1.152.288-1.944.288s-1.512-.144-1.944-.288zm73.368 34.416c-5.4-2.664-13.608-4.248-22.248-5.976a417.814 417.814 0 0 1-9.216-1.872c-2.808-.648-5.544-1.152-7.992-1.584-3.888-.72-8.568-1.656-10.08-2.52.504-.792 2.088-2.664 7.704-6.48 2.016-1.368 8.136-5.544 6.48-10.872-1.512-4.968-9.36-7.992-25.344-9.72-1.44-.144-2.952-.288-4.536-.432-.792-2.376-1.944-5.76-3.6-10.656l-2.736-7.992-2.736 7.992c-.936 2.664-1.656 4.824-2.304 6.696-.72-2.304-2.016-6.048-4.248-12.528l-2.52-8.136-2.736 7.992c-3.744 10.944-4.824 14.184-5.112 15.408H8.28a70.485 70.485 0 0 1-2.304-13.032l6.624-.216 10.944-19.152h7.56l6.552 21.528 15.408-3.96 3.528 1.944-7.488 9.432 4.536 3.6L69.624 69.84l1.872 1.08 8.64 3.168 3.744-1.944c-.72 1.512-1.152 3.168-1.152 4.896 0 1.728 1.08 5.4 9.288 6.768 2.592.432 4.536 2.664 4.536 5.328v9.36c-1.152-.792-2.448-1.512-3.888-2.016h.072c-3.168-1.008-6.12-2.52-7.056-5.616-.72 2.52-2.736 3.96-5.328 4.968-6.696 1.8-11.52 6.84-11.52 12.816 0 2.16 1.656 7.272 16.704 7.272 15.12 0 16.704-5.112 16.704-7.272V97.344c1.008.36 2.16.648 3.528.864 2.592.432 4.536 2.664 4.536 5.328v6.48c0 1.512 1.08 2.88 2.592 3.024 1.728.144 3.168-1.224 3.168-2.88v-6.624c0-2.664 1.944-4.896 4.536-5.328 8.208-1.368 9.288-4.968 9.288-6.768 0-4.824-3.168-9-7.848-11.376h.072c-.072 0-.144-.072-.288-.072-.792-.432-1.728-.72-2.592-1.008-1.296-.648-2.448-1.512-3.24-2.592-.36-5.112-4.176-9.432-9.648-11.52h-.072c-.36-.144-.72-.216-1.08-.36-2.736-1.008-5.112-2.52-5.904-5.184-.864 2.952-3.384 4.464-6.624 5.472-.216.072-.504.144-.72.288l9-9.576 5.4 7.272 4.32-3.456h1.08l9.36 12.888 6.624-1.152 9.72 11.016c-3.168 21.024-16.344 38.88-34.632 48.528zm3.096-78.408l-4.32-5.832L88.2 60.696c-9.432-1.008-16.776-9-16.776-18.72 0-10.368 8.424-18.792 18.792-18.792 10.368 0 18.792 8.424 18.792 18.792 0 3.744-1.152 7.272-3.096 10.224zm4.392 24.408c-1.008.72-4.824 1.872-10.944 1.872-6.12 0-9.936-1.152-10.944-1.872.288-4.032 5.184-7.344 10.944-7.344 5.76 0 10.656 3.312 10.944 7.344zm2.952 7.056c5.76 0 10.656 3.312 10.944 7.344-1.008.72-4.824 1.872-10.944 1.872-6.12 0-9.936-1.152-10.944-1.872.288-4.032 5.184-7.344 10.944-7.344zM96.48 108.216c-1.008.72-4.752 1.872-10.944 1.872-6.192 0-9.936-1.152-10.944-1.872.288-4.032 5.184-7.344 10.944-7.344 5.76 0 10.656 3.312 10.944 7.344zm33.48-43.488l-6.192 1.08-8.928-12.384h-2.88a24.696 24.696 0 0 0 2.808-11.448c0-13.536-11.016-24.552-24.552-24.552s-24.624 10.944-24.624 24.48c0 11.232 7.632 20.736 17.928 23.688l-.36.36-3.528 1.8-5.76-2.088-5.688-3.312-7.992 10.08-6.408-3.528-12.312 3.168-6.192-20.304H20.16L9.144 71.064l-3.384.072C6.192 34.992 35.784 5.76 72 5.76c36.504 0 66.24 29.736 66.24 66.24v2.088l-8.28-9.36zm-84.744-13.32c9.144 0 16.704-7.488 16.704-16.704C61.92 25.488 54.432 18 45.216 18 36 18 28.512 25.488 28.512 34.704c0 9.216 7.488 16.704 16.704 16.704zm0-27.648c5.976 0 10.944 4.896 10.944 10.944a10.94 10.94 0 0 1-10.944 10.944 10.94 10.94 0 0 1-10.944-10.944A10.94 10.94 0 0 1 45.216 23.76z" fill="url(#a)"/>
    </g>
</svg>
