<svg xmlns="http://www.w3.org/2000/svg" viewBox="870 521.496 181.093 38"><defs><style>.a{fill:#00bfc0;}.a,.b,.c{fill-rule:evenodd;}.b{fill:#00edab;}.c{fill:#025d8b;}</style></defs><g transform="translate(365.575 246)"><g transform="translate(512.636 275.496)"><path class="a" d="M0-34.113V-41.6a.946.946,0,0,1,.933-.959H31.912a.946.946,0,0,1,.933.959v7.485Z" transform="translate(0 42.557)"/></g><g transform="translate(512.636 305.052)"><path class="a" d="M-132.681,0V7.485a.946.946,0,0,1-.933.959h-30.979a.946.946,0,0,1-.933-.959V0Z" transform="translate(165.525 0)"/></g><g transform="translate(545.48 283.941)"><path class="b" d="M0,0H7.278a.946.946,0,0,1,.933.959V20.152a.946.946,0,0,1-.933.959H0Z" transform="translate(0 0)"/></g><path class="c" d="M438.806-680.836h32.844v-21.111H438.806Z" transform="translate(73.83 985.888)"/><g transform="translate(571.179 283.709)"><path class="c" d="M-310.54-8.534a2.04,2.04,0,0,0,2.17,2.083,2.064,2.064,0,0,0,2.2-2.083,2.087,2.087,0,0,0-2.2-2.112,2.063,2.063,0,0,0-2.17,2.112m28.3,14.669c0-2.112,3.038-2.38,4.918-2.38h.636v.357c0,1.845-1.389,3.987-3.327,3.987a1.99,1.99,0,0,1-2.228-1.964m-3.7.178a4.69,4.69,0,0,0,5.005,4.731,4.779,4.779,0,0,0,4.485-2.678h.058a9.869,9.869,0,0,0-.058,1.071v.833a.371.371,0,0,0,.4.417h2.575a.372.372,0,0,0,.405-.417V1.2c0-3.838-2.257-6.04-6.134-6.04a9.719,9.719,0,0,0-5.468,1.666.443.443,0,0,0-.116.625l.984,1.875a.461.461,0,0,0,.695.119,6.968,6.968,0,0,1,3.558-1.16c1.62,0,2.835.684,2.835,2.678v.208h-.492c-2.4,0-8.737.327-8.737,5.147m-16.491,3.957a.372.372,0,0,0,.405.417h2.864a.371.371,0,0,0,.405-.417V3.725A6.574,6.574,0,0,1-298.5,1.7a4.092,4.092,0,0,1,3.964-3.094c1.881,0,2.314,1.25,2.314,3.094v8.569a.372.372,0,0,0,.405.417h2.864a.371.371,0,0,0,.4-.417V.928c0-4.017-1.851-5.772-5.121-5.772a5.711,5.711,0,0,0-5.237,3.154h-.058a9.632,9.632,0,0,0,.058-1.041V-4.071a.371.371,0,0,0-.4-.416h-2.72a.371.371,0,0,0-.405.416Zm-7.725,0a.371.371,0,0,0,.4.417h2.864a.371.371,0,0,0,.405-.417V-4.071a.371.371,0,0,0-.405-.416h-2.864a.371.371,0,0,0-.4.416Zm-11.37,0a.372.372,0,0,0,.405.417h2.864a.371.371,0,0,0,.4-.417V4.677a8.35,8.35,0,0,1,.319-2.47,4.285,4.285,0,0,1,3.79-3.184,3.929,3.929,0,0,1,.636.03.389.389,0,0,0,.463-.416V-4.249c0-.3-.145-.446-.463-.446h-.289A5.126,5.126,0,0,0-318-.8h-.058A10.686,10.686,0,0,0-318-1.869v-2.2a.371.371,0,0,0-.405-.416h-2.719a.372.372,0,0,0-.405.416V10.271Zm-9.953-3.809c0,2.738,1.736,4.374,4.513,4.374a6.655,6.655,0,0,0,1.678-.179.593.593,0,0,0,.492-.565V7.742a.352.352,0,0,0-.434-.357,3.806,3.806,0,0,1-.81.06c-1.129,0-1.765-.387-1.765-1.637v-7.29h2.344a.371.371,0,0,0,.405-.417V-4.071a.371.371,0,0,0-.405-.416h-2.344v-2.8a.371.371,0,0,0-.4-.417H-331a.371.371,0,0,0-.4.417v2.8h-2.343a.371.371,0,0,0-.405.416V-1.9a.371.371,0,0,0,.405.417h2.257V6.462Zm-17.5-3.362a7.69,7.69,0,0,0,8.014,7.944,8.314,8.314,0,0,0,5.845-2.231.449.449,0,0,0,.115-.625l-1.07-1.755a.427.427,0,0,0-.694-.119,5.723,5.723,0,0,1-3.877,1.518,4.56,4.56,0,0,1-4.6-4.761c0-2.588,1.678-4.7,4.282-4.7A5.491,5.491,0,0,1-337.649-.5a.392.392,0,0,0,.637-.089l1.186-1.875a.448.448,0,0,0-.116-.625,7.775,7.775,0,0,0-5.237-1.756A7.64,7.64,0,0,0-348.991,3.1m-14.871,0a4.477,4.477,0,0,1,4.4-4.731A4.472,4.472,0,0,1-355.1,3.1a4.455,4.455,0,0,1-4.369,4.731,4.46,4.46,0,0,1-4.4-4.731m-3.732,0a7.848,7.848,0,0,0,8.13,7.944,7.841,7.841,0,0,0,8.1-7.944,7.866,7.866,0,0,0-8.13-7.944,7.859,7.859,0,0,0-8.1,7.944M-383.68,7.385V-7.135h3.067c4.108,0,6.828,2.529,6.828,7.23,0,4.761-2.662,7.29-6.828,7.29Zm-3.732,2.886a.411.411,0,0,0,.405.417h6.6c6.336,0,10.473-3.928,10.473-10.592s-4.137-10.533-10.473-10.533h-6.6a.412.412,0,0,0-.406.417Z" transform="translate(387.413 10.646)"/></g><g transform="translate(504.425 283.941)"><path class="b" d="M-33.17-85.282h-7.278a.946.946,0,0,1-.933-.959v-19.193a.946.946,0,0,1,.933-.959h7.278Z" transform="translate(41.381 106.392)"/></g></g></svg>