<?xml version="1.0" encoding="utf-8"?>
<!-- Generator: Adobe Illustrator 16.0.3, SVG Export Plug-In . SVG Version: 6.00 Build 0)  -->
<!DOCTYPE svg PUBLIC "-//W3C//DTD SVG 1.1//EN" "http://www.w3.org/Graphics/SVG/1.1/DTD/svg11.dtd">
<svg version="1.1" id="Layer_1" xmlns="http://www.w3.org/2000/svg" xmlns:xlink="http://www.w3.org/1999/xlink" x="0px" y="0px"
	 width="1606.63px" height="551.069px" viewBox="0 0 1606.63 551.069" enable-background="new 0 0 1606.63 551.069"
	 xml:space="preserve">
<g>
	<rect x="10.69" y="279.827" fill="#E03127" width="267.948" height="267.944"/>
	<path fill-rule="evenodd" clip-rule="evenodd" d="M258.799,271.15v-2.483h16.859V222.26h3.043v48.89L258.799,271.15L258.799,271.15
		z M258.799,253.971l0.985,0.188l-0.004,9.633l2.503-0.003v-10.486h-3.485V253.971L258.799,253.971z M258.799,227.573l0.985,0.189
		l-0.004,13.182l2.503-0.006v-14.032h-3.485V227.573L258.799,227.573z M258.799,219.465v-2.492h12.285l0.064,2.923L258.799,219.465
		L258.799,219.465z M258.799,192.407v-1.562c1.829,0.106,3.276,1.621,3.276,3.473l-0.005,15.394h-2.394l-0.007-15.251
		C259.675,193.59,259.335,192.868,258.799,192.407L258.799,192.407z M258.799,164.763v-0.668h3.485v14.034l-2.503,0.003
		l0.004-13.179L258.799,164.763L258.799,164.763z M258.799,154.736v-1.896h15.685v2.364L258.799,154.736L258.799,154.736z
		 M258.799,115.117v-7.392l8.318,23.007l-2.792,0.012L258.799,115.117L258.799,115.117z M258.799,85.033v-1.699
		c2.549,0.828,4.386,3.226,4.386,6.051v13.179h-2.48l-0.01-13.003C260.707,87.643,259.967,86.057,258.799,85.033L258.799,85.033z
		 M258.799,80.116v-2.477l0.362,0.003l-0.362-2.317V71.09l3.211,9.025H258.799L258.799,80.116z M278.702,127.468h-8.249v-2.338
		h5.389l-2.176-15.127L278.702,127.468L278.702,127.468z M278.702,148.906h-2.438v-16.012l-6.271-2.446h8.71V148.906
		L278.702,148.906z M275.659,216.819l-0.003-58.884h3.047v58.884H275.659z M258.799,71.09v4.234l-1.18-7.552L258.799,71.09
		L258.799,71.09z M258.799,77.639v2.477h-4.516l0.019-2.518L258.799,77.639L258.799,77.639z M258.799,83.333v1.699
		c-0.916-0.804-2.096-1.263-3.383-1.263c-0.934,0-1.812,0.241-2.574,0.667c1.093-0.883,2.48-1.413,3.997-1.413
		C257.523,83.023,258.183,83.133,258.799,83.333L258.799,83.333z M258.799,107.726v7.392l-2.545-7.202l-19.936-0.488v-1.399h21.868
		L258.799,107.726L258.799,107.726z M258.799,152.84v1.896l-22.481-0.671v-1.226H258.799L258.799,152.84z M258.799,164.095v0.668
		l-3.484-0.668H258.799L258.799,164.095z M258.799,190.845v1.562c-0.409-0.353-0.933-0.554-1.501-0.554
		c-0.684,0-1.303,0.292-1.737,0.757c0.6-1.062,1.733-1.771,3.032-1.771C258.662,190.839,258.731,190.841,258.799,190.845
		L258.799,190.845z M258.799,216.973v2.492l-22.481-0.786v-1.706H258.799L258.799,216.973z M258.799,226.907v0.666l-3.484-0.666
		H258.799L258.799,226.907z M258.799,253.303v0.668l-3.484-0.668H258.799L258.799,253.303z M258.799,268.667v2.483l-22.481,0v-2.483
		H258.799L258.799,268.667z M236.318,253.564v-0.261h5.604v10.486l-2.502,0.003l0.003-9.633L236.318,253.564L236.318,253.564z
		 M236.318,227.168v-0.262h5.604v14.032l-2.502,0.006l0.003-13.182L236.318,227.168L236.318,227.168z M236.318,191.984v-0.463
		c0.579-0.429,1.297-0.682,2.076-0.682c1.922,0,3.479,1.557,3.479,3.479l-0.004,15.394h-2.398l-0.004-15.251
		c0.012-1.54-1.057-2.608-2.371-2.608C236.823,191.853,236.562,191.899,236.318,191.984L236.318,191.984z M236.318,164.357v-0.263
		h5.604v14.034l-2.502,0.003l0.003-13.179L236.318,164.357L236.318,164.357z M236.318,128.53v-1.396
		c1.679,0.247,2.961,1.697,2.961,3.448v10.301h-2.203v-10.346C237.077,129.71,236.787,129.014,236.318,128.53L236.318,128.53z
		 M236.318,125.66v-2.128c0.567,0.027,1.011,0.489,1.011,1.064C237.33,125.164,236.885,125.632,236.318,125.66L236.318,125.66z
		 M256.258,64.684c0-0.641,0.521-1.16,1.16-1.16c0.641,0,1.163,0.519,1.163,1.16c0,0.642-0.522,1.165-1.163,1.165
		C256.779,65.849,256.258,65.326,256.258,64.684z M236.318,106.029v1.399l-9.51-0.233v-1.166H236.318L236.318,106.029z
		 M236.318,123.532v2.128l-0.055,0.001c-0.589,0-1.065-0.479-1.065-1.065c0-0.592,0.477-1.065,1.065-1.065L236.318,123.532
		L236.318,123.532z M236.318,127.133v1.396c-0.451-0.467-1.065-0.736-1.744-0.736c-0.442,0-0.86,0.114-1.219,0.314
		c0.629-0.624,1.497-1.012,2.454-1.012C235.982,127.096,236.152,127.109,236.318,127.133L236.318,127.133z M236.318,152.84v1.226
		l-9.51-0.284v-0.942H236.318L236.318,152.84z M236.318,164.095v0.263l-1.365-0.263H236.318L236.318,164.095z M236.318,191.521
		v0.463c-0.37,0.127-0.697,0.345-0.96,0.625C235.599,192.182,235.927,191.812,236.318,191.521L236.318,191.521z M236.318,216.973
		v1.706l-9.51-0.333v-1.372H236.318L236.318,216.973z M236.318,226.907v0.262l-1.365-0.262H236.318L236.318,226.907z
		 M236.318,253.303v0.261l-1.365-0.261H236.318L236.318,253.303z M236.318,268.667v2.483l-9.51,0v-2.482H236.318L236.318,268.667z
		 M226.808,112.283v-1.224c1.47,0.216,2.591,1.484,2.591,3.011v4.856h-1.929v-4.89C227.47,113.317,227.217,112.708,226.808,112.283z
		 M226.808,106.029v1.166l-8.012-0.197v-0.968H226.808L226.808,106.029z M226.808,111.06v1.224c-0.395-0.41-0.934-0.649-1.529-0.649
		c-0.383,0-0.747,0.098-1.062,0.274c0.551-0.545,1.31-0.881,2.146-0.881C226.515,111.027,226.663,111.038,226.808,111.06
		L226.808,111.06z M226.808,152.84v0.942l-8.012-0.239v-0.703H226.808L226.808,152.84z M226.808,216.973v1.372l-8.012-0.279v-1.093
		H226.808L226.808,216.973z M226.808,268.667v2.482l-8.012,0v-2.482H226.808L226.808,268.667z M218.796,254.089v-0.787h2.863v10.486
		l-2.504,0.003v-9.633L218.796,254.089L218.796,254.089z M218.796,227.693v-0.787h2.863v14.032l-2.504,0.006v-13.182
		L218.796,227.693L218.796,227.693z M218.796,193.159v-2.231c1.544,0.358,2.693,1.74,2.693,3.391l-0.004,15.394h-2.393
		l-0.007-15.251C219.087,193.973,218.982,193.533,218.796,193.159L218.796,193.159z M218.796,164.885v-0.79h2.863v14.034
		l-2.504,0.003v-13.179L218.796,164.885L218.796,164.885z M218.796,128.534v-1.4c1.682,0.248,2.963,1.697,2.963,3.448v10.301h-2.207
		v-10.346C219.552,129.712,219.263,129.017,218.796,128.534L218.796,128.534z M218.796,125.66v-2.128
		c0.561,0.028,1.011,0.49,1.011,1.064C219.807,125.164,219.356,125.632,218.796,125.66z M218.796,106.029v0.968l-12.604-0.308v-0.66
		H218.796L218.796,106.029z M218.796,123.532v2.128l-0.054,0.001c-0.589,0-1.065-0.479-1.065-1.065c0-0.592,0.477-1.065,1.065-1.065
		L218.796,123.532L218.796,123.532z M218.796,127.134v1.4c-0.451-0.469-1.066-0.74-1.747-0.74c-0.442,0-0.855,0.114-1.216,0.314
		c0.628-0.624,1.494-1.012,2.451-1.012C218.458,127.096,218.629,127.109,218.796,127.134L218.796,127.134z M218.796,152.84v0.703
		l-12.604-0.375v-0.328H218.796L218.796,152.84z M218.796,164.095v0.79l-4.107-0.79H218.796L218.796,164.095z M218.796,190.927
		v2.231c-0.401-0.807-1.185-1.306-2.084-1.306c-0.683,0-1.302,0.292-1.737,0.757c0.6-1.062,1.733-1.771,3.032-1.771
		C218.278,190.839,218.542,190.871,218.796,190.927L218.796,190.927z M218.796,216.973v1.093l-12.604-0.441v-0.652H218.796
		L218.796,216.973z M218.796,226.907v0.787l-4.107-0.787H218.796L218.796,226.907z M218.796,253.303v0.787l-4.107-0.787H218.796
		L218.796,253.303z M218.796,268.667v2.482l-12.604,0v-2.481H218.796L218.796,268.667z M206.192,112.281v-1.221
		c1.469,0.217,2.59,1.484,2.59,3.011v4.856h-1.926v-4.89C206.856,113.315,206.603,112.706,206.192,112.281z M206.192,106.029v0.66
		l-6.629-0.163v-0.497H206.192L206.192,106.029z M206.192,111.06v1.221c-0.394-0.409-0.932-0.647-1.527-0.647
		c-0.387,0-0.747,0.098-1.062,0.274c0.552-0.545,1.311-0.881,2.144-0.881C205.898,111.027,206.047,111.038,206.192,111.06
		L206.192,111.06z M206.192,152.84v0.328l-6.629-0.199v-0.129H206.192L206.192,152.84z M206.192,216.973v0.652l-6.629-0.231v-0.42
		H206.192L206.192,216.973z M206.192,268.667v2.481h-6.629v-2.481H206.192L206.192,268.667z M199.563,263.79v-10.487h1.271v10.486
		L199.563,263.79L199.563,263.79z M199.563,240.942v-14.035h1.271v14.032L199.563,240.942L199.563,240.942z M199.563,209.712
		v-18.151c0.826,0.637,1.356,1.634,1.356,2.757l-0.003,15.394H199.563L199.563,209.712z M199.563,178.13v-14.036h1.271v14.034
		L199.563,178.13L199.563,178.13z M199.563,128.534v-1.4c1.679,0.247,2.963,1.697,2.963,3.448v10.301h-2.206v-10.346
		C200.321,129.712,200.031,129.017,199.563,128.534L199.563,128.534z M199.563,125.66v-2.128c0.563,0.028,1.012,0.489,1.012,1.064
		C200.575,125.164,200.127,125.632,199.563,125.66z M185.166,155.675v54.193h-2.896l-0.086-54.193H185.166L185.166,155.675z
		 M199.563,106.029v0.497l-19.983-0.489v-0.008H199.563L199.563,106.029z M199.563,123.532v2.128l-0.054,0.001
		c-0.589,0-1.066-0.479-1.066-1.065c0-0.592,0.477-1.065,1.066-1.065L199.563,123.532L199.563,123.532z M199.563,127.133v1.4
		c-0.451-0.469-1.066-0.74-1.746-0.74c-0.444,0-0.856,0.114-1.217,0.314c0.631-0.624,1.497-1.012,2.455-1.012
		C199.229,127.096,199.398,127.109,199.563,127.133L199.563,127.133z M199.563,152.84v0.129l-4.374-0.129H199.563L199.563,152.84z
		 M199.563,164.095v14.036l-1.232,0.001l0.003-13.179l-4.47-0.858H199.563L199.563,164.095z M199.563,191.562v18.151h-1.041
		l-0.008-15.251c0.011-1.54-1.055-2.608-2.372-2.608c-0.683,0-1.303,0.292-1.737,0.757c0.6-1.062,1.734-1.771,3.031-1.771
		C198.238,190.839,198.977,191.109,199.563,191.562L199.563,191.562z M199.563,216.973v0.42l-11.996-0.42H199.563L199.563,216.973z
		 M199.563,226.907v14.035l-1.232,0.002l0.003-13.182l-4.47-0.855H199.563L199.563,226.907z M199.563,253.303v10.487l-1.232,0.002
		l0.003-9.633l-4.47-0.856H199.563L199.563,253.303z M199.563,268.667v2.481l-13.035,0v-2.481H199.563L199.563,268.667z
		 M179.58,271.147v-2.478h1.21v2.478H179.58L179.58,271.147z M179.58,219.445v-2.45h1.233v2.492L179.58,219.445L179.58,219.445z
		 M179.58,153.446v-2.39h1.233v2.421L179.58,153.446L179.58,153.446z M179.58,132.263v-0.364h5.433v14.804l-2.469,0.042v-13.607
		L179.58,132.263L179.58,132.263z M179.58,127.587v-2.413h2.741l-1.699-9.934l4.392,12.347H179.58L179.58,127.587z M182.168,265.69
		v-43.43h2.997v43.43H182.168z M179.58,106.029v0.008l-0.328-0.008H179.58L179.58,106.029z M179.58,125.174v2.413h-0.7v-2.413
		H179.58L179.58,125.174z M179.58,131.899v0.364l-1.233-0.364H179.58L179.58,131.899z M179.58,151.056v2.39l-17.737-0.464
		c-0.361-0.906-0.899-1.77-1.589-2.577v-2.229c1.089,0.875,1.99,1.843,2.667,2.881H179.58L179.58,151.056z M179.58,216.996v2.45
		l-19.326-0.654v-1.795H179.58L179.58,216.996z M179.58,268.67v2.478h-2.489v-2.478H179.58L179.58,268.67z M160.254,271.147v-2.478
		h11.1v2.478H160.254L160.254,271.147z M160.254,140.628v-18.48l1.736,1.083v17.397H160.254L160.254,140.628z M160.254,116.295
		v-1.614l1.717,0.004l-0.9-4.556l2.631,6.166H160.254L160.254,116.295z M160.254,108.25v-1.863c0.167-0.102,0.362-0.161,0.569-0.161
		c0.604,0,1.091,0.487,1.091,1.092c0,0.601-0.487,1.093-1.091,1.093C160.616,108.412,160.42,108.352,160.254,108.25L160.254,108.25z
		 M160.254,92.499l4.104,0.148l8.824,34.971l2.495,0.034l-9.029-36.604h-6.393V92.499L160.254,92.499z M160.254,86.224v-2.767
		l5.826,4.682h-3.479L160.254,86.224L160.254,86.224z M174.104,209.712h-2.395l-0.004-15.251c0.007-1.54-1.059-2.608-2.371-2.608
		c-0.688,0-1.303,0.292-1.739,0.757c0.597-1.062,1.731-1.771,3.033-1.771c1.921,0,3.483,1.557,3.483,3.479L174.104,209.712
		L174.104,209.712z M175.439,265.69h-2.597l-0.011-29.803c0.023-3.577-2.207-6.053-4.958-6.053c-1.399,0-2.661,0.645-3.565,1.673
		c1.111-1.742,2.943-2.874,5.006-2.874c3.389,0,6.133,3.045,6.133,6.812L175.439,265.69L175.439,265.69z M174.04,178.129
		l-2.502,0.003v-13.179l-4.463-0.858h6.965V178.129z M160.254,83.457v2.767l-9.117-7.437l-6.508-0.511v-0.713h8.294L160.254,83.457
		L160.254,83.457z M160.254,91.048v1.451l-15.625-0.56v-0.891H160.254L160.254,91.048z M160.254,106.388v1.863
		c-0.313-0.192-0.524-0.538-0.524-0.932C159.73,106.924,159.94,106.579,160.254,106.388L160.254,106.388z M160.254,114.681v1.614
		h-1.735l0.134-1.618L160.254,114.681L160.254,114.681z M160.254,122.147l-15.625-9.755v1.092l14.313,10.339v16.804h1.312V122.147
		L160.254,122.147z M160.254,148.175v2.229c-2.989-3.501-8.838-5.934-15.625-6.179v-0.843
		C150.999,143.401,156.652,145.276,160.254,148.175L160.254,148.175z M160.254,216.996v1.795l-15.625-0.531v-1.265H160.254
		L160.254,216.996z M160.254,268.67v2.478h-5.942v-2.478H160.254L160.254,268.67z M144.629,271.147v-2.48h3.945v2.481
		L144.629,271.147L144.629,271.147z M144.629,226.696v-1.876h0.016c4.638,0,8.399,3.766,8.399,8.4l-0.015,32.471h-3.258
		l-0.018-31.458C149.777,230.424,147.606,227.577,144.629,226.696L144.629,226.696z M144.629,188.788v-1.697l0.118-0.002
		c3.767,0,6.822,3.056,6.822,6.827l-0.008,15.797h-2.84l-0.015-15.079C148.727,191.641,146.991,189.424,144.629,188.788
		L144.629,188.788z M144.629,159.334v-1.638l0.083,0c3.611,0,6.537,2.66,6.537,3.598l0.019,16.767h-3.043l-0.014-15.776
		C148.21,161.615,146.834,159.958,144.629,159.334L144.629,159.334z M144.629,121.653v-2.162l5.772,3.875
		c1.677,1.321,2.852,3.159,2.852,5.46v9.095h-2.495v-9.129c0-1.965-1.005-3.539-2.447-4.667L144.629,121.653L144.629,121.653z
		 M144.629,109.165v-1.969l1.326,0.003l-1.326-5.657v-0.101l3.296,7.723H144.629L144.629,109.165z M144.629,98.996V96.49
		c0.669,0.026,1.202,0.578,1.202,1.248C145.831,98.417,145.298,98.969,144.629,98.996L144.629,98.996z M144.629,63.679v-1.446h7.788
		l0.003,12.457h-2.503l0.007-10.047L144.629,63.679L144.629,63.679z M144.629,55.544v-1.67c3.19,0.021,5.784,2.53,5.941,5.685
		h-2.057C148.144,57.563,146.603,55.978,144.629,55.544L144.629,55.544z M144.629,51.005V3.298h0.788v47.707H144.629z
		 M144.629,3.298v47.707h-0.87V3.298H144.629L144.629,3.298z M144.629,53.874v1.67c-0.35-0.077-0.714-0.118-1.088-0.118
		c-2.371,0-4.361,1.633-4.913,3.835c0.304-3.033,2.856-5.388,5.96-5.388L144.629,53.874L144.629,53.874z M144.629,62.233v1.446
		l-7.937-1.446H144.629L144.629,62.233z M144.629,77.563v0.713l-9.099-0.713H144.629L144.629,77.563z M144.629,91.048v0.891
		l-15.404-0.552v-0.339H144.629L144.629,91.048z M144.629,96.49v2.506l-0.047,0.001c-0.691,0-1.25-0.564-1.25-1.259
		c0-0.687,0.559-1.249,1.25-1.249L144.629,96.49L144.629,96.49z M144.629,101.442v0.101l-0.052-0.225L144.629,101.442
		L144.629,101.442z M144.629,107.196v1.969h-3.294l0.405-1.977L144.629,107.196L144.629,107.196z M144.629,112.392v1.092
		l-0.041-0.03l-15.363,8.906v-0.097l15.363-9.897L144.629,112.392L144.629,112.392z M144.629,119.492l-0.059-0.041l-8.129,5.976
		l6.882-4.65l1.305,0.877V119.492L144.629,119.492z M144.629,143.382v0.843c-0.375-0.013-0.752-0.021-1.132-0.021
		c-5.705,0-10.818,1.557-14.271,4.016v-0.344c3.606-2.74,9.123-4.494,15.307-4.494H144.629L144.629,143.382z M144.629,157.696v1.638
		c-0.537-0.152-1.124-0.243-1.752-0.243c-1.737,0-3.294,0.694-4.357,1.463C139.383,159.399,141.788,157.728,144.629,157.696
		L144.629,157.696z M144.629,187.091v1.697c-0.45-0.121-0.925-0.185-1.415-0.185c-2.094,0-3.917,1.17-4.852,2.889
		C139.325,188.957,141.764,187.139,144.629,187.091L144.629,187.091z M144.629,216.996v1.265l-15.404-0.521v-0.743H144.629
		L144.629,216.996z M144.629,224.819v1.876c-0.634-0.189-1.305-0.287-2-0.287c-1.787,0-3.419,0.655-4.672,1.731
		C139.489,226.13,141.907,224.824,144.629,224.819L144.629,224.819z M144.629,268.667v2.48l-15.404-0.003v-2.478H144.629
		L144.629,268.667z M129.225,116.295h1.5l-1.5-3.518V116.295z M129.225,91.048v0.339l-1.479-0.052v-0.287H129.225L129.225,91.048z
		 M129.225,112.777v3.518h-1.479v-1.613l1.245,0.003l-0.896-4.556L129.225,112.777L129.225,112.777z M129.225,122.264v0.097
		l-1.479,0.856v-0.002L129.225,122.264L129.225,122.264z M129.225,147.876v0.344c-0.534,0.379-1.028,0.782-1.479,1.202v-0.262
		C128.194,148.712,128.689,148.283,129.225,147.876L129.225,147.876z M129.225,216.996v0.743l-1.479-0.048v-0.695H129.225
		L129.225,216.996z M129.225,268.667v2.478l-1.479,0v-2.477H129.225L129.225,268.667z M127.747,108.412v-2.185
		c0.604,0,1.092,0.487,1.092,1.092C128.839,107.92,128.351,108.411,127.747,108.412z M127.747,91.048v0.287l-7.986-0.287H127.747
		L127.747,91.048z M127.747,106.227v2.185h0c-0.602,0-1.092-0.492-1.092-1.093C126.654,106.714,127.145,106.227,127.747,106.227
		L127.747,106.227L127.747,106.227z M127.747,114.682v1.613h-2.204l0.136-1.618L127.747,114.682L127.747,114.682z M127.747,123.215
		v0.002l-0.023,0.013L127.747,123.215L127.747,123.215z M127.747,149.161v0.262c-0.875,0.816-1.584,1.705-2.103,2.648
		C126.137,151.036,126.849,150.061,127.747,149.161L127.747,149.161z M127.747,216.996v0.695l-20.057-0.681v-0.014H127.747
		L127.747,216.996z M127.747,268.667v2.477h-3.074v-2.477H127.747L127.747,268.667z M107.689,271.144v-2.474h11.241v2.474H107.689
		L107.689,271.144z M107.689,132.96v-1.061h3.064v14.804l-2.465,0.042v-13.607L107.689,132.96L107.689,132.96z M107.689,127.587
		v-2.413h0.377l-0.377-2.199v-4.004l3.064,8.616H107.689L107.689,127.587z M107.689,108.095v-1.868h3.703v1.868H107.689
		L107.689,108.095z M122.203,209.712h-2.394l-0.004-15.251c0.008-1.54-1.058-2.608-2.371-2.608c-0.688,0-1.306,0.292-1.738,0.757
		c0.597-1.062,1.731-1.771,3.033-1.771c1.921,0,3.481,1.557,3.481,3.479L122.203,209.712L122.203,209.712z M123.19,265.69h-2.597
		l-0.007-29.803c0.019-3.577-2.21-6.053-4.961-6.053c-1.395,0-2.661,0.645-3.562,1.673c1.108-1.742,2.939-2.874,5.006-2.874
		c3.385,0,6.133,3.045,6.133,6.812L123.19,265.69L123.19,265.69z M121.97,178.129l-2.502,0.003v-13.179l-4.466-0.858h6.968V178.129z
		 M107.689,106.227v1.868H88.767v-1.868H107.689L107.689,106.227z M107.689,118.971v4.004l-1.326-7.735L107.689,118.971
		L107.689,118.971z M107.689,125.174v2.413h-3.064v-2.413H107.689L107.689,125.174z M107.689,131.899v1.061l-3.592-1.061H107.689
		L107.689,131.899z M107.689,216.996v0.014l-0.418-0.014H107.689L107.689,216.996z M107.689,268.67v2.474h-2.366v-2.474H107.689
		L107.689,268.67z M88.767,271.143v-2.477h10.818v2.477L88.767,271.143L88.767,271.143z M88.767,253.878v-0.576h3.966v10.486
		l-2.503,0.003v-9.633L88.767,253.878L88.767,253.878z M88.767,227.482v-0.575h3.966v14.032l-2.503,0.006v-13.182L88.767,227.482
		L88.767,227.482z M88.767,218.705v-1.731h10.785v2.004L88.767,218.705L88.767,218.705z M88.767,192.064v-1.21
		c0.107-0.01,0.216-0.015,0.326-0.015c1.921,0,3.479,1.557,3.479,3.479l-0.003,15.394H90.17l-0.008-15.251
		C90.171,193.328,89.596,192.45,88.767,192.064L88.767,192.064z M88.767,164.671v-0.576h3.966v14.034l-2.503,0.003v-13.179
		L88.767,164.671L88.767,164.671z M88.767,154.583v-1.743h10.785v2.018L88.767,154.583L88.767,154.583z M88.767,128.534v-1.4
		c1.679,0.248,2.965,1.697,2.965,3.448v10.301h-2.21v-10.346C89.521,129.713,89.233,129.018,88.767,128.534L88.767,128.534z
		 M88.767,125.66v-2.128c0.563,0.029,1.01,0.49,1.01,1.064C89.777,125.163,89.331,125.631,88.767,125.66L88.767,125.66z
		 M100.948,265.69l-0.003-43.43h2.931v43.43H100.948L100.948,265.69z M100.911,209.723v-51.788h2.965v51.777L100.911,209.723z
		 M88.767,106.227v1.868h-7.912v-1.868H88.767L88.767,106.227z M88.767,123.532v2.128l-0.056,0.001
		c-0.585,0-1.066-0.479-1.066-1.065c0-0.592,0.481-1.065,1.066-1.065L88.767,123.532L88.767,123.532z M88.767,127.134v1.4
		c-0.45-0.469-1.065-0.74-1.746-0.74c-0.442,0-0.855,0.114-1.219,0.314c0.63-0.624,1.498-1.012,2.454-1.012
		C88.43,127.096,88.601,127.109,88.767,127.134L88.767,127.134z M88.767,152.84v1.743l-7.912-0.202v-1.542H88.767L88.767,152.84z
		 M88.767,164.095v0.576l-3.002-0.576H88.767L88.767,164.095z M88.767,190.854v1.21c-0.297-0.137-0.625-0.212-0.973-0.212
		c-0.682,0-1.301,0.292-1.736,0.757C86.604,191.638,87.604,190.96,88.767,190.854L88.767,190.854z M88.767,216.973v1.731l-7.912-0.2
		v-1.532H88.767L88.767,216.973z M88.767,226.907v0.575l-3.002-0.575H88.767L88.767,226.907z M88.767,253.303v0.576l-3.002-0.576
		H88.767L88.767,253.303z M88.767,268.667v2.477l-7.912,0v-2.476H88.767L88.767,268.667z M80.855,112.281v-1.222
		c1.468,0.216,2.591,1.484,2.591,3.011v4.856h-1.93v-4.89C81.516,113.315,81.263,112.706,80.855,112.281z M80.855,106.227v1.868
		h-9.6v-1.868H80.855L80.855,106.227z M80.855,111.06v1.222c-0.394-0.409-0.929-0.647-1.523-0.647c-0.39,0-0.749,0.098-1.068,0.274
		c0.555-0.545,1.309-0.881,2.146-0.881C80.562,111.027,80.71,111.038,80.855,111.06L80.855,111.06z M80.855,152.84v1.542l-9.6-0.245
		v-1.297H80.855L80.855,152.84z M80.855,216.973v1.532l-9.6-0.245v-1.287H80.855L80.855,216.973z M80.855,268.667v2.476l-9.6,0
		v-2.476H80.855L80.855,268.667z M71.255,263.79v-10.487h1.116v10.486L71.255,263.79L71.255,263.79z M71.255,240.942v-14.035h1.116
		v14.032L71.255,240.942L71.255,240.942z M71.255,209.712v-17.948c0.687,0.636,1.116,1.545,1.116,2.554l-0.007,15.394H71.255
		L71.255,209.712z M71.255,178.13v-14.036h1.116v14.034L71.255,178.13L71.255,178.13z M71.255,128.534v-1.4
		c1.679,0.247,2.963,1.697,2.963,3.448v10.301h-2.207v-10.346C72.011,129.712,71.721,129.018,71.255,128.534L71.255,128.534z
		 M71.255,125.66v-2.128c0.564,0.028,1.011,0.49,1.011,1.064C72.266,125.164,71.819,125.632,71.255,125.66z M71.255,106.227v1.868
		H60.585v-1.868H71.255L71.255,106.227z M71.255,123.532v2.128l-0.055,0.001c-0.589,0-1.066-0.479-1.066-1.065
		c0-0.592,0.477-1.065,1.066-1.065L71.255,123.532L71.255,123.532z M71.255,127.133v1.4c-0.451-0.469-1.066-0.74-1.748-0.74
		c-0.442,0-0.855,0.114-1.216,0.314c0.631-0.624,1.498-1.012,2.455-1.012C70.92,127.096,71.089,127.109,71.255,127.133
		L71.255,127.133z M71.255,152.84v1.297l-10.669-0.271v-1.025H71.255L71.255,152.84z M71.255,164.095v14.036l-1.391,0.001
		l0.004-13.179l-4.47-0.858H71.255L71.255,164.095z M71.255,191.764v17.948h-1.282l-0.007-15.251
		c0.011-1.54-1.055-2.608-2.372-2.608c-0.682,0-1.301,0.292-1.737,0.757c0.597-1.062,1.734-1.771,3.031-1.771
		C69.803,190.839,70.634,191.189,71.255,191.764L71.255,191.764z M71.255,216.973v1.287l-10.669-0.27v-1.018H71.255L71.255,216.973z
		 M71.255,226.907v14.035l-1.391,0.002l0.004-13.182l-4.47-0.855H71.255L71.255,226.907z M71.255,253.303v10.487l-1.391,0.002
		l0.004-9.633l-4.47-0.856H71.255L71.255,253.303z M71.255,268.667v2.476H60.585v-2.476H71.255L71.255,268.667z M60.585,112.285
		v-1.225c1.469,0.216,2.592,1.484,2.592,3.011v4.856h-1.934v-4.89C61.244,113.317,60.992,112.709,60.585,112.285z M60.585,106.227
		v1.868h-8.34v-1.868H60.585L60.585,106.227z M60.585,111.06v1.225c-0.394-0.411-0.931-0.651-1.525-0.651
		c-0.386,0-0.75,0.098-1.066,0.274c0.552-0.545,1.307-0.881,2.146-0.881C60.292,111.027,60.441,111.038,60.585,111.06L60.585,111.06
		z M60.585,152.84v1.025l-8.34-0.213v-0.812H60.585L60.585,152.84z M60.585,216.973v1.018l-8.34-0.21v-0.807H60.585L60.585,216.973z
		 M60.585,268.667v2.476l-8.34,0v-2.475H60.585L60.585,268.667z M52.246,128.533v-1.399c1.679,0.248,2.965,1.697,2.965,3.448v10.301
		h-2.207v-10.346C53.003,129.712,52.714,129.016,52.246,128.533L52.246,128.533z M52.246,125.66v-2.128
		c0.562,0.027,1.013,0.489,1.013,1.064C53.258,125.164,52.807,125.633,52.246,125.66z M52.246,106.227v1.868H48.62v-1.868H52.246
		L52.246,106.227z M52.246,123.532v2.128l-0.054,0.001c-0.591,0-1.069-0.479-1.069-1.065c0-0.592,0.478-1.065,1.069-1.065
		L52.246,123.532L52.246,123.532z M52.246,127.134v1.399c-0.451-0.468-1.067-0.739-1.749-0.739c-0.44,0-0.852,0.114-1.216,0.314
		c0.629-0.624,1.497-1.012,2.454-1.012C51.909,127.096,52.08,127.109,52.246,127.134L52.246,127.134z M52.246,152.84v0.812
		l-3.625-0.093v-0.719H52.246L52.246,152.84z M52.246,216.973v0.807l-3.625-0.091v-0.716H52.246L52.246,216.973z M52.246,268.667
		v2.475l-3.625,0v-2.475H52.246L52.246,268.667z M48.62,253.971v-0.668h3.486v10.486l-2.507,0.003l0.004-9.633L48.62,253.971
		L48.62,253.971z M48.62,227.573v-0.666h3.486v14.032l-2.507,0.006l0.004-13.182L48.62,227.573L48.62,227.573z M48.62,192.331v-1.49
		c1.866,0.06,3.366,1.593,3.366,3.477l-0.003,15.394h-2.398l-0.003-15.251C49.586,193.541,49.207,192.788,48.62,192.331
		L48.62,192.331z M48.62,164.764v-0.669h3.486v14.034l-2.507,0.003l0.004-13.179L48.62,164.764z M48.62,106.227v1.868H32.303
		l-4.505,11.902v-2.957l3.293-10.813H48.62L48.62,106.227z M48.62,152.84v0.719l-20.822-0.53v-0.189H48.62L48.62,152.84z
		 M48.62,164.095v0.669l-3.487-0.669H48.62L48.62,164.095z M48.62,190.841v1.49c-0.394-0.307-0.882-0.479-1.411-0.479
		c-0.684,0-1.303,0.292-1.734,0.757c0.594-1.062,1.731-1.771,3.033-1.771L48.62,190.841L48.62,190.841z M48.62,216.973v0.716
		l-20.822-0.528v-0.188H48.62L48.62,216.973z M48.62,226.907v0.666l-3.487-0.666H48.62L48.62,226.907z M48.62,253.303v0.668
		l-3.487-0.668H48.62L48.62,253.303z M48.62,268.667v2.475l-20.822,0v-2.474H48.62L48.62,268.667z M27.798,253.971v-0.668h3.484
		v10.486l-2.503,0.003v-9.633L27.798,253.971L27.798,253.971z M27.798,227.573v-0.667h3.484v14.032l-2.503,0.006v-13.182
		L27.798,227.573L27.798,227.573z M27.798,192.16v-1.318c0.045-0.002,0.091-0.003,0.137-0.003c1.924,0,3.481,1.557,3.481,3.479
		l-0.003,15.394H29.02l-0.008-15.251C29.02,193.412,28.529,192.583,27.798,192.16L27.798,192.16z M27.798,164.764v-0.669h3.484
		v14.034l-2.503,0.003v-13.179L27.798,164.764L27.798,164.764z M27.798,83.893V83.03c0.094-0.004,0.188-0.006,0.283-0.006
		c3.517,0,6.354,2.853,6.354,6.361v13.179h-2.481L31.94,89.561C31.958,86.592,30.181,84.418,27.798,83.893L27.798,83.893z
		 M27.798,80.116v-2.498l2.614,0.024l-1.542-9.87l4.387,12.343H27.798L27.798,80.116z M27.798,65.454v-1.538
		c0.212-0.24,0.524-0.392,0.873-0.392c0.638,0,1.159,0.519,1.159,1.16c0,0.642-0.521,1.165-1.159,1.165
		C28.322,65.849,28.011,65.695,27.798,65.454z M27.798,63.916v1.538c-0.182-0.205-0.292-0.475-0.292-0.77
		S27.617,64.12,27.798,63.916L27.798,63.916z M27.798,77.618v2.498H25.53l0.019-2.518L27.798,77.618L27.798,77.618z M27.798,83.03
		v0.863c-0.365-0.082-0.744-0.124-1.132-0.124c-0.938,0-1.816,0.241-2.578,0.667C25.112,83.609,26.396,83.091,27.798,83.03
		L27.798,83.03z M27.798,117.04v2.957l-4.606,12.165L27.798,117.04L27.798,117.04z M27.798,152.84v0.189l-7.436-0.189H27.798
		L27.798,152.84z M27.798,164.095v0.669l-3.485-0.669H27.798L27.798,164.095z M27.798,190.842v1.318
		c-0.342-0.198-0.738-0.308-1.157-0.308c-0.685,0-1.303,0.292-1.739,0.757C25.482,191.586,26.557,190.891,27.798,190.842
		L27.798,190.842z M27.798,216.973v0.188l-7.436-0.188H27.798L27.798,216.973z M27.798,226.907v0.667l-3.485-0.667H27.798
		L27.798,226.907z M27.798,253.303v0.668l-3.485-0.668H27.798L27.798,253.303z M27.798,268.667H12.346v-49.111h-1.659v51.584
		l17.111,0.001V268.667L27.798,268.667z M18.324,127.468h-8.248v-2.338h5.389l-2.176-15.127L18.324,127.468L18.324,127.468z
		 M18.324,148.906h-2.439v-16.012l-6.271-2.446h8.71V148.906L18.324,148.906z M10.549,209.712v-53.033h1.66v53.033H10.549z"/>
	<path d="M487.834,325.981L487.834,325.981l-9.484-22.527c0-1.188-1.189-3.556-1.189-4.742c0-1.188,1.781-2.366,3.555-2.366
		c1.187,0,2.377,0,2.377-0.596c0-1.187-1.19-1.187-1.781-1.187h-16.595c-0.595,0-1.19,0-1.19,0.592c0,1.19,1.19,1.19,1.781,1.19
		c3.556,0,4.151,1.771,5.337,5.326l13.626,32.023v1.177c0.595,0,0.595,0.594,1.188,0.594c0.594,0,1.189-1.771,1.189-1.771
		l13.04-28.457c1.783-3.566,3.556-8.309,7.704-8.893c0.594,0,2.376,0,2.376-1.19c0-0.592-0.592-0.592-1.186-0.592h-13.635
		c-0.595,0-1.179,0-1.179,0.592c0,1.19,1.774,1.19,2.365,1.19c1.782,0,3.555,0.584,3.555,2.366c0,1.187-0.594,2.96-1.179,4.149
		L487.834,325.981z"/>
	<path d="M452.851,285.668L452.851,285.668c2.377,0,4.159-2.365,4.159-4.741c0-1.784-1.782-4.148-4.159-4.148
		c-2.365,0-4.147,2.364-4.147,4.741C448.704,283.303,450.486,285.668,452.851,285.668z"/>
	<path d="M455.823,295.155L455.823,295.155c0-0.592,0-1.783-0.595-1.783c-0.595,0-1.187,0.597-1.781,1.191
		c-1.179,1.782-5.337,4.148-7.11,4.744c-1.188,0.591-2.377,0.591-2.377,1.779c0,0.585,0.595,0.585,1.19,0.585h1.188
		c0.594,0,1.773,0,2.368,0.594c1.188,1.188,1.188,4.741,1.188,5.932v17.189v2.375c0,2.369-0.596,4.745-4.147,4.745
		c-1.19,0-2.377,0-2.377,1.188c0,1.177,0.592,1.177,1.188,1.177c2.971,0,5.337-0.582,8.297-0.582c2.972,0,5.932,0.582,8.893,0.582
		c0.595,0,0.595-0.582,0.595-1.177c0-1.188-1.19-1.188-2.369-1.188c-3.552,0-4.147-2.376-4.147-4.745v-2.375V295.155z"/>
	<path d="M398.313,325.386L398.313,325.386v2.375c0,2.369-0.595,4.745-4.148,4.745c-1.179,0-2.376,0-2.376,1.188
		c0,1.177,0.603,1.177,1.198,1.177c2.961,0,5.921-0.582,8.881-0.582c2.377,0,5.337,0.582,8.309,0.582
		c0.593,0,1.176-0.582,1.176-1.177c0-1.188-1.771-1.188-2.96-1.188c-3.553,0-4.148-2.376-4.148-4.745c0-0.59,0.595-1.78,0.595-2.375
		V309.98c0-3.554,0-5.932,2.366-8.309c2.376-2.364,5.932-4.147,9.485-4.147c3.555,0,6.526,1.783,8.297,4.147
		c1.784,2.377,1.784,5.93,1.784,8.901v14.813v2.375c0,2.369-0.594,4.745-4.149,4.745c-1.187,0-2.376,0-2.376,1.188
		c0,1.177,0.595,1.177,1.189,1.177c2.376,0,5.336-0.582,8.297-0.582c2.969,0,5.93,0.582,8.893,0.582
		c0.592,0,0.592-0.582,0.592-1.177c0-1.188-1.179-1.188-2.366-1.188c-3.556,0-4.15-2.376-4.15-4.745v-2.375v-14.813
		c0-4.146,0-8.308-2.376-12.456c-2.96-2.962-6.513-4.745-10.672-4.745c-8.3,0-13.626,7.715-14.813,7.715v-5.932
		c0-0.592,0-1.783-1.189-1.783c-0.594,0-1.187,0.597-1.782,1.191c-1.178,1.782-5.336,4.148-7.11,4.744
		c-1.187,0.591-2.366,0.591-2.366,1.779c0,0.585,0.595,0.585,1.179,0.585h1.187c0.594,0,2.368,0,2.368,0.594
		c1.187,1.188,1.187,4.741,1.187,5.932V325.386z"/>
	<path d="M532.294,293.372L532.294,293.372v1.783c-4.148,0.595-7.703,2.962-10.08,5.932c-1.178,1.179-2.368,4.151-2.368,5.34
		c0,1.175,1.19,1.175,2.964,1.175h7.703h1.781v2.379h-9.484c-2.964,0-3.556,0-3.556,2.366c0,8.891,4.741,16.604,13.04,18.375v4.744
		c-11.854-0.594-20.15-10.079-20.15-20.744c0-6.524,1.773-11.268,6.515-15.414C522.81,296.345,526.957,293.968,532.294,293.372z"/>
	<path d="M378.747,316.495L378.747,316.495c0,4.148,0,8.307-3.553,11.86c-3.556,3.557-9.487,4.744-14.824,4.744
		c-4.743,0-11.854-1.188-14.219-5.928c-2.376-2.963-2.376-10.085-2.376-13.636v-25.489v-2.378c0-4.148,0.595-5.335,5.932-5.335
		c1.179,0,2.366,0,2.366-1.19c0-1.176-0.583-1.176-1.187-1.176c-3.555,0-7.11,0.584-10.666,0.584c-2.969,0-6.524-0.584-10.08-0.584
		c-0.595,0-1.187,0-1.187,1.176c0,1.19,1.187,1.19,1.782,1.19c5.929,0,5.929,1.187,5.929,5.335v2.378v28.448
		c0,5.93,0,11.267,5.329,14.822c4.753,3.555,11.861,4.148,17.199,4.148c5.921,0,12.447-0.594,17.189-4.744
		c4.742-4.146,4.742-8.89,4.742-14.227v-28.448c0-4.157-0.593-7.713,4.745-7.713c0.592,0,2.961,0,2.961-1.19
		c0-1.176-1.18-1.176-1.774-1.176c-2.376,0-4.743,0.584-7.119,0.584c-2.96,0-5.337-0.584-8.298-0.584c-1.19,0-1.781,0-1.781,1.176
		c0,1.19,1.188,1.19,2.376,1.19c1.782,0,4.147,0,5.337,2.378c1.176,1.771,1.176,6.515,1.176,8.89V316.495z"/>
	<path d="M634.262,285.668L634.262,285.668c2.367,0,3.553-2.365,3.553-4.741c0-1.784-1.187-4.148-3.553-4.148
		c-2.376,0-4.149,2.364-4.149,4.741C630.113,283.303,631.291,285.668,634.262,285.668z"/>
	<path d="M637.223,295.155L637.223,295.155c0-0.592,0-1.783-0.594-1.783c-1.179,0-1.179,0.597-1.774,1.191
		c-1.781,1.782-5.336,4.148-7.711,4.744c-0.594,0.591-1.773,0.591-1.773,1.779c0,0.585,0,0.585,0.595,0.585h1.178
		c1.188,0,2.375,0,2.969,0.594c0.595,1.188,0.595,4.741,0.595,5.932v17.189c0,0.595,0.583,1.785,0.583,2.375
		c0,2.369-0.583,4.745-4.742,4.745c-0.584,0-2.369,0-2.369,1.188c0,1.177,0.596,1.177,1.19,1.177c2.96,0,5.92-0.582,8.892-0.582
		c2.367,0,5.338,0.582,8.299,0.582c0.592,0,1.187-0.582,1.187-1.177c0-1.188-1.783-1.188-2.377-1.188
		c-3.555,0-4.147-2.376-4.147-4.745v-2.375V295.155z"/>
	<path d="M588.614,329.543L588.614,329.543c0,1.178,0,2.368,1.18,2.963c2.971,1.783,8.308,2.959,11.269,2.959
		c7.703,0,17.189-4.744,17.189-13.041c0-14.823-22.526-10.078-22.526-20.753c0-4.147,4.742-6.517,8.309-6.517
		c10.068,0,8.889,8.299,11.258,8.299c0.592,0,0.592-1.188,0.592-2.367v-1.779v-2.378c0-0.584,0-1.774-0.592-1.774
		c-2.369-1.187-7.119-1.783-9.488-1.783c-4.147,0-7.703,0.597-10.675,2.974c-2.959,2.366-4.741,4.741-4.741,8.297
		c0,7.704,8.307,10.079,13.646,11.853c4.139,1.188,8.889,2.971,8.889,8.307c0,5.92-5.929,8.894-11.266,8.894
		c-12.447,0-8.297-12.458-11.863-12.458c-1.18,0-1.18,1.188-1.18,2.377V329.543z"/>
	<path d="M563.126,325.386L563.126,325.386v2.375c0,2.369-0.591,4.745-4.158,4.745c-0.583,0-2.366,0-2.366,1.188
		c0,1.177,0.594,1.177,1.187,1.177c2.963,0,5.924-0.582,8.892-0.582c2.369,0,5.33,0.582,8.297,0.582c0.596,0,1.19-0.582,1.19-1.177
		c0-1.188-1.782-1.188-2.971-1.188c-3.555,0-4.148-2.376-4.148-4.745c0-0.59,0.593-1.78,0.593-2.375v-14.813
		c0-3.566,0-5.931,1.783-8.901c1.177-1.181,2.961-2.96,4.743-2.96c2.365,0,2.96,2.96,5.921,2.96c1.782,0,3.563-1.181,3.563-3.555
		c0-2.367-2.377-4.148-5.337-4.148c-5.93,0-9.485,7.118-10.674,7.118v-1.779v-4.152c0-0.592,0-1.783-1.188-1.783
		c-0.595,0-1.19,0.597-1.774,1.191c-1.187,1.782-5.337,4.148-7.118,4.744c-1.179,0.591-2.367,0.591-2.367,1.779
		c0,0.585,0.593,0.585,1.188,0.585h1.179c0.595,0,2.377,0,2.971,0.594c0.591,1.188,0.591,4.741,0.591,5.932V325.386z"/>
	<path d="M532.294,309.98L532.294,309.98v-2.379c2.376,0,6.523,0,8.298-0.595c2.376-0.58,3.555-1.769,3.555-3.553
		c0-2.367-1.179-4.146-2.366-5.337c-1.784-2.367-4.744-2.962-7.705-2.962h-1.782v-1.783h2.971c4.732,0,10.069,1.783,13.041,5.936
		c1.773,1.779,2.96,5.931,2.96,8.89c0,0.593,0,1.783-1.188,1.783H532.294z"/>
	<path d="M532.294,335.465L532.294,335.465v-4.744c1.19,0.596,2.971,0.596,4.15,0.596c8.889,0,12.444-5.931,13.634-5.931
		c0.593,0,0.593,0.595,0.593,1.189c0,0.596-2.961,3.555-3.553,3.555c-4.15,4.159-8.301,5.335-14.229,5.335H532.294z"/>
	<path d="M669.829,328.95L669.829,328.95h-0.595c-0.583,0-2.96,2.962-6.515,2.962c-5.337,0-5.337-6.525-5.337-10.675v-22.525
		c0-1.782,0.595-2.366,3.555-2.366h5.337c2.376,0,2.376,0,2.376-1.19c0-0.592,0-1.187-0.594-1.187h-8.893
		c-1.187,0-1.782-0.597-1.782-1.771v-6.528c0-0.591,0-1.187-0.595-1.187c-0.593,0-0.593,0.596-0.593,0.596
		c-2.368,4.741-4.743,7.119-8.892,9.485c-0.595,0-1.187,0.592-1.187,1.187c0,0.596,1.187,0.596,2.968,0.596
		c1.782,0,2.368,0.584,2.368,1.771v23.12v2.972c0,2.963,0,5.922,1.783,8.298c1.77,2.365,4.147,2.959,6.516,2.959
		c3.563,0,6.524-1.176,8.307-3.554c0.594,0,1.772-1.19,1.772-1.781V328.95z"/>
	<polygon points="669.829,295.155 669.829,295.155 669.829,296.345 669.829,295.75 	"/>
	<path d="M669.829,296.345L669.829,296.345h2.377c3.552,0,4.742,3.553,5.326,6.516l12.457,28.456c0,1.189,1.189,2.378,1.189,3.555
		c0,1.187-0.595,1.781-1.189,2.972l-2.961,7.108c-0.594,1.19-0.594,2.972-2.376,2.972c-1.188,0.584-2.961,0.584-4.148,0.584
		c-2.376,0-2.971,1.186-2.971,3.563c0,2.962,2.971,2.962,5.337,2.962c3.564,0,3.564-0.592,4.742-4.148l17.793-42.687
		c1.178-2.365,3.555-7.706,5.329-9.485c0.594-1.188,2.969-2.366,3.564-2.366c0.594,0,2.368,0,2.368-0.596
		c0-0.595-0.595-1.187-1.774-1.187h-14.238c-0.585,0-1.178,0.592-1.178,1.187c0,0.596,1.178,0.596,1.771,0.596
		c2.377,0,4.746,0.584,4.746,3.553c0,1.188-0.586,2.367-1.179,3.556l-10.082,23.718l-10.079-24.311
		c-0.592-1.189-1.188-2.37-1.188-3.554c0-2.378,2.97-2.962,4.743-2.962c0.595,0,2.376,0,2.376-0.596
		c0-0.595-0.594-1.187-1.187-1.187h-17.785c-0.594,0-1.187,0-1.782,0.592V296.345z"/>
	<path d="M669.829,330.13L669.829,330.13v-1.181c0,0.594,0.596,0.594,0.596,0.594S669.829,329.543,669.829,330.13z"/>
	<path d="M774.173,293.372L774.173,293.372v2.378c-9.485,2.962-14.227,16.001-14.227,24.894c0,6.528,2.365,13.052,9.484,13.052
		c1.773,0,2.959-0.596,4.742-1.188v2.365c-1.783,0.594-3.563,0.594-5.338,0.594c-9.484,0-15.416-8.89-15.416-17.782
		C753.419,306.426,762.907,295.75,774.173,293.372z"/>
	<path d="M786.621,347.923L786.621,347.923v7.108c-3.556,0-7.703-1.781-7.703-5.931c0-1.772,1.771-3.554,4.147-3.554
		C784.839,345.547,786.025,346.733,786.621,347.923z"/>
	<path d="M786.621,314.721L786.621,314.721v12.45c-3.556,3.55-7.703,6.523-12.447,7.7v-2.365
		C780.094,330.13,784.839,321.832,786.621,314.721z"/>
	<path d="M786.621,295.75L786.621,295.75v4.148c-1.19-2.969-3.556-5.335-8.297-5.335c-1.19,0-2.972,0.592-4.15,1.187v-2.378
		c1.178-0.595,2.368-0.595,3.555-0.595C781.284,292.777,784.245,293.968,786.621,295.75z"/>
	<path d="M786.621,327.171L786.621,327.171c4.147-4.152,7.107-10.677,7.107-16.599c0-5.931-2.365-11.861-7.107-14.823v4.148
		c0.584,1.773,1.179,4.15,1.179,6.528c0,2.363-0.595,5.324-1.179,8.295V327.171z"/>
	<path d="M786.621,355.032L786.621,355.032v-7.108c0,1.178,0.584,1.77,0.584,2.96c0,1.187,0,2.961,1.19,2.961
		c2.373,0,4.157-1.774,4.75-3.557c2.369-3.555,4.746-11.268,5.922-15.416l11.863-38.526h-4.741c-1.786,0-2.377,0-2.377-0.596
		c0-1.187,1.187-1.187,2.377-1.187h5.325l0.595-1.786c1.783-4.73,3.562-11.257,7.119-14.81c2.96-2.971,9.486-6.526,13.635-6.526
		c3.555,0,6.523,1.188,6.523,5.337c0,2.364-1.782,3.555-4.157,3.555c-5.34,0-1.771-6.527-5.923-6.527
		c-1.78,0-3.563,1.19-4.157,2.377c-2.961,2.959-4.733,8.894-5.921,12.446l-1.19,5.933h6.527c0.584,0,2.366,0,2.366,0.592
		c0,0,0,0.595-0.592,1.19h-1.774h-7.714l-11.257,37.944c-1.783,4.73-2.378,8.879-5.338,13.039
		c-2.961,4.148-7.111,7.703-13.051,7.703H786.621z"/>
	<path d="M881.467,349.693L881.467,349.693v5.934c-2.366,0-5.919-1.187-5.919-4.149c0-1.784,1.773-3.554,2.959-3.554
		C880.289,347.923,880.876,349.101,881.467,349.693z"/>
	<path d="M881.467,277.967L881.467,277.967v2.366c-5.335,0-5.919,2.378-7.108,6.523l-12.454,40.314c0,0.59-0.595,2.372-0.595,2.959
		c0,1.781,1.187,1.781,3.562,1.781h3.558c5.336,0,10.078,0,13.038-3.557v5.935h-0.591h-30.824h-2.962c-0.595,0-1.781,0-1.781-0.595
		c0-1.188,1.187-1.188,2.374-1.188c1.18,0,3.554,0,4.745-1.189c1.771-1.187,2.366-4.146,2.96-5.931l11.852-38.529
		c0-1.188,1.189-2.968,1.189-4.146c0-2.378-1.783-2.378-4.741-2.378c-1.191,0-2.378,0-2.378-1.782c0-0.584,0.595-0.584,2.973-0.584
		c2.957,0,5.929,0,8.295,0.584C875.548,277.967,878.507,277.967,881.467,277.967z"/>
	<path d="M952.017,311.167L952.017,311.167l-4.146,13.041c-0.596,2.367-1.19,5.922-1.19,7.703c0,1.783,0.595,3.554,2.369,3.554
		c4.157,0,9.493-4.744,12.455-7.704c0.597-0.59,4.146-5.337,4.146-6.524c0-0.594,0-0.594-0.591-0.594l-0.596,0.594
		c-1.771,2.377-6.515,8.894-9.484,8.894c-1.188,0-1.772-0.587-1.772-1.775c0-1.184,0.585-2.374,0.585-3.554l8.9-29.052
		c0.592-0.595,0.592-1.187,0.592-1.781c0-1.191-0.592-1.191-2.969-1.191c-3.555,0-2.962,0.595-3.555,4.152
		c-2.969,8.902-7.711,17.196-13.634,24.308c-2.375,2.972-10.081,10.08-14.229,10.08c-1.779,0-2.366-1.187-2.366-2.367
		c0-1.188,0.587-2.969,0.587-4.148l7.118-21.94c1.176-1.774,1.769-4.149,1.769-5.932c0-1.774-0.593-4.152-2.959-4.152
		c-3.554,0-7.702,4.152-10.079,5.935c-0.597,1.187-4.742,5.931-4.742,7.715c0,0,0,0.58,0.594,0.58s1.189-1.769,1.783-2.364
		c1.185-1.781,5.336-7.118,7.7-7.118c0.596,0,1.19,1.188,1.19,1.783c0,1.184-0.595,2.958-1.19,3.554l-7.107,20.753
		c-0.593,1.772-1.782,4.741-1.782,7.107c0,2.974,1.189,4.744,4.148,4.744c5.337,0,11.852-4.744,15.418-8.294
		c5.931-4.747,8.297-8.895,12.446-14.825L952.017,311.167z"/>
	<path d="M917.629,280.927L917.629,280.927c0-1.784-1.179-2.96-2.961-2.96c-2.959,0-4.742,3.553-4.742,5.922
		c0,1.779,0.596,2.968,2.962,2.968C915.263,286.857,917.629,283.889,917.629,280.927z"/>
	<path d="M881.467,280.333L881.467,280.333v-2.366h1.786c1.188,0,1.782,0,1.782,1.176c0,1.19-1.782,1.19-2.378,1.19H881.467z"/>
	<path d="M881.467,334.29L881.467,334.29c2.378,0,2.974,0,3.568-2.973l2.364-6.516v-2.377c0-0.593,0-1.188-0.596-1.188
		c-1.186,0-1.769,1.782-1.769,2.377c-1.19,2.367-2.378,3.558-3.568,4.741V334.29z"/>
	<path d="M881.467,355.626L881.467,355.626v-5.934c1.19,1.784,2.378,4.151,4.744,4.151c3.555,0,4.744-4.743,5.34-7.702
		l13.039-43.281c0.596-0.596,1.188-2.37,1.188-2.963c0-0.591-0.592-1.781-1.188-1.781c-2.961,0-8.298,7.715-9.489,7.715
		c-0.591,0-0.591,0-0.591-0.594c0-1.189,4.148-5.34,4.744-5.931c2.375-1.783,7.117-6.53,10.672-6.53
		c1.783,0,2.367,1.786,2.367,3.568c0,1.771-0.584,4.741-1.187,6.516l-10.668,33.792c-1.185,4.745-2.96,10.676-7.108,14.23
		c-2.375,2.961-6.526,4.743-10.673,4.743H881.467z"/>
	<path d="M993.516,271.441L993.516,271.441v4.743l-11.266,37.352c2.373-4.151,6.524-9.487,11.266-14.229v2.958
		c-7.118,7.715-14.821,20.159-14.821,26.09c0,3.557,2.969,5.34,6.522,5.34c2.963,0,5.924-0.596,8.299-2.378v2.973
		c-2.375,0.582-5.336,1.176-7.714,1.176c-7.107,0-11.852-3.554-11.852-10.664c0-3.564,1.189-7.118,2.377-10.676l9.475-31.414
		c0-1.191,1.189-3.568,1.189-4.16c0-1.772-1.189-2.367-2.958-2.367c0,0-2.962,0-2.962-0.592c0-1.785,1.771-1.785,2.962-1.785
		C987.584,273.807,989.962,273.807,993.516,271.441z"/>
	<path d="M993.516,276.184L993.516,276.184v-4.743h0.595c0.596,0,1.18,0,1.18,0.595L993.516,276.184z"/>
	<path d="M993.516,334.29L993.516,334.29v-2.973c8.894-5.336,15.416-17.781,15.416-26.079c0-3.566-1.187-8.309-5.336-8.309
		c-2.97,0-6.523,2.378-10.08,5.336v-2.958c4.152-3.558,8.894-6.53,12.448-6.53c7.118,0,9.483,6.53,9.483,12.461
		C1015.448,317.683,1005.964,330.13,993.516,334.29z"/>
	<path d="M1034.419,353.25L1034.419,353.25v2.376h-1.779c-2.962,0-7.11-1.187-7.11-4.149c0-1.784,1.781-3.554,2.961-3.554
		C1032.055,347.923,1032.055,352.07,1034.419,353.25z"/>
	<path d="M1034.419,279.738L1034.419,279.738v20.753l-7.701,24.311c0,1.18-0.595,2.37-0.595,3.554c0,0.595,0.595,1.775,1.188,1.775
		c1.772,0,5.329-4.744,7.108-7.111v2.962c-0.592,0.595-1.185,1.19-1.185,1.78c-2.369,2.369-7.111,7.704-11.271,7.704
		c-2.365,0-2.365-1.176-2.365-3.554c0-2.368,0.594-5.336,1.186-7.703l12.45-40.905
		C1033.828,282.711,1034.419,280.927,1034.419,279.738z"/>
	<path d="M1034.419,274.401L1034.419,274.401v4.742c-0.592-1.77-2.364-1.77-3.554-1.77h-1.188c-0.595,0-1.188-0.595-1.188-1.189
		c0-1.188,1.783-1.188,2.375-1.188C1032.055,274.997,1033.235,274.997,1034.419,274.401z"/>
	<path d="M1067.623,280.927L1067.623,280.927c0-1.784-1.187-2.96-2.973-2.96c-2.958,0-4.742,3.553-4.742,5.922
		c0,1.779,0.597,2.968,2.971,2.968C1065.246,286.857,1067.623,283.889,1067.623,280.927z"/>
	<path d="M1034.419,300.491L1034.419,300.491l8.298-26.089v-2.365c0-0.595,0-0.595-0.592-0.595h-0.594
		c-2.365,1.781-4.735,2.96-7.112,2.96v4.742v0.595V300.491z"/>
	<path d="M1034.419,325.981L1034.419,325.981c1.19-1.18,2.377-3.557,2.377-4.744v-0.594c-1.187,0-1.187,0.594-1.782,1.188
		c0,0,0,0.593-0.595,1.188V325.981z"/>
	<path d="M1034.419,355.626L1034.419,355.626v-2.376c0.595,0.594,1.19,0.594,1.781,0.594c3.558,0,4.748-4.743,5.331-7.702
		l13.051-43.281c0.583-0.596,1.186-2.37,1.186-2.963c0-0.591-0.603-1.781-1.186-1.781c-2.972,0-8.309,7.715-9.486,7.715
		c-0.597,0-0.597,0-0.597-0.594c0-1.189,4.15-5.34,4.745-5.931c2.366-1.783,7.107-6.53,10.663-6.53c1.784,0,2.376,1.786,2.376,3.568
		c0,1.771-0.592,4.741-1.186,6.516l-10.667,33.792c-1.187,4.745-2.968,10.676-7.119,14.23
		C1040.949,353.25,1037.977,355.032,1034.419,355.626z"/>
	<path d="M1088.368,295.155L1088.368,295.155v3.557c-2.962,1.779-5.339,4.742-7.706,7.12c-2.961,4.741-8.297,13.634-8.297,19.555
		c0,2.375,1.773,5.335,4.149,5.335c3.556,0,7.702-3.55,11.854-7.107v2.962c-5.339,4.741-10.667,8.89-15.419,8.89
		c-5.326,0-7.108-4.744-7.108-9.484c0-7.704,4.741-16.597,10.079-21.933C1079.474,300.491,1083.623,296.929,1088.368,295.155z"/>
	<path d="M1163.659,304.642L1163.659,304.642c0.596-1.781,1.774-4.744,1.774-6.525c0-3.554-2.964-5.34-5.925-5.34
		c-11.267,0-21.932,16.013-27.268,24.906l4.149-12.445c0.596-2.377,1.187-5.34,1.187-7.714c0-2.961-0.591-4.747-3.564-4.747
		c-4.148,0-8.299,4.747-10.662,7.121c-1.189,1.188-4.152,5.34-4.152,5.934c0,0.595,0.597,0.595,0.597,0.595
		c0.593,0,1.178,0,1.178-0.595c1.188-1.783,5.93-8.308,8.299-8.308c1.782,0,1.782,1.188,1.782,2.374
		c0,1.773-0.596,3.556-1.189,4.744l-7.703,26.675c0,0.595-0.596,1.782-0.596,1.782c0,1.19,0.596,1.19,2.973,1.19
		c2.96,0,2.96-0.595,3.554-2.973c2.366-7.108,8.895-18.971,13.635-24.891c2.962-2.973,8.894-10.081,13.635-10.081
		c1.774,0,2.961,1.179,2.961,3.553c0,1.188-0.595,2.963-1.187,4.744l-6.516,17.189c-1.19,2.97-2.378,6.523-2.378,9.485
		c0,2.973,1.188,4.148,4.149,4.148c3.565,0,8.901-5.335,11.268-7.704c0.596-0.59,4.149-5.337,4.149-6.524l-0.593-0.594
		c-0.594,0-1.18,0.594-1.18,1.188c-1.189,2.377-6.527,8.299-9.487,8.299c-1.188,0-1.782-0.587-1.782-1.775
		c0-1.184,1.19-2.969,1.19-4.146L1163.659,304.642z"/>
	<path d="M1088.368,326.576L1088.368,326.576v-2.962c1.782-2.377,4.147-5.337,5.336-6.527c2.365-2.961,10.08-13.633,10.08-17.779
		c0-3.558-2.961-4.744-5.933-4.744c-3.555,0-7.108,1.782-9.483,4.148v-3.557c2.967-1.187,5.929-2.378,9.483-2.378
		c2.972,0,5.337,0.595,7.118,3.568v-1.19c1.18-2.958,1.18-2.958,4.151-2.958c1.772,0,2.959,0,2.959,0.58
		c0,0.595-0.594,1.786-0.594,1.786l-9.476,30.823c0,0.595-0.603,1.785-0.603,2.969c0,0.595,0,1.188,1.187,1.188
		c1.784,0,6.526-5.93,7.11-7.119c0.595-0.593,1.188-1.781,1.781-1.781c0.594,0,0.594,0,0.594,0.594c0,1.782-3.553,6.524-4.74,7.713
		c-2.37,2.367-7.111,6.516-10.673,6.516c-1.774,0-2.37-1.176-2.37-2.366c0-1.782,0.596-3.556,0.596-5.338l5.931-17.781
		C1097.851,314.125,1093.109,321.237,1088.368,326.576z"/>
	<path d="M1195.079,295.155L1195.079,295.155v3.557c-2.964,1.779-5.339,4.742-7.111,7.12c-3.563,4.741-8.297,13.634-8.297,19.555
		c0,2.375,1.18,5.335,4.139,5.335c2.97,0,7.714-3.55,11.27-7.107v2.962c-4.746,4.741-10.675,8.89-15.408,8.89
		c-5.336,0-7.119-4.744-7.119-9.484c0-7.704,5.337-16.597,10.08-21.933C1186.187,300.491,1190.333,296.929,1195.079,295.155z"/>
	<path d="M1195.079,326.576v-2.962c2.373-2.377,4.147-5.337,5.335-6.527c2.377-2.961,10.08-13.633,10.08-17.779
		c0-3.558-2.97-4.744-5.932-4.744c-3.555,0-6.515,1.782-9.483,4.148v-3.557c2.969-1.187,6.523-2.378,9.483-2.378
		c3.557,0,5.338,0.595,7.111,3.568l0.592-1.19c0.595-2.958,0.595-2.958,3.567-2.958c2.364,0,2.96,0,2.96,0.58
		c0,0.595-0.596,1.786-0.596,1.786l-8.892,30.823c-0.594,0.595-1.187,1.785-1.187,2.969c0,0.595,0.593,1.188,1.187,1.188
		c2.368,0,6.527-5.93,7.706-7.119c0-0.593,0.591-1.781,1.186-1.781c0.596,0,0.596,0,0.596,0.594c0,1.782-3.555,6.524-4.742,7.713
		c-2.377,2.367-7.121,6.516-10.674,6.516c-1.774,0-2.369-1.176-2.369-2.366c0-1.782,0.595-3.556,1.188-5.338l5.328-17.781
		C1204.562,314.125,1200.414,321.237,1195.079,326.576z"/>
	<path d="M337.251,444.674L337.251,444.674v1.771c0,4.151-0.593,5.338-5.922,5.338c-0.594,0-2.376,0-2.376,1.189
		c0,1.186,0.595,1.186,1.782,1.186h10.082h10.068c1.19,0,1.785,0,1.785-1.186c0-1.189-1.785-1.189-2.377-1.189
		c-5.923,0-5.923-1.187-5.923-7.109v-17.2c0-2.958,1.19-2.958,4.745-2.958c2.367,0,7.108,0,10.664,1.185
		c2.376,0,2.972,2.962,2.972,5.339c0.592,0.587,0.592,1.771,1.179,1.771c0.592,0,1.188,0,1.188-1.771c0-2.971,0-5.339-0.596-8.307
		c0.596-2.961,0.596-5.327,0.596-7.705c0-1.188-0.596-1.188-1.188-1.188c-0.587,0-0.587,1.188-1.179,1.782
		c0,2.375-0.595,5.932-2.972,5.932c-3.556,0.584-8.297,0.584-10.664,0.584c-4.15,0-4.745,0-4.745-4.141v-13.05
		c0-1.186,0-3.554,1.19-4.146c1.178-0.596,5.921-0.596,7.703-0.596c8.297,0,13.633,0,16.002,8.298c0,0.596,0.593,1.783,1.187,1.783
		c1.19,0,1.19-0.596,1.19-3.558v-5.928c0-2.37,0-3.558-1.784-3.558c-10.08,0-20.744,0.596-30.825,0.596
		c-2.961,0-5.334-0.596-8.297-0.596c-1.187,0-1.782,0.596-1.782,1.188c0,1.179,1.19,1.774,2.376,1.774
		c5.329,0,5.922,1.188,5.922,7.118V444.674z"/>
	<g>
		<path d="M558.379,449.416v-0.596V449.416L558.379,449.416z M558.084,449.961v-1.207c0.077,0.04,0.173,0.065,0.295,0.065l0,0v0.596
			C558.281,449.615,558.182,449.792,558.084,449.961L558.084,449.961z M558.084,415.619v-0.589c0.077-0.005,0.173-0.005,0.295-0.005
			l0,0v0.594H558.084L558.084,415.619z M558.379,415.619L558.379,415.619c0,0.596,1.19,0.596,1.785,0.596
			c3.552,0,4.731,3.555,5.921,5.933l11.86,28.456c0.595,1.179,1.19,2.959,1.19,4.148c0,0.593-0.595,1.771-0.595,2.367l-3.563,7.119
			c0,1.773-0.586,2.96-2.369,3.554h-3.555c-2.968,0-2.968,1.188-2.968,3.556c0,2.969,2.376,2.969,4.742,2.969
			c3.563,0,3.563-0.59,4.743-3.563l17.785-43.271c1.187-2.376,3.563-7.121,5.336-9.487c1.188-1.185,2.97-1.78,3.564-1.78
			c1.179-0.596,2.366-0.596,2.366-0.596c0-1.178-0.592-1.178-1.187-1.178h-14.822c-0.586,0-1.179,0-1.179,1.178
			c0,0.596,1.179,0.596,2.366,0.596c1.782,0,4.742,0.596,4.742,2.959c0,1.188-1.187,2.974-1.187,4.149l-10.666,23.12l-10.08-24.296
			c0-0.596-1.187-2.378-1.187-3.558c0-2.375,3.556-2.375,4.743-2.375c1.187,0,2.376-0.596,2.376-0.596
			c0-1.178-0.595-1.178-1.189-1.178h-17.782c-0.595,0-1.19,0-1.19,0.584V415.619z M558.084,415.03v0.589h-0.296
			C557.788,415.148,557.788,415.05,558.084,415.03L558.084,415.03z M558.084,448.754c-0.296-0.152-0.296-0.528-0.296-0.528
			c-1.19,0-3.555,3.556-6.516,3.556c-5.338,0-5.338-7.11-5.338-10.664v-23.123c0-1.78,0.595-1.78,2.961-1.78h5.337
			c2.365,0,2.959-0.596,2.959-1.773c0-0.596,0-1.188-1.178-1.188h-8.901c-1.18,0-1.18-0.595-1.18-1.783v-6.515
			c0-0.596-0.594-1.188-1.188-1.188c0,0-0.592,0.592-0.592,1.188c-2.369,4.148-4.745,6.515-8.893,8.89
			c0,0.596-0.594,0.596-0.594,1.773c0,0.596,0.594,0.596,2.377,0.596c1.773,0,2.365,0,2.365,1.78v23.123v2.366
			c0,2.959,0,6.523,1.785,8.894c1.77,1.779,4.147,2.374,6.513,2.374c3.566,0,6.527-1.189,8.892-2.97
			c0.496-0.486,0.992-0.981,1.486-1.82V448.754L558.084,448.754z M392.387,453.562L392.387,453.562
			c4.15-2.365,7.111-5.336,7.706-5.336c1.187,0,1.781,6.525,6.524,6.525c1.782,0,4.147-1.782,5.932-2.97
			c0.592-0.585,2.365-1.774,2.365-2.962c0,0,0-0.594-0.594-0.594c-0.584,0-1.771,2.377-4.147,2.377c-2.96,0-2.96-5.336-2.96-7.119
			v-21.337c0-3.558-0.595-5.337-1.783-6.528c-2.368-2.365-5.336-2.365-8.299-2.365h-4.743v1.771c0.595,0,1.782-0.584,2.377-0.584
			c5.921,0,5.921,4.148,5.921,8.297v4.15c0,3.556,0,3.556-2.961,5.337l-5.337,2.365v1.783l6.527-3.557
			c0.584,0,1.179-0.592,1.179-0.592c0.592,0,0.592,1.179,0.592,2.96v5.337c0,2.962,0,4.745-2.366,6.516
			c-1.189,1.782-3.555,2.97-5.932,3.565V453.562L392.387,453.562z M455.819,419.769L455.819,419.769v-1.774
			c0-0.592,0-1.78-0.585-1.78c-2.971-2.369-7.713-2.961-11.268-2.961c-11.853,0-23.714,9.484-23.714,21.337
			c0,11.271,9.484,20.161,20.745,20.161c4.742,0,8.901-1.189,13.048-4.148c0.594-0.596,2.368-2.377,2.368-3.565
			c0,0,0-0.595-0.594-0.595c-0.585,0-1.18,1.187-1.18,1.187c-2.968,2.974-6.524,4.152-10.673,4.152
			c-10.08,0-16.604-9.478-16.604-18.965c0-5.335,2.374-10.67,6.524-14.228c2.376-2.375,5.932-4.148,8.893-4.148
			c7.703,0,8.893,10.072,11.861,10.072c1.18,0,1.18-1.19,1.18-2.366V419.769L455.819,419.769z M500.872,416.214L500.872,416.214
			c0-1.773,0-1.773-1.179-1.773h-10.079c-1.19,0-1.784,0-1.784,0.584c0,1.189,1.784,1.189,2.971,1.189c3.555,0,4.15,1.78,4.15,4.146
			c0,0.596-0.595,1.786-0.595,2.962v17.199v1.782c0,1.774,0,3.558-1.189,4.733c-2.366,2.97-5.929,4.159-9.485,4.159
			c-3.555,0-7.703-1.189-9.487-4.159c-1.179-2.366-1.179-7.111-1.179-10.069v-19.565c0-2.378-0.592-2.962-1.781-2.962h-10.08h-1.187
			c0,1.773,1.782,1.773,2.376,1.773c3.553,0,4.148,1.78,4.148,4.146v2.962v13.646c0,4.732,0,8.894,2.96,13.039
			c2.376,2.962,5.932,4.744,10.674,4.744c7.703,0,12.447-5.932,13.634-5.932c0.595,0,0.595,1.188,0.595,3.558v2.374
			c0,0,0,0.593,0.595,0.593c0,0,0.592-0.593,1.187-0.593c2.366-1.782,5.921-2.97,8.893-4.148c0.584,0,1.771,0,1.771-1.188
			c0-0.596-0.592-0.596-1.187-0.596h-1.179c-3.563,0-3.563-1.19-3.563-3.553v-2.379V416.214L500.872,416.214z M524.586,391.905
			L524.586,391.905c0-0.584,0-1.179-0.595-1.179c-1.178,0-1.771,0.595-2.366,0.595c-1.773,1.771-5.336,2.367-7.703,2.962
			c-0.594,0-1.785,0.592-1.785,1.187c0,0.596,1.19,0.596,2.377,0.596c3.554,0,4.149,2.364,4.149,4.733
			c0,0.593-0.595,1.782-0.595,2.97v40.903c0,1.19,0.595,1.771,0.595,2.958c0,2.378-0.595,4.152-4.742,4.748
			c-0.594,0-2.377,0-2.377,1.185c0,0.595,0.592,0.595,1.188,0.595h8.892h8.298c0.595,0,1.187,0,1.187-0.595
			c0-1.185-1.782-1.185-2.376-1.185c-3.553-0.596-4.148-2.37-4.148-4.748v-2.958V391.905L524.586,391.905z M390.617,435.185
			l1.771-0.595v1.783l-1.187,0.595c-3.555,1.774-7.11,4.149-7.11,8.299c0,3.553,2.96,5.336,5.932,5.336h2.365v2.959
			c-1.771,0.595-4.147,1.189-6.516,1.189c-4.75,0-8.9-2.374-8.9-7.122C376.971,441.701,385.28,437.563,390.617,435.185
			L390.617,435.185L390.617,435.185z M392.387,413.253v1.771c-4.147,0.594-5.929,3.564-7.703,7.122
			c-0.595,1.771-1.19,2.959-2.377,3.551c-1.187,0.595-2.96,1.19-4.15,1.19c-0.592,0-1.187-0.596-1.187-1.19
			c0-2.375,2.377-4.741,3.563-6.524C384.09,416.214,388.24,414.441,392.387,413.253L392.387,413.253z"/>
	</g>
	<path fill="#E03127" d="M1576.27,474.313v-1.783c4.15-1.771,8.298-4.149,8.298-8.89c0-2.964-1.782-4.745-4.147-5.924
		c-1.19-0.592-2.961-1.188-4.15-1.783v-5.928c6.516,1.782,13.635,5.336,13.635,11.859c0,4.149-2.969,7.111-6.523,9.478
		C1581.013,472.53,1578.639,473.72,1576.27,474.313L1576.27,474.313z M1550.184,467.973c4.029,4.787,13.939,6.931,19.562,6.931
		c1.781,0,4.148-0.591,6.524-0.591v-1.783c-2.376,0-4.147,0.595-5.93,0.595c-6.515,0-16.598-2.962-16.598-10.664
		c0-6.527,7.707-8.31,13.043-10.08l4.741,1.771c1.774,0.595,2.963,1.19,4.743,1.782v-5.928c-2.969-1.19-5.337-1.785-7.117-2.37
		c-2.367-0.596-7.111-1.779-7.111-4.741c0-1.781,1.784-2.974,2.962-4.148c2.375,2.367,5.93,3.554,9.486,3.554h1.78v-1.782h-2.376
		c-5.337,0-8.298-4.742-8.298-9.483c0-5.925,4.149-14.813,10.674-16.599v-1.781l0,0c-8.305,0.594-16.595,6.525-16.595,14.822
		c0,4.15,1.179,7.704,4.15,10.082c-2.376,1.779-5.338,4.146-5.338,7.703c0,3.554,2.962,5.336,5.931,6.526
		c-4.453,1.114-11,2.221-14.234,5.784V467.973L1550.184,467.973z M1550.184,442.696v-2.179c0.06,0.002,0.59,0.033,0.59,0.596
		C1550.774,441.499,1550.524,442.135,1550.184,442.696L1550.184,442.696z M1576.27,442.299L1576.27,442.299v-1.782
		c6.516-1.771,10.078-11.257,10.078-17.784c0-4.741-2.373-8.89-7.709-8.89c-1.18,0-1.773,0-2.369,0.592v-1.781h1.189
		c2.366,0,5.326,0.594,7.703,1.189h9.484c1.773,0,2.369,0,2.369,0.592c0,0,0,0.595-0.596,0.595c0,1.19-0.584,1.775-2.366,1.775
		h-5.93c2.376,2.374,4.148,5.928,4.148,10.077c0,3.557-1.772,7.713-4.148,10.676C1584.568,440.517,1580.42,442.299,1576.27,442.299z
		 M1550.184,440.517v2.179c-0.18,0.302-0.384,0.578-0.588,0.782l0,0v-2.961h0.584H1550.184L1550.184,440.517z M1550.184,457.572
		v10.401c-0.213-0.251-0.409-0.514-0.588-0.781v-8.89C1549.777,458.048,1549.973,457.806,1550.184,457.572L1550.184,457.572z
		 M1475.788,425.689v-1.464c0.077-0.083,0.175-0.182,0.297-0.302l0,0v1.771C1475.962,425.695,1475.865,425.694,1475.788,425.689
		L1475.788,425.689z M1475.788,420.067v-5.916c0.099,0.09,0.199,0.186,0.297,0.284l0,0v5.337L1475.788,420.067L1475.788,420.067z
		 M1549.596,440.517l-0.596,0.596c-1.781,2.365-6.523,8.893-9.484,8.893c-1.189,0-1.784-0.596-1.784-1.785
		c0-1.181,1.19-3.552,1.19-4.742l7.701-19.555c0.596-1.782,1.784-4.151,1.784-6.523c0-2.965-2.97-4.746-5.931-4.746
		c-11.853,0-21.933,16.012-27.27,24.904l3.553-12.449c1.189-2.968,1.784-5.337,1.784-8.304c0-2.37-1.19-4.151-3.555-4.151
		c-4.151,0-8.9,4.151-10.674,7.118c-1.19,0.595-4.151,4.747-4.151,5.923c0,0.593,0.596,0.593,0.596,0.593
		c0.595,0,1.179-0.593,1.179-1.179c1.187-1.781,5.932-7.709,8.31-7.709c1.186,0,1.77,0.592,1.77,1.779
		c0,1.771-0.584,3.554-1.18,5.34l-7.713,26.078c-0.592,0.595-0.592,1.783-0.592,2.378c0,0.582,0.592,1.176,2.969,1.176
		c2.368,0,2.961-0.594,3.556-3.554c2.376-6.516,8.892-18.971,13.635-24.31c2.959-3.555,8.892-10.067,13.634-10.067
		c1.781,0,2.972,1.18,2.972,2.959c0,1.771-0.593,3.554-1.19,4.744l-6.523,17.189c-1.186,2.969-2.376,6.522-2.376,10.079
		c0,2.365,1.19,3.554,4.157,3.554c3.557,0,8.892-4.74,11.258-7.706c0.596-0.591,1.784-1.778,2.973-3.562V440.517L1549.596,440.517
		L1549.596,440.517z M1549.596,458.302c-1.188,1.188-1.783,2.374-1.783,4.158c0,1.771,0.595,2.961,1.783,4.731V458.302
		L1549.596,458.302L1549.596,458.302z M1476.084,425.695c1.182,0,5.923-7.703,8.894-7.703c1.176,0,1.176,0.592,1.176,1.188
		c0,1.188-0.593,2.378-0.593,2.962l-6.515,21.337c-0.596,2.378-1.78,5.337-1.78,7.714c0,2.365,0.592,3.554,2.966,3.554
		c3.556,0,8.895-4.74,11.261-7.706c0.593-1.184,3.553-4.74,3.553-6.522c0,0,0-0.597-0.591-0.597c-0.586,0-1.181,0.597-1.181,1.192
		c-1.188,1.781-5.931,8.297-7.713,8.297c-1.178,0-1.178-0.595-1.178-1.774c0-1.187,0-2.374,0.595-3.554l6.515-21.94
		c0.593-1.19,1.781-4.741,1.781-6.517c0-1.781-0.595-2.971-2.959-2.971c-3.566,0-8.308,4.151-10.675,6.525
		c-0.594,0.593-2.972,2.962-3.556,4.744V425.695L1476.084,425.695L1476.084,425.695z M1476.084,419.772L1476.084,419.772v-2.967
		v-2.37V419.772L1476.084,419.772z M1498.018,400.801L1498.018,400.801c0-1.783-1.19-3.555-2.973-3.555
		c-2.366,0-4.73,3.555-4.73,5.924c0,1.779,1.178,3.554,2.959,3.554C1496.237,406.724,1498.018,403.17,1498.018,400.801z
		 M1475.788,414.151v5.916c-1.094,1.074-2.227,2.074-3.853,2.074c-4.158,0-1.782-4.149-4.158-4.149
		c-2.365,0-8.298,8.296-8.893,9.484c-3.552,5.338-9.483,16.605-11.258,22.529c-0.591,2.97-0.591,4.146-4.147,4.146
		c-0.595,0-2.377,0-2.377-1.176c0-0.595,0.594-2.378,0.594-2.97l7.705-25.486c0.594-1.786,1.187-3.568,1.187-5.34
		c0-1.188,0-1.779-1.187-1.779c-1.774,0-5.33,4.157-6.517,5.928l-1.188,1.191c0,0-0.594,1.176-1.188,1.176
		c-0.594,0-0.594,0-0.594-0.586c0-1.186,3.565-5.93,4.744-6.525c1.782-2.363,5.93-5.93,8.9-5.93c2.962,0,3.555,2.971,3.555,5.338
		c0,1.78-0.593,4.149-1.188,5.932l-4.147,13.039c3.556-5.929,12.444-24.309,20.158-24.309
		C1473.561,412.654,1474.694,413.153,1475.788,414.151L1475.788,414.151z M1475.788,424.225c-0.296,0.318-0.296,0.413-0.296,0.884
		c0,0.467,0,0.562,0.296,0.58V424.225L1475.788,424.225z M1225.908,467.978v-10.403c3.295-3.565,10.333-4.673,14.228-5.787
		c-2.961-1.19-5.929-2.973-5.929-6.526c0-3.558,2.968-5.924,5.337-7.703c-2.369-2.378-4.149-5.932-4.149-10.082
		c0-8.297,8.298-14.229,16.595-14.822l0,0v1.781c-6.515,1.785-10.675,10.674-10.675,16.599c0,4.741,2.972,9.483,8.311,9.483h2.364
		v1.782h-1.773c-3.563,0-7.119-1.187-9.486-3.554c-1.186,1.175-2.969,2.367-2.969,4.148c0,2.962,4.745,4.146,7.117,4.741
		c1.774,0.585,4.747,1.18,7.111,2.37v5.928c-1.773-0.592-2.96-1.188-4.148-1.782l-5.335-1.771
		c-4.745,1.771-13.044,3.553-13.044,10.08c0,7.702,10.082,10.664,16.594,10.664c1.785,0,4.16-0.595,5.934-0.595v1.783
		c-2.364,0-4.743,0.591-6.515,0.591C1239.844,474.904,1229.939,472.762,1225.908,467.978L1225.908,467.978z M1225.908,442.7
		c0.341-0.562,0.594-1.201,0.594-1.587c0-0.579-0.563-0.595-0.594-0.596V442.7L1225.908,442.7z M1417.388,453.557L1417.388,453.557
		v-2.96c4.742-1.188,8.891-4.148,11.266-7.703c0.595-0.595,0.595-0.595,1.19-0.595c0.592,0,0.592,0,0.592,0.595
		c0,0.584-1.782,2.962-2.373,3.555C1425.099,449.41,1421.537,452.38,1417.388,453.557L1417.388,453.557z M1417.388,435.18
		L1417.388,435.18v-1.774c4.148-1.187,7.119-2.967,9.485-5.93c1.78-1.781,2.971-5.335,2.971-8.297c0-2.959-1.781-4.744-5.337-4.744
		c-2.377,0-4.744,0.595-7.119,1.785v-2.377c2.962-0.596,5.338-1.189,8.307-1.189c4.741,0,10.665,2.971,10.665,8.297
		C1436.36,429.855,1426.874,433.406,1417.388,435.18L1417.388,435.18z M1417.388,413.843c-10.667,4.148-19.565,15.417-19.565,26.674
		c0,8.298,4.752,14.229,13.05,14.229c2.364,0,4.743,0,6.516-1.188v-2.96c-0.586,0-1.772,0.595-2.961,0.595
		c-6.526,0-9.485-4.743-9.485-10.675v-1.771v-1.783h1.186c3.556-0.591,7.109-0.591,11.261-1.782v-1.774
		c-4.151,1.189-8.298,1.774-11.853,1.774c1.771-6.515,5.93-14.813,11.853-18.96V413.843L1417.388,413.843L1417.388,413.843z
		 M1377.672,453.557L1377.672,453.557v-2.96c4.741-1.188,8.891-4.148,11.268-7.703c0.584-0.595,0.584-0.595,1.18-0.595
		c0.593,0,0.593,0,0.593,0.595c0,0.584-1.772,2.962-2.366,3.555C1385.375,449.41,1381.818,452.38,1377.672,453.557L1377.672,453.557
		z M1377.672,435.18L1377.672,435.18v-1.774c4.146-1.187,7.109-2.967,9.483-5.93c1.784-1.781,2.964-5.335,2.964-8.297
		c0-2.959-2.368-4.744-5.338-4.744c-2.368,0-4.744,0.595-7.109,1.785v-2.377c2.959-0.596,5.337-1.189,8.297-1.189
		c4.743,0,10.663,2.971,10.663,8.297C1396.632,429.855,1387.156,433.406,1377.672,435.18L1377.672,435.18z M1377.672,413.843
		c-10.676,4.148-19.567,15.417-19.567,26.674c0,8.298,4.742,14.229,13.044,14.229c2.372,0,4.741,0,6.523-1.188v-2.96
		c-0.595,0-1.782,0.595-2.962,0.595c-6.526,0-9.486-4.743-9.486-10.675v-1.771v-1.783h1.179c2.972-0.591,7.118-0.591,11.27-1.782
		v-1.774c-4.151,1.189-8.298,1.774-11.854,1.774c1.775-6.515,5.923-14.813,11.854-18.96V413.843L1377.672,413.843L1377.672,413.843z
		 M1251.989,474.313c2.377-0.593,5.338-1.783,7.119-2.971c3.555-2.366,6.516-5.328,6.516-9.478c0-6.523-7.107-10.077-13.635-11.859
		v5.928c1.781,0.596,2.971,1.191,4.149,1.783c2.378,1.179,4.147,2.96,4.147,5.924c0,4.74-4.147,7.118-8.297,8.89V474.313
		L1251.989,474.313L1251.989,474.313z M1251.989,442.299c4.149,0,8.891-1.782,11.861-4.741c2.369-2.963,4.743-7.119,4.743-10.676
		c0-4.149-2.374-7.703-4.743-10.077h5.923c2.376,0,2.376-0.585,2.962-1.775v-0.595c0-0.592-0.586-0.592-2.369-0.592h-9.486
		c-2.363-0.596-5.327-1.189-7.702-1.189h-1.188v1.781c0.595-0.592,1.188-0.592,2.377-0.592c5.325,0,7.702,4.148,7.702,8.89
		c0,6.527-3.552,16.013-10.079,17.784V442.299L1251.989,442.299L1251.989,442.299z M1281.634,443.478L1281.634,443.478
		c-0.595,2.378-1.782,5.337-1.782,7.714c0,2.365,0.595,3.554,2.97,3.554c3.554,0,8.893-4.74,10.667-7.706
		c1.187-1.184,4.146-4.74,4.146-6.522c0,0,0-0.597-0.592-0.597c-0.595,0-1.18,0.597-1.18,1.192
		c-1.188,1.781-5.932,8.297-8.309,8.297c-0.581,0-1.179-0.595-1.179-1.774c0-1.187,0.598-2.374,1.179-3.554l6.528-21.94
		c0.593-1.19,1.78-4.741,1.78-6.517c0-1.781-1.188-2.971-2.97-2.971c-3.557,0-8.298,4.151-10.664,6.525
		c-0.595,0.593-4.741,4.744-4.741,5.93c0,0.586,0.592,0.586,0.592,0.586c1.179,0,6.516-7.703,9.475-7.703
		c0.595,0,1.19,0.592,1.19,1.188c0,1.188-0.596,2.378-0.596,2.962L1281.634,443.478L1281.634,443.478z M1300.606,400.801
		L1300.606,400.801c0-1.783-1.187-3.555-2.972-3.555c-2.959,0-4.741,3.555-4.741,5.924c0,1.779,0.596,3.554,2.97,3.554
		C1298.229,406.724,1300.606,403.17,1300.606,400.801L1300.606,400.801z M1348.621,423.923L1348.621,423.923
		c1.187-1.782,1.782-4.151,1.782-6.523c0-2.965-2.365-4.746-5.339-4.746c-11.852,0-22.526,16.012-27.268,24.904h-0.595l4.15-12.449
		c0.592-2.968,1.781-5.337,1.781-8.304c0-2.37-1.189-4.151-4.15-4.151c-3.563,0-8.306,4.151-10.674,7.118
		c-0.592,0.595-3.553,4.747-3.553,5.923c0,0.593,0,0.593,0.593,0.593c0.595,0,0.595-0.593,1.189-1.179
		c0.584-1.781,5.921-7.709,8.296-7.709c1.179,0,1.771,0.592,1.771,1.779c0,1.771-0.592,3.554-1.185,5.34l-8.298,26.078
		c0,0.595-0.584,1.783-0.584,2.378c0,0.582,1.179,1.176,2.96,1.176c2.961,0,2.961-0.594,3.556-3.554
		c2.366-6.516,9.483-18.971,14.227-24.31c2.961-3.555,8.296-10.067,13.043-10.067c2.376,0,3.554,1.18,3.554,2.959
		c0,1.771-0.594,3.554-1.178,4.744l-6.525,17.189c-1.188,2.969-2.378,6.522-2.378,10.079c0,2.365,1.189,3.554,3.565,3.554
		c4.149,0,9.477-4.74,11.852-7.706c0.594-0.591,4.149-4.74,4.149-5.927c0-0.596-0.595-0.596-1.179-0.596l-0.604,0.596
		c-1.772,2.365-7.109,8.893-9.475,8.893c-1.189,0-1.781-0.596-1.781-1.785c0-1.181,0.592-3.552,1.188-4.742L1348.621,423.923z
		 M1225.908,440.517v2.183c-0.181,0.3-0.388,0.575-0.595,0.778l0,0v-2.961h0.593H1225.908L1225.908,440.517z M1225.908,457.575
		v10.403c-0.214-0.252-0.414-0.517-0.595-0.786v-8.89C1225.495,458.049,1225.694,457.808,1225.908,457.575L1225.908,457.575z
		 M1178.185,425.993v-0.819c0.077-0.04,0.173-0.064,0.293-0.064l0,0v1.179L1178.185,425.993L1178.185,425.993z M1178.185,399.684
		v-1.908c0.081,0.039,0.176,0.063,0.293,0.063l0,0v1.773C1178.358,399.613,1178.262,399.638,1178.185,399.684L1178.185,399.684z
		 M1225.313,440.517c0,0.596-0.595,0.596-0.595,0.596c-1.185,2.365-6.516,8.893-9.483,8.893c-1.179,0-1.774-0.596-1.774-1.785
		c0-1.181,1.18-3.552,1.774-4.742l7.119-19.555c0.584-1.782,1.771-4.151,1.771-6.523c0-2.965-2.365-4.746-5.922-4.746
		c-11.268,0-21.939,16.012-27.269,24.904l4.15-12.449c0.592-2.968,1.179-5.337,1.179-8.304c0-2.37-0.587-4.151-3.556-4.151
		c-3.556,0-8.298,4.151-10.673,7.118c-0.585,0.595-2.961,3.556-3.557,5.337v1.179c0.596,0,1.188-0.593,1.188-1.179
		c1.19-1.781,5.924-7.709,8.298-7.709c1.782,0,1.782,0.592,1.782,1.779c0,1.771-0.594,3.554-0.594,5.34l-8.296,26.078
		c0,0.595-0.595,1.783-0.595,2.378c0,0.582,0.595,1.176,2.959,1.176c2.961,0,2.961-0.594,3.557-3.554
		c2.375-6.516,8.899-18.971,14.237-24.31c2.367-3.555,8.289-10.067,13.042-10.067c2.366,0,2.961,1.18,2.961,2.959
		c0,1.771-0.595,3.554-1.19,4.744l-6.523,17.189c-0.584,2.969-2.368,6.522-2.368,10.079c0,2.365,1.189,3.554,4.149,3.554
		c3.556,0,8.893-4.74,11.27-7.706c0.584-0.591,1.771-1.778,2.959-3.562V440.517L1225.313,440.517L1225.313,440.517z
		 M1225.313,458.302c-1.188,1.188-1.188,2.374-1.188,4.158c0,1.771,0,2.961,1.188,4.731V458.302L1225.313,458.302L1225.313,458.302z
		 M1178.478,399.613L1178.478,399.613v-1.773v0.595V399.613z M1178.185,397.776v1.908c-0.291,0.177-0.291,0.646-0.291,1.117
		l-1.782,6.515c-0.595,0.596-0.595,2.974-1.781,2.974c-1.188,0-1.188-1.19-1.188-2.378c0-7.11-2.963-8.299-10.08-8.299h-5.328
		c-4.743,0-4.743,0-5.929,3.558l-5.932,19.563h9.482c5.931,0,7.706-0.592,10.675-5.928c0.597-0.585,1.19-2.37,2.368-2.37
		c0,0,0.592,0.595,0.592,1.189c0,0,0,1.181-0.592,1.181c-1.178,3.562-3.555,11.264-4.149,14.821
		c-0.593,1.188-0.593,3.554-1.772,3.554c-1.19,0-1.19-1.179-1.19-1.774v-4.146c0-3.565-1.78-4.151-4.741-4.151h-2.365h-8.902
		l-5.338,16.595c-0.583,2.378-1.18,4.152-1.18,6.517c0,1.189,0,2.377,1.18,2.972c1.189,0.596,4.754,0.596,5.934,0.596
		c4.146,0,11.268,0,14.819-1.782c3.557-1.785,5.935-4.744,7.123-7.706c0.583-1.187,0.583-1.782,1.77-1.782
		c0.594,0,1.189,0.596,1.189,1.187c0,0-0.596,2.378-1.189,2.378l-1.77,6.516c0,0.595-0.595,2.378-1.188,2.96
		c-0.597,0-1.188,0-2.378,0.594h-36.754h-2.962c-1.783,0-2.96,0-2.96-0.594c0-1.77,1.177-1.77,2.367-1.77
		c1.778,0,3.555,0,4.741-0.596c1.781-1.782,2.377-4.152,2.961-6.523l11.864-37.944c0.592-1.179,1.187-3.554,1.187-4.744
		c0-2.367-2.378-2.367-4.754-2.367c-0.583,0-2.365,0-2.365-1.179c0-1.188,0.596-1.188,1.782-1.188h4.15h33.791
		C1177.774,397.247,1177.87,397.625,1178.185,397.776L1178.185,397.776z M1178.185,425.173c-0.291,0.152-0.291,0.521-0.291,0.521
		l0.291,0.298V425.173L1178.185,425.173z M961.208,425.592v-2.106c1.162-1.71,2.716-3.762,3.263-4.307
		c2.367-2.374,7.704-6.525,10.665-6.525c2.374,0,2.97,1.189,2.97,2.971c0,1.775-1.186,5.326-1.186,6.517l-7.108,21.94
		c0,1.18-0.597,2.367-0.597,3.554c0,1.18,0.597,1.774,1.177,1.774c2.377,0,6.528-6.516,7.714-8.297
		c0.596-0.596,0.596-1.192,1.191-1.192c0.583,0,0.583,0.597,0.583,0.597c0,1.782-2.96,5.339-3.554,6.522
		c-2.366,2.966-7.111,7.706-11.26,7.706c-2.375,0-2.375-1.188-2.375-3.554c0-2.377,0.594-5.336,1.185-7.714l6.516-21.337
		c0-0.584,0.595-1.774,0.595-2.962c0-0.596,0-1.188-0.595-1.188C967.081,417.992,962.739,424.672,961.208,425.592L961.208,425.592z
		 M961.208,418.289c0.146-0.445,0.293-0.89,0.293-1.483c0-0.294-0.146-0.737-0.293-1.183V418.289L961.208,418.289z
		 M1048.655,445.856L1048.655,445.856v-2.962c2.366-2.377,4.736-4.741,5.922-6.522c2.377-2.966,9.488-13.044,9.488-17.192
		c0-3.555-2.375-4.744-5.338-4.744c-3.554,0-7.11,1.189-10.072,3.557v-3.557c3.557-1.188,6.519-1.781,10.072-1.781
		c2.963,0,5.338,0.594,7.119,2.971v-0.595c1.188-2.97,0.595-3.557,3.556-3.557c2.364,0,3.556,0,3.556,1.181
		c0,0-0.597,1.189-0.597,1.781l-9.486,30.233c0,0.593-0.593,2.371-0.593,2.967c0,0.585,0,1.774,0.593,1.774
		c2.377,0,6.527-5.932,7.713-7.706c0.596-0.591,1.179-1.783,1.773-1.783c0.597,0,0.597,0.597,0.597,0.597
		c0,1.782-3.556,6.522-4.744,7.703c-2.367,2.377-7.109,6.525-10.677,6.525c-1.771,0-2.363-0.595-2.363-2.365
		c0-1.783,0-3.565,0.592-5.341l5.925-17.779C1058.727,434.001,1053.985,440.517,1048.655,445.856L1048.655,445.856z
		 M1080.66,443.478L1080.66,443.478c-0.584,2.378-1.774,5.337-1.774,8.31c0,1.77,0.595,2.958,2.962,2.958
		c4.148,0,8.89-4.74,11.268-7.706c0.596-1.184,3.558-4.74,3.558-6.522c0,0,0-0.597-0.598-0.597c-0.594,0-0.594,0.597-1.185,1.192
		c-1.18,1.781-5.925,8.297-7.707,8.297c-1.188,0-1.188-0.595-1.188-1.189c0-1.771,0.596-2.959,0.596-4.139l15.416-50.399
		l0.596-1.771c0-0.595,0-1.19-0.596-1.19l-0.594,0.596c-2.962,2.366-7.119,2.962-10.677,3.556c-0.581,0-2.958,0-2.958,1.188
		c0,0.594,0.595,0.594,1.187,0.594h1.771c1.191,0,3.558,0,3.558,2.365c0,0.595-0.584,2.962-1.18,3.557L1080.66,443.478
		L1080.66,443.478z M1048.655,414.435c-4.157,2.37-8.305,5.337-11.86,8.893c-5.336,5.338-10.673,14.825-10.673,22.528
		c0,4.149,2.375,8.89,7.711,8.89c4.744,0,10.08-3.554,14.822-8.89v-2.962c-3.562,3.555-7.712,7.111-11.268,7.111
		c-2.375,0-4.146-2.966-4.146-5.337c0-5.923,4.733-14.813,8.297-18.974c1.78-2.367,4.742-5.328,7.117-7.703V414.435
		L1048.655,414.435L1048.655,414.435z M982.849,400.801L982.849,400.801c0-1.783-1.188-3.555-2.97-3.555
		c-2.37,0-4.149,3.555-4.149,5.924c0,1.779,0.596,3.554,2.375,3.554C981.067,406.724,982.849,403.17,982.849,400.801
		L982.849,400.801z M1023.752,416.805L1023.752,416.805c0-3.558-7.119-4.151-10.08-4.151c-6.516,0-14.23,4.151-18.971,8.903
		c-4.741,4.73-8.298,11.257-8.298,18.363c0,8.3,5.336,14.825,13.634,14.825c6.526,0,11.866-3.554,16.004-8.297
		c1.188-0.593,4.156-3.555,4.156-5.336l-0.593-0.596c-1.781,0-7.119,10.08-17.189,10.08c-6.523,0-9.497-4.741-9.497-10.677
		c0-6.515,3.564-14.812,8.309-19.554c1.772-2.375,6.517-5.932,10.07-5.932c4.157,0,3.565,5.337,8.9,5.337
		C1021.97,419.772,1023.752,419.179,1023.752,416.805z M961.208,415.623v2.666c-0.145,0.445-0.291,0.89-0.291,1.483l0,0v-5.337
		C960.917,414.732,961.063,415.179,961.208,415.623L961.208,415.623z M961.208,423.486v2.106c-0.112,0.065-0.209,0.103-0.291,0.103
		l0,0v-1.771C961.011,423.782,961.107,423.635,961.208,423.486L961.208,423.486z M960.62,425.689
		c0.077,0.005,0.174,0.006,0.297,0.006v-1.771l0,0c-0.123,0.12-0.22,0.219-0.297,0.302V425.689L960.62,425.689z M960.62,420.283
		c0.11-0.166,0.211-0.339,0.297-0.511v-5.337l0,0c-0.079-0.158-0.179-0.303-0.297-0.44V420.283z M960.62,413.995v6.288
		c-0.652,0.988-1.744,1.858-3.268,1.858c-4.741,0-2.363-4.149-4.741-4.149s-7.706,8.296-8.893,9.484
		c-3.555,5.338-8.89,16.605-10.666,22.529c-1.187,2.97-1.187,4.146-4.744,4.146c-0.589,0-2.375,0-2.375-1.176
		c0-0.595,0.597-2.378,0.597-2.97l8.299-25.486c0-1.786,0.591-3.568,0.591-5.34c0-1.188,0-1.779-1.188-1.779
		c-1.771,0-5.339,4.157-6.513,5.928l-0.595,1.191c-0.595,0-1.191,1.176-1.782,1.176c0,0-0.596,0-0.596-0.586
		c0-1.186,4.146-5.93,4.741-6.525c1.783-2.363,5.932-5.93,8.893-5.93c2.974,0,3.556,2.971,3.556,5.338
		c0,1.78-0.582,4.149-1.178,5.932l-4.151,13.039c3.557-5.929,12.447-24.309,20.149-24.309
		C958.305,412.654,959.851,413.1,960.62,413.995L960.62,413.995z M960.62,424.225c-0.295,0.318-0.295,0.413-0.295,0.884
		c0,0.467,0,0.562,0.295,0.58V424.225L960.62,424.225z M794.034,454.624v-9.437c0.147-0.519,0.296-1.113,0.296-1.709l12.448-40.903
		c0.596-0.595,1.187-2.962,1.187-3.557c0-2.365-2.376-2.365-3.564-2.365h-1.772c-0.592,0-0.592,0-0.592-0.594
		c0-1.188,1.781-1.188,2.365-1.188c3.564-0.594,7.714-1.189,10.674-3.556l0.594-0.596l0,0v2.962l-15.417,50.399
		c0,1.18-0.593,2.367-0.593,4.139c0,0.595,0,1.189,1.188,1.189c2.376,0,6.529-6.516,7.712-8.297c0.596-0.596,0.596-1.192,1.18-1.192
		c0.595,0,0.595,0.597,0.595,0.597c0,1.782-2.958,5.339-3.554,6.522c-2.378,2.966-7.121,7.706-11.259,7.706
		C794.814,454.746,794.32,454.747,794.034,454.624L794.034,454.624z M794.034,399.614c0.147-0.443,0.296-0.887,0.296-1.18
		c0-0.297-0.149-0.445-0.296-0.595V399.614L794.034,399.614z M835.234,453.557L835.234,453.557v-2.96
		c4.148-1.188,8.891-4.148,11.26-7.703c0-0.595,0.593-0.595,0.593-0.595c0.595,0,0.595,0,0.595,0.595
		c0,0.584-1.783,2.962-2.366,3.555C842.94,449.41,839.382,452.38,835.234,453.557L835.234,453.557z M835.234,435.18L835.234,435.18
		v-1.774c3.554-1.187,7.111-2.967,8.891-5.93c1.773-1.781,2.962-5.335,2.962-8.297c0-2.959-1.771-4.744-5.337-4.744
		c-2.367,0-4.733,0.595-6.516,1.785v-2.377c2.367-0.596,5.337-1.189,7.706-1.189c5.337,0,10.673,2.971,10.673,8.297
		C853.613,429.855,844.125,433.406,835.234,435.18L835.234,435.18z M893.92,416.805L893.92,416.805c0-3.558-7.11-4.151-10.077-4.151
		c-6.516,0-14.229,4.151-18.974,8.903c-4.741,4.73-8.295,11.257-8.295,18.363c0,8.3,5.336,14.825,13.634,14.825
		c6.524,0,11.86-3.554,16.009-8.297c1.181-0.593,4.149-3.555,4.149-5.336l-0.592-0.596c-1.785,0-7.122,10.08-17.191,10.08
		c-6.526,0-9.485-4.741-9.485-10.677c0-6.515,3.554-14.812,7.706-19.554c2.372-2.375,7.119-5.932,10.67-5.932
		c4.15,0,3.557,5.337,8.893,5.337C892.142,419.772,893.92,419.179,893.92,416.805L893.92,416.805z M914.072,416.22L914.072,416.22
		h7.118c0.595,0,1.783,0,2.377-0.596v-1.189c0-0.592-0.594-0.592-1.782-0.592h-6.525l2.377-7.706v-2.375
		c0-0.592-0.593-0.592-2.377-0.592c-2.364,0-2.96,0-3.553,1.184l-2.961,9.489h-5.336c-1.191,0-2.378,0-2.378,1.781
		c0,0.596,1.781,0.596,1.781,0.596h5.338l-8.298,26.079c-0.592,2.369-1.188,5.336-1.188,7.706c0,2.375,0.597,4.74,2.959,4.74
		c4.152,0,10.083-5.931,12.448-8.89c0-1.188,2.377-4.152,2.377-4.743c0-0.596,0-1.192-0.595-1.192s-0.595,0.597-1.181,1.192
		c0,0.591-1.184,1.781-1.778,2.365c-1.188,1.783-4.149,6.527-6.525,6.527c-1.189,0-1.189-1.19-1.189-2.37
		c0-1.187,0.596-2.967,0.596-4.157L914.072,416.22L914.072,416.22z M835.234,413.843c-9.485,3.557-17.188,12.444-19.566,22.528v8.89
		c1.783,5.336,5.933,9.484,13.044,9.484c2.374,0,4.148,0,6.522-1.188v-2.96c-1.188,0-2.374,0.595-2.961,0.595
		c-6.524,0-9.497-4.743-9.497-10.675v-1.771v-1.783h1.19c2.961-0.591,7.119-0.591,11.268-1.782v-1.774
		c-4.148,1.189-8.89,1.774-12.458,1.774c1.782-6.515,5.936-14.813,12.458-18.96V413.843L835.234,413.843L835.234,413.843z
		 M815.667,393.682c0.593-0.584,0.593-1.771,0.593-1.771c0-0.595,0-1.19-0.593-1.19V393.682L815.667,393.682L815.667,393.682z
		 M815.667,436.372L815.667,436.372v4.146v4.744V436.372z M794.034,397.839v1.774c-0.148,0.445-0.297,0.89-0.297,1.188v0.596l0,0
		v-4.15C793.737,397.544,793.885,397.693,794.034,397.839L794.034,397.839z M794.034,445.187v9.437
		c-0.198-0.083-0.297-0.229-0.297-0.473v-7.702C793.737,446.153,793.885,445.707,794.034,445.187L794.034,445.187z M793.142,453.512
		c0.183,0.228,0.388,0.434,0.595,0.639v-7.702l0,0c-0.207,0.614-0.412,1.231-0.595,1.85V453.512L793.142,453.512z M793.142,402.876
		l0.595-1.479v-4.15l0,0h-0.595V402.876z M793.142,397.247v5.63l-1.781,4.439c0,0.596,0,2.974-1.19,2.974
		c-1.179,0-1.179-1.19-1.179-2.378c0-7.11-2.961-8.299-10.08-8.299h-5.931c-4.148,0-4.148,0-5.327,3.558l-5.932,19.563h9.487
		c5.921,0,7.703-0.592,10.663-5.928c0.595-0.585,1.19-2.37,1.782-2.37c0.595,0,1.19,0.595,1.19,1.189c0,0,0,1.181-0.595,1.181
		c-1.188,3.562-3.556,11.264-4.743,14.821c0,1.188,0,3.554-1.19,3.554c-1.186,0-1.186-1.179-1.186-1.774v-4.146
		c0-3.565-2.367-4.151-4.743-4.151h-2.368h-8.89l-5.336,16.595c-0.595,2.378-1.19,4.152-1.19,6.517c0,1.189,0,2.377,1.19,2.972
		c1.187,0.596,4.147,0.596,5.929,0.596c4.15,0,11.259,0,14.825-1.782c3.555-1.785,5.92-4.744,7.107-7.706
		c0.595-1.187,0.595-1.782,1.784-1.782c0.592,0,1.176,0.596,1.176,1.187c0,0-0.584,2.378-1.176,2.378l-1.784,6.516
		c0,0.595-0.592,2.378-1.187,2.96c-0.595,0-1.189,0-2.365,0.594h-36.757h-2.971c-1.77,0-2.96,0-2.96-0.594
		c0-1.77,1.19-1.77,2.368-1.77c1.188,0,3.563,0,4.75-0.596c1.773-1.782,2.368-4.152,2.963-6.523l11.851-37.944
		c0.595-1.179,1.189-3.554,1.189-4.744c0-2.367-2.96-2.367-4.741-2.367c-0.595,0-2.377,0-2.377-1.179
		c0-1.188,0.603-1.188,1.783-1.188h4.147H793.142L793.142,397.247z M793.142,448.298c-0.342,1.162-0.595,2.325-0.595,3.489
		c0,0.772,0.253,1.29,0.595,1.725V448.298L793.142,448.298z M678.43,474.596v-1.842c1.246-0.584,2.403-1.742,3.259-2.592
		c1.781-3.554,4.148-11.86,5.336-16.012l11.854-37.931h-4.746c-1.77,0-2.365,0-2.365-0.596c0-1.781,1.187-1.781,2.96-1.781h4.743
		l0.595-1.783c1.781-4.744,3.555-10.663,7.119-14.813c2.959-2.969,9.475-6.526,13.634-6.526c3.555,0,6.516,1.781,6.516,5.339
		c0,2.375-1.18,4.149-3.556,4.149c-5.929,0-2.365-7.11-6.524-7.11c-1.19,0-2.96,1.773-4.151,2.961
		c-2.96,2.959-4.147,8.295-5.326,12.448l-1.782,5.336h6.515c0.592,0,2.377,0,2.377,0.592c0,0.595,0,0.595-0.594,1.189
		c0,0.596-1.191,0.596-1.783,0.596h-7.11l-11.861,37.337c-1.179,5.338-2.369,8.903-5.329,13.052
		C685.76,470.52,682.5,473.632,678.43,474.596L678.43,474.596z M678.43,442.322c2.438-3.743,3.852-7.965,3.852-12.467l0,0
		c0-3.687-1.414-7.659-3.852-10.934V442.322z M678.43,418.921v23.4c-1.09,1.675-2.386,3.254-3.851,4.718v-13.038
		c0.595-2.968,1.178-5.336,1.178-7.714c0-2.96-0.583-4.73-1.178-7.108v-4.149C676.044,416.129,677.339,417.455,678.43,418.921
		L678.43,418.921z M678.43,472.754v1.842c-0.855,0.203-1.746,0.308-2.673,0.308h-1.178l0,0v-7.117
		c0.595,0.594,0.595,1.782,0.595,2.376c0,1.775,0,2.962,1.772,2.962C677.445,473.125,677.944,472.984,678.43,472.754L678.43,472.754
		z M674.579,415.03L674.579,415.03c-2.377-1.782-5.338-2.376-8.306-2.376h-4.15v2.376c1.187-0.595,2.971-0.595,4.742-0.595
		c4.15,0,6.527,1.785,7.714,4.744V415.03L674.579,415.03z M662.122,454.151L662.122,454.151c4.742-1.176,9.487-4.146,12.457-7.111
		v-13.038c-1.783,7.702-5.933,15.408-12.457,18.379V454.151L662.122,454.151z M674.579,467.787
		c-0.595-1.772-1.783-2.959-3.564-2.959c-1.774,0-3.555,1.781-3.555,4.148c0,3.554,3.555,5.337,7.119,5.928V467.787L674.579,467.787
		L674.579,467.787z M662.122,412.654v2.376c-9.484,3.554-13.624,16.597-13.624,25.487c0,5.932,1.771,12.458,8.882,12.458
		c1.781,0,2.969,0,4.742-0.595v1.771c-1.773,0.595-3.556,0.595-5.326,0.595c-9.495,0-14.825-8.89-14.825-17.188
		C641.972,426.288,650.865,415.03,662.122,412.654L662.122,412.654z"/>
</g>
</svg>
