<svg width="262" height="75" viewBox="0 0 262 75" xmlns="http://www.w3.org/2000/svg">
  <g fill="none" fill-rule="evenodd">
    <path d="M2.805 49.156C1.19 46.083.383 42.724.383 39.078c0-3.646.807-7.005 2.422-10.078 1.614-3.073 3.886-5.52 6.816-7.344 2.93-1.823 6.178-2.734 9.746-2.734 4.662 0 8.633 1.862 11.914 5.586l.235-3.516c.078-.807.481-1.21 1.21-1.21h7.344c.339 0 .625.116.86.35.234.235.351.522.351.86V58.61c0 2.396-.43 4.551-1.289 6.465-.86 1.914-1.979 3.47-3.36 4.668-1.38 1.198-2.987 2.194-4.823 2.988-1.836.795-3.666 1.348-5.489 1.66a33.002 33.002 0 0 1-5.586.47c-3.255 0-6.354-.437-9.297-1.31-2.942-.872-5.468-2.037-7.578-3.495-.573-.417-.69-.95-.351-1.602l2.656-4.805c.443-.703.977-.872 1.602-.507 3.567 1.979 7.59 2.968 12.07 2.968 1.042 0 2.064-.078 3.066-.234a15.58 15.58 0 0 0 3.106-.84c1.068-.403 1.999-.905 2.793-1.504s1.445-1.393 1.953-2.383.762-2.109.762-3.359v-4.297c-3.282 3.828-7.331 5.742-12.149 5.742-3.568 0-6.816-.911-9.746-2.734-2.93-1.823-5.202-4.27-6.816-7.344zM10.578 39c0 2.995.957 5.514 2.871 7.559 1.914 2.044 4.317 3.066 7.207 3.066 2.813 0 5.183-1.068 7.11-3.203 1.927-2.136 2.89-4.61 2.89-7.422 0-2.813-.963-5.26-2.89-7.344-1.927-2.083-4.297-3.125-7.11-3.125-2.916 0-5.325 1.003-7.226 3.008-1.901 2.005-2.852 4.492-2.852 7.461zm37.89 18.79V1.812c0-.365.118-.658.352-.88.235-.22.521-.331.86-.331h8.164c.338 0 .618.11.84.332.22.22.332.514.332.878V57.79c0 .365-.111.658-.332.879a1.138 1.138 0 0 1-.84.332H49.68c-.339 0-.625-.117-.86-.352a1.169 1.169 0 0 1-.351-.859zM65.07 39.468c0-2.839.502-5.528 1.504-8.067 1.003-2.539 2.37-4.72 4.102-6.543 1.732-1.823 3.828-3.268 6.289-4.336 2.46-1.067 5.084-1.601 7.87-1.601 3.673 0 6.948.905 9.825 2.715 2.878 1.81 5.065 4.199 6.563 7.168 1.497 2.968 2.246 6.237 2.246 9.804 0 1.693-.183 2.904-.547 3.633-.365.73-1.107 1.094-2.227 1.094H75.578c.521 2.604 1.745 4.61 3.672 6.016 1.927 1.406 4.427 2.109 7.5 2.109 2.969 0 5.742-.898 8.32-2.695.677-.443 1.263-.417 1.758.078l3.555 3.437c.547.573.52 1.16-.078 1.758a20.473 20.473 0 0 1-6.621 4.434c-2.513 1.054-5.163 1.582-7.95 1.582-2.994 0-5.787-.534-8.379-1.602-2.59-1.068-4.778-2.52-6.562-4.355-1.784-1.836-3.184-4.017-4.2-6.543-1.015-2.526-1.523-5.222-1.523-8.086zm10.352-3.047h18.71c-.338-2.682-1.353-4.779-3.046-6.29-1.693-1.51-3.75-2.265-6.172-2.265-2.448 0-4.531.749-6.25 2.246-1.719 1.498-2.8 3.6-3.242 6.309zm33.882 13.437c-1.614-3.15-2.422-6.614-2.422-10.39 0-3.776.814-7.233 2.442-10.371 1.627-3.138 3.893-5.619 6.797-7.442 2.903-1.823 6.152-2.734 9.746-2.734 4.349 0 8.138 1.706 11.367 5.117V1.812c0-.364.11-.657.332-.878.221-.222.501-.332.84-.332h8.164c.338 0 .625.11.86.332.234.22.35.514.35.878V57.79c0 .339-.116.625-.35.86-.235.234-.522.351-.86.351h-7.344c-.729 0-1.133-.404-1.21-1.21l-.313-3.36c-3.203 3.75-7.149 5.625-11.836 5.625-3.594 0-6.843-.918-9.746-2.754-2.904-1.836-5.176-4.317-6.817-7.442zm7.774-10.468c0 3.177.95 5.813 2.851 7.91 1.901 2.096 4.31 3.144 7.227 3.144 2.838 0 5.215-1.087 7.129-3.261 1.914-2.175 2.87-4.773 2.87-7.793 0-2.995-.956-5.554-2.87-7.676-1.914-2.123-4.29-3.184-7.13-3.184-2.916 0-5.325 1.029-7.226 3.086-1.9 2.057-2.851 4.649-2.851 7.774zm39.375 10.507c-1.797-3.177-2.696-6.653-2.696-10.43 0-3.775.905-7.239 2.715-10.39 1.81-3.15 4.278-5.631 7.403-7.441 3.125-1.81 6.536-2.715 10.234-2.715 3.698 0 7.103.905 10.215 2.715 3.112 1.81 5.573 4.29 7.383 7.441 1.81 3.151 2.714 6.615 2.714 10.39 0 3.777-.904 7.247-2.714 10.41-1.81 3.165-4.271 5.652-7.383 7.462-3.112 1.81-6.517 2.715-10.215 2.715-3.698 0-7.11-.905-10.234-2.715-3.125-1.81-5.6-4.29-7.422-7.442zm10.43-18.164c-1.954 2.032-2.93 4.61-2.93 7.735s.976 5.71 2.93 7.754c1.953 2.044 4.361 3.066 7.226 3.066 2.838 0 5.24-1.022 7.207-3.066 1.966-2.045 2.95-4.63 2.95-7.754 0-3.125-.984-5.703-2.95-7.735-1.966-2.03-4.369-3.047-7.207-3.047-2.865 0-5.273 1.016-7.227 3.047zm29.26 21.758c-.209-.234-.306-.482-.293-.742.013-.26.11-.547.293-.86l3.125-4.413c.416-.547 1.002-.521 1.757.078 3.698 2.396 6.954 3.593 9.766 3.593 1.458 0 2.663-.26 3.613-.78.95-.522 1.426-1.355 1.426-2.5 0-.73-.273-1.388-.82-1.973-.547-.586-1.263-1.075-2.149-1.465-.885-.39-1.894-.801-3.027-1.23a83.647 83.647 0 0 0-3.477-1.231 18.029 18.029 0 0 1-3.476-1.582 18.603 18.603 0 0 1-3.027-2.188c-.886-.794-1.602-1.823-2.149-3.086-.547-1.263-.82-2.689-.82-4.277 0-3.62 1.341-6.51 4.023-8.672 2.683-2.161 5.873-3.242 9.57-3.242 2.553 0 5.027.52 7.422 1.562 2.396 1.042 4.401 2.5 6.016 4.375.443.521.417 1.081-.078 1.68l-3.047 3.984c-.417.547-1.003.521-1.758-.078-1.745-1.12-3.131-1.907-4.16-2.363-1.029-.456-2.194-.684-3.496-.684-1.25 0-2.285.313-3.105.938-.82.625-1.23 1.432-1.23 2.422 0 .86.35 1.595 1.054 2.207.703.612 1.614 1.12 2.734 1.523 1.12.404 2.357.808 3.711 1.211 1.354.404 2.702.912 4.043 1.524a19.571 19.571 0 0 1 3.691 2.187c1.12.847 2.032 2.005 2.735 3.477.703 1.471 1.055 3.183 1.055 5.136 0 2.422-.756 4.57-2.266 6.446a13.936 13.936 0 0 1-5.625 4.199 18.349 18.349 0 0 1-7.07 1.387c-3.125 0-6.01-.638-8.653-1.914-2.643-1.276-4.746-2.826-6.308-4.649zm51.289-38.828l.468.43.391-.43h-.86z"
      fill="#2C2F31" />
    <path fill="#EF718A" d="M234.072 14.508l1.68-7.11 8.79 2.657-.235-9.22h7.031l-.078 9.22 8.71-2.657 1.68 7.11-8.242 2.265 5.625 7.344-6.172 3.75-4.96-7.031-5.04 7.031-6.171-3.75 5.625-7.344z"
    />
  </g>
</svg>
