<?xml version="1.0" encoding="UTF-8"?>
<svg width="162px" height="130px" viewBox="0 0 162 130" version="1.1" xmlns="http://www.w3.org/2000/svg" xmlns:xlink="http://www.w3.org/1999/xlink">
    <!-- Generator: Sketch 49.1 (51147) - http://www.bohemiancoding.com/sketch -->
    <title>LarvaLabsLogo</title>
    <desc>Created with Sketch.</desc>
    <defs></defs>
    <g id="Page-1" stroke="none" stroke-width="1" fill="none" fill-rule="evenodd">
        <g id="LarvaLabsLogo" transform="translate(-29.000000, -25.000000)">
            <g transform="translate(29.000000, 25.000000)">
                <polygon id="Fill-1" fill="#D8232A" points="0 102.392 47.25 102.392 47.25 75.393 0 75.393"></polygon>
                <polygon id="Fill-2" fill="#007AB5" points="53.501 102.392 80.501 102.392 80.501 0.092 53.501 0.092"></polygon>
                <polygon id="Fill-3" fill="#EC952D" points="86.627 69.116 113.628 69.116 113.628 0.116 86.627 0.116"></polygon>
                <polygon id="Fill-4" fill="#79BB43" points="86.627 102.017 161.628 102.017 161.628 75.018 86.627 75.018"></polygon>
                <polyline id="Fill-5" fill="#9F9F8D" points="0.838 117.256 4.102 117.256 4.102 126.951 9.622 126.951 9.622 129.783 0.838 129.783 0.838 117.256"></polyline>
                <path d="M22.293,126.568 L21.766,125.32 C21.213,124.023 20.83,122.679 20.83,122.679 C20.83,122.679 20.494,124.023 19.917,125.32 L19.365,126.568 L22.293,126.568 Z M20.757,117.111 L21.021,117.111 L26.925,129.783 L23.541,129.783 L23.109,128.775 L18.478,128.775 L18.045,129.783 L14.877,129.783 L20.757,117.111 Z" id="Fill-6" fill="#9F9F8D"></path>
                <path d="M38.061,124.023 C39.766,124.023 40.534,123.47 40.534,122.054 C40.534,120.638 39.766,120.064 38.061,120.064 L37.149,120.064 L37.149,124.023 L38.061,124.023 Z M44.062,129.783 L40.39,129.783 L38.638,126.759 C38.47,126.783 38.302,126.783 38.133,126.783 L37.149,126.783 L37.149,129.783 L33.886,129.783 L33.886,117.256 L38.133,117.256 C41.445,117.256 43.87,118.744 43.87,122.054 C43.87,123.927 43.005,125.175 41.662,125.871 L44.062,129.783 Z" id="Fill-7" fill="#9F9F8D"></path>
                <path d="M50.877,117.256 L54.477,117.256 L56.085,120.904 C56.733,122.392 57.117,124.023 57.117,124.023 C57.117,124.023 57.501,122.367 58.149,120.904 L59.757,117.256 L63.069,117.256 L57.141,129.951 L56.853,129.951 L50.877,117.256" id="Fill-8" fill="#9F9F8D"></path>
                <path d="M76.029,126.568 L75.501,125.32 C74.949,124.023 74.565,122.679 74.565,122.679 C74.565,122.679 74.229,124.023 73.653,125.32 L73.101,126.568 L76.029,126.568 Z M74.493,117.111 L74.757,117.111 L80.661,129.783 L77.277,129.783 L76.845,128.775 L72.213,128.775 L71.781,129.783 L68.613,129.783 L74.493,117.111 Z" id="Fill-9" fill="#9F9F8D"></path>
                <polyline id="Fill-10" fill="#9F9F8D" points="99.737 117.256 103.002 117.256 103.002 126.951 108.521 126.951 108.521 129.783 99.737 129.783 99.737 117.256"></polyline>
                <path d="M121.674,126.568 L121.146,125.32 C120.594,124.023 120.21,122.679 120.21,122.679 C120.21,122.679 119.874,124.023 119.298,125.32 L118.746,126.568 L121.674,126.568 Z M120.138,117.111 L120.401,117.111 L126.306,129.783 L122.922,129.783 L122.49,128.775 L117.857,128.775 L117.426,129.783 L114.258,129.783 L120.138,117.111 Z" id="Fill-11" fill="#9F9F8D"></path>
                <path d="M139.001,127.095 C139.89,127.095 140.417,126.519 140.417,125.703 C140.417,124.886 139.89,124.287 139.001,124.287 L136.77,124.287 L136.77,127.095 L139.001,127.095 Z M138.569,121.84 C139.121,121.84 139.554,121.455 139.554,120.855 C139.554,120.256 139.121,119.92 138.569,119.92 L136.77,119.92 L136.77,121.84 L138.569,121.84 Z M133.625,117.256 L138.857,117.256 C141.329,117.256 142.697,118.695 142.697,120.375 C142.697,121.55 142.169,122.439 141.065,122.847 C142.722,123.232 143.634,124.431 143.634,126.16 C143.634,128.439 141.905,129.783 139.217,129.783 L133.625,129.783 L133.625,117.256 Z" id="Fill-12" fill="#9F9F8D"></path>
                <path d="M150.761,127.095 L153.306,125.607 C153.833,126.519 154.625,127.24 155.921,127.24 C156.81,127.24 157.457,126.904 157.457,126.328 C157.457,125.728 157.001,125.463 155.753,124.959 L155.226,124.744 C153.161,123.904 151.77,122.896 151.77,120.664 C151.77,118.48 153.449,117.039 155.873,117.039 C157.673,117.039 158.921,117.568 159.953,119.199 L157.481,120.615 C157.049,119.92 156.594,119.728 155.97,119.728 C155.321,119.728 154.89,120.064 154.89,120.615 C154.89,121.287 155.441,121.527 156.186,121.84 L156.713,122.054 C159.018,122.992 160.697,123.927 160.697,126.302 C160.697,128.631 158.921,130 155.97,130 C153.425,130 151.577,128.775 150.761,127.095" id="Fill-13" fill="#9F9F8D"></path>
            </g>
            <rect id="Rectangle" x="0" y="0" width="220" height="180"></rect>
        </g>
    </g>
</svg>