<?xml version="1.0" encoding="utf-8"?>
<!-- Generator: Adobe Illustrator 16.0.3, SVG Export Plug-In . SVG Version: 6.00 Build 0)  -->
<!DOCTYPE svg PUBLIC "-//W3C//DTD SVG 1.1//EN" "http://www.w3.org/Graphics/SVG/1.1/DTD/svg11.dtd">
<svg version="1.1" id="Layer_1" xmlns="http://www.w3.org/2000/svg" xmlns:xlink="http://www.w3.org/1999/xlink" x="0px" y="0px"
	 width="183.899px" height="55.395px" viewBox="0 0 183.899 55.395" enable-background="new 0 0 183.899 55.395"
	 xml:space="preserve">
<g>
	<g>
		<polygon fill="#010101" points="2.658,30.675 2.658,26.635 6.48,26.635 6.48,4.837 2.658,4.837 2.658,0.801 15.208,0.801 
			15.208,4.837 11.387,4.837 11.387,30.675 		"/>
		<polygon fill="#0278AE" points="14.078,30.675 14.078,26.635 21.548,26.635 21.548,21.904 25.846,21.904 25.846,30.675 		"/>
		<polygon fill="#010101" points="40.132,24.117 40.132,4.837 33.446,4.837 33.446,9.571 29.103,9.571 29.103,0.801 45.039,0.801 
			45.039,24.117 		"/>
		<rect x="35.226" y="26.635" fill="#010101" width="14.764" height="4.04"/>
		<polygon fill="#0278AE" points="51.77,9.571 51.77,4.837 47.774,4.837 47.774,0.801 56.111,0.801 56.111,9.571 		"/>
		<polygon fill="#010101" points="67.227,24.117 67.227,4.837 63.406,4.837 63.406,0.801 72.134,0.801 72.134,13.914 82.208,13.914 
			82.208,17.909 72.134,17.909 72.134,24.117 		"/>
		<rect x="63.406" y="26.635" fill="#010101" width="13.069" height="4.04"/>
		<polygon fill="#0278AE" points="74.827,4.837 74.827,0.801 87.723,0.801 87.723,9.571 83.424,9.571 83.424,4.837 		"/>
		<polygon fill="#010101" points="95.147,4.837 95.147,0.801 119.943,0.801 119.943,9.571 115.688,9.571 115.688,4.837 		"/>
		<polygon fill="#010101" points="95.147,30.675 95.147,26.635 98.969,26.635 98.969,7.356 103.877,7.356 103.877,13.74 
			113.559,13.74 113.559,17.735 103.877,17.735 103.877,30.675 		"/>
		<polygon fill="#0278AE" points="106.569,30.675 106.569,26.635 115.992,26.635 115.992,21.904 120.29,21.904 120.29,30.675 		"/>
	</g>
	<g>
		<g>
			<path fill="#010101" d="M2.738,52.443v-7.682h0.683v6.964h3.293v0.718H2.738z"/>
			<path fill="#010101" d="M11.88,52.443l-0.07-0.64c-0.142,0.165-0.318,0.332-0.447,0.435c-0.176,0.141-0.376,0.27-0.577,0.27H9.75
				c-0.27,0-0.529-0.09-0.718-0.243c-0.153-0.142-0.423-0.461-0.518-0.604c-0.118-0.19-0.176-0.421-0.176-0.677v-0.256
				c0-0.27,0.059-0.488,0.176-0.679c0.094-0.141,0.365-0.461,0.518-0.602c0.188-0.153,0.448-0.245,0.718-0.245h2.047v-0.779
				c0-0.102-0.012-0.166-0.024-0.205c-0.106-0.218-0.376-0.512-0.565-0.627c-0.059-0.038-0.129-0.052-0.211-0.052H9.892
				c-0.082,0-0.141,0.014-0.2,0.052c-0.188,0.115-0.436,0.423-0.565,0.639l-0.612-0.216c0.036-0.064,0.094-0.18,0.176-0.296
				c0.106-0.165,0.365-0.473,0.53-0.615c0.188-0.153,0.436-0.229,0.706-0.229h1.082c0.271,0,0.542,0.09,0.729,0.243
				c0.176,0.115,0.436,0.461,0.529,0.602c0.13,0.192,0.165,0.436,0.165,0.691v3.124l0.082,0.909H11.88z M11.798,51.022V49.87H9.762
				c-0.082,0-0.153,0.012-0.211,0.051c-0.188,0.115-0.436,0.384-0.542,0.603c-0.023,0.052-0.035,0.114-0.035,0.205v0.256
				c0,0.089,0.012,0.154,0.035,0.205c0.106,0.217,0.353,0.485,0.542,0.601c0.059,0.039,0.129,0.051,0.211,0.051h0.988
				c0.059,0,0.118-0.012,0.165-0.037C11.104,51.701,11.645,51.33,11.798,51.022z"/>
			<path fill="#010101" d="M18.786,48.41v2.562c0,0.255-0.059,0.485-0.176,0.679c-0.095,0.14-0.377,0.473-0.53,0.614
				c-0.188,0.153-0.447,0.243-0.718,0.243h-0.918c-0.2,0-0.412-0.129-0.588-0.27c-0.141-0.115-0.306-0.28-0.459-0.474l-0.071,0.679
				h-0.635l0.071-0.909v-6.772h0.635v2.843c0.165-0.193,0.318-0.347,0.459-0.461c0.176-0.143,0.388-0.27,0.588-0.27h0.918
				c0.271,0,0.529,0.09,0.718,0.243c0.176,0.115,0.435,0.475,0.53,0.614C18.727,47.923,18.786,48.142,18.786,48.41z M18.151,48.436
				c0-0.09-0.012-0.165-0.035-0.217c-0.106-0.218-0.365-0.512-0.553-0.627c-0.06-0.038-0.13-0.052-0.212-0.052H16.48
				c-0.059,0-0.117,0.014-0.165,0.038c-0.188,0.103-0.741,0.474-0.894,0.781c0,0-0.011,0.025-0.023,0.064v2.534
				c0.012,0.038,0.023,0.064,0.023,0.064c0.153,0.308,0.706,0.679,0.894,0.781c0.048,0.025,0.106,0.037,0.165,0.037h0.871
				c0.082,0,0.152-0.012,0.212-0.051c0.188-0.115,0.446-0.409,0.553-0.628c0.023-0.051,0.035-0.126,0.035-0.218V48.436z"/>
			<path fill="#010101" d="M24.763,51.65c-0.095,0.14-0.365,0.485-0.53,0.614c-0.188,0.153-0.471,0.243-0.729,0.243h-1.177
				c-0.259,0-0.542-0.09-0.729-0.243c-0.165-0.129-0.436-0.475-0.529-0.614c-0.118-0.193-0.165-0.424-0.165-0.679V48.41
				c0-0.256,0.047-0.487,0.165-0.679c0.094-0.14,0.364-0.485,0.529-0.614c0.188-0.153,0.47-0.243,0.729-0.243h1.177
				c0.258,0,0.541,0.09,0.729,0.243c0.165,0.129,0.435,0.475,0.53,0.614c0.117,0.191,0.164,0.423,0.164,0.679v2.562
				C24.927,51.227,24.88,51.457,24.763,51.65z M24.292,48.436c0-0.09,0-0.165-0.023-0.217c-0.106-0.218-0.377-0.512-0.565-0.627
				c-0.059-0.038-0.129-0.052-0.212-0.052h-1.153c-0.082,0-0.153,0.014-0.211,0.052c-0.188,0.115-0.447,0.409-0.554,0.627
				c-0.023,0.052-0.035,0.127-0.035,0.217v2.509c0,0.092,0.012,0.167,0.035,0.218c0.106,0.219,0.365,0.513,0.554,0.628
				c0.059,0.039,0.129,0.051,0.211,0.051h1.153c0.083,0,0.153-0.012,0.212-0.051c0.188-0.115,0.458-0.409,0.565-0.628
				c0.023-0.051,0.023-0.126,0.023-0.218V48.436z"/>
			<path fill="#010101" d="M30.233,48.23c-0.118-0.191-0.376-0.523-0.565-0.639c-0.059-0.038-0.129-0.052-0.211-0.052h-0.576
				c-0.059,0-0.13,0.014-0.177,0.038c-0.2,0.116-0.73,0.461-0.894,0.781v4.084h-0.636v-4.597l-0.071-0.908h0.636l0.071,0.653
				c0.153-0.168,0.306-0.346,0.447-0.448c0.165-0.129,0.388-0.27,0.588-0.27h0.588c0.258,0,0.53,0.09,0.717,0.243
				c0.165,0.129,0.424,0.475,0.518,0.614c0.07,0.104,0.141,0.219,0.177,0.283L30.233,48.23z"/>
			<path fill="#010101" d="M35.893,52.443l-0.071-0.64c-0.141,0.165-0.318,0.332-0.447,0.435c-0.177,0.141-0.377,0.27-0.577,0.27
				h-1.035c-0.271,0-0.53-0.09-0.718-0.243c-0.153-0.142-0.423-0.461-0.518-0.604c-0.118-0.19-0.176-0.421-0.176-0.677v-0.256
				c0-0.27,0.059-0.488,0.176-0.679c0.094-0.141,0.364-0.461,0.518-0.602c0.188-0.153,0.447-0.245,0.718-0.245h2.046v-0.779
				c0-0.102-0.011-0.166-0.023-0.205c-0.105-0.218-0.376-0.512-0.564-0.627c-0.059-0.038-0.129-0.052-0.212-0.052h-1.106
				c-0.082,0-0.141,0.014-0.2,0.052c-0.188,0.115-0.435,0.423-0.565,0.639l-0.611-0.216c0.036-0.064,0.094-0.18,0.176-0.296
				c0.106-0.165,0.365-0.473,0.53-0.615c0.188-0.153,0.435-0.229,0.706-0.229h1.082c0.271,0,0.541,0.09,0.729,0.243
				c0.177,0.115,0.436,0.461,0.529,0.602c0.129,0.192,0.165,0.436,0.165,0.691v3.124l0.082,0.909H35.893z M35.81,51.022V49.87
				h-2.035c-0.082,0-0.152,0.012-0.212,0.051c-0.188,0.115-0.435,0.384-0.541,0.603c-0.023,0.052-0.035,0.114-0.035,0.205v0.256
				c0,0.089,0.012,0.154,0.035,0.205c0.106,0.217,0.354,0.485,0.541,0.601c0.06,0.039,0.13,0.051,0.212,0.051h0.988
				c0.059,0,0.118-0.012,0.165-0.037C35.116,51.701,35.657,51.33,35.81,51.022z"/>
			<path fill="#010101" d="M39.822,47.604v3.277c0,0.09,0.012,0.191,0.036,0.243c0.105,0.219,0.341,0.485,0.529,0.601
				c0.059,0.039,0.153,0.052,0.235,0.052h0.741v0.666H40.61c-0.259,0-0.529-0.09-0.718-0.243c-0.165-0.129-0.435-0.475-0.529-0.614
				c-0.117-0.191-0.176-0.424-0.176-0.679v-3.303h-0.835v-0.666h0.835v-2.177h0.635v2.177h1.553v0.666H39.822z"/>
			<path fill="#010101" d="M47.058,51.65c-0.094,0.14-0.365,0.485-0.53,0.614c-0.188,0.153-0.47,0.243-0.729,0.243h-1.176
				c-0.259,0-0.542-0.09-0.73-0.243c-0.165-0.129-0.435-0.475-0.529-0.614c-0.118-0.193-0.165-0.424-0.165-0.679V48.41
				c0-0.256,0.047-0.487,0.165-0.679c0.094-0.14,0.365-0.485,0.529-0.614c0.188-0.153,0.471-0.243,0.73-0.243h1.176
				c0.259,0,0.541,0.09,0.729,0.243c0.165,0.129,0.436,0.475,0.53,0.614c0.118,0.191,0.165,0.423,0.165,0.679v2.562
				C47.222,51.227,47.175,51.457,47.058,51.65z M46.587,48.436c0-0.09,0-0.165-0.023-0.217c-0.106-0.218-0.376-0.512-0.565-0.627
				c-0.059-0.038-0.129-0.052-0.212-0.052h-1.153c-0.082,0-0.152,0.014-0.211,0.052c-0.188,0.115-0.447,0.409-0.553,0.627
				c-0.023,0.052-0.036,0.127-0.036,0.217v2.509c0,0.092,0.012,0.167,0.036,0.218c0.106,0.219,0.365,0.513,0.553,0.628
				c0.059,0.039,0.13,0.051,0.211,0.051h1.153c0.083,0,0.153-0.012,0.212-0.051c0.188-0.115,0.458-0.409,0.565-0.628
				c0.023-0.051,0.023-0.126,0.023-0.218V48.436z"/>
			<path fill="#010101" d="M52.528,48.23c-0.118-0.191-0.377-0.523-0.565-0.639c-0.059-0.038-0.13-0.052-0.211-0.052h-0.577
				c-0.059,0-0.129,0.014-0.176,0.038c-0.2,0.116-0.73,0.461-0.894,0.781v4.084h-0.636v-4.597l-0.07-0.908h0.635l0.071,0.653
				c0.153-0.168,0.306-0.346,0.447-0.448c0.165-0.129,0.388-0.27,0.588-0.27h0.588c0.259,0,0.53,0.09,0.718,0.243
				c0.165,0.129,0.424,0.475,0.518,0.614c0.07,0.104,0.141,0.219,0.177,0.283L52.528,48.23z"/>
			<path fill="#010101" d="M58.682,46.938l-2.295,7.655h-0.67l0.67-2.15h-0.27l-1.647-5.505h0.682l1.389,4.801h0.071L58,46.938
				H58.682z"/>
			<path fill="#010101" d="M64.746,45.376c-0.083,0-0.188,0-0.247,0.038c-0.188,0.115-0.424,0.397-0.53,0.614
				c-0.023,0.051-0.023,0.143-0.023,0.231v0.679h0.882v0.666h-0.882v4.839h-0.636v-4.839h-0.835v-0.666h0.835v-0.705
				c0-0.256,0.047-0.485,0.165-0.677c0.095-0.143,0.365-0.487,0.53-0.614c0.188-0.154,0.47-0.232,0.729-0.232h0.753v0.666H64.746z"
				/>
			<path fill="#010101" d="M70.7,51.65c-0.095,0.14-0.365,0.485-0.53,0.614c-0.188,0.153-0.471,0.243-0.729,0.243h-1.176
				c-0.259,0-0.542-0.09-0.729-0.243c-0.165-0.129-0.436-0.475-0.529-0.614c-0.118-0.193-0.166-0.424-0.166-0.679V48.41
				c0-0.256,0.047-0.487,0.166-0.679c0.094-0.14,0.364-0.485,0.529-0.614c0.188-0.153,0.471-0.243,0.729-0.243h1.176
				c0.259,0,0.541,0.09,0.729,0.243c0.165,0.129,0.435,0.475,0.53,0.614c0.117,0.191,0.165,0.423,0.165,0.679v2.562
				C70.864,51.227,70.817,51.457,70.7,51.65z M70.229,48.436c0-0.09,0-0.165-0.023-0.217c-0.106-0.218-0.377-0.512-0.565-0.627
				c-0.06-0.038-0.129-0.052-0.212-0.052h-1.153c-0.083,0-0.153,0.014-0.211,0.052c-0.188,0.115-0.448,0.409-0.553,0.627
				c-0.024,0.052-0.036,0.127-0.036,0.217v2.509c0,0.092,0.012,0.167,0.036,0.218c0.105,0.219,0.365,0.513,0.553,0.628
				c0.059,0.039,0.129,0.051,0.211,0.051h1.153c0.083,0,0.152-0.012,0.212-0.051c0.188-0.115,0.458-0.409,0.565-0.628
				c0.023-0.051,0.023-0.126,0.023-0.218V48.436z"/>
			<path fill="#010101" d="M76.169,48.23c-0.118-0.191-0.376-0.523-0.565-0.639c-0.059-0.038-0.129-0.052-0.211-0.052h-0.577
				c-0.059,0-0.129,0.014-0.176,0.038c-0.201,0.116-0.73,0.461-0.895,0.781v4.084h-0.635v-4.597l-0.071-0.908h0.635l0.071,0.653
				c0.153-0.168,0.306-0.346,0.447-0.448c0.165-0.129,0.389-0.27,0.588-0.27h0.589c0.259,0,0.53,0.09,0.718,0.243
				c0.165,0.129,0.423,0.475,0.518,0.614c0.071,0.104,0.141,0.219,0.177,0.283L76.169,48.23z"/>
			<path fill="#010101" d="M81.308,45.688v6.965h-0.683v-6.965h-2.012v-0.717h4.707v0.717H81.308z"/>
			<path fill="#010101" d="M87.803,51.348l0.623,0.23c-0.047,0.103-0.094,0.179-0.165,0.28c-0.093,0.141-0.364,0.487-0.529,0.615
				c-0.188,0.153-0.459,0.242-0.717,0.242h-1.2c-0.258,0-0.541-0.089-0.729-0.242c-0.164-0.128-0.435-0.475-0.53-0.615
				c-0.117-0.191-0.176-0.423-0.176-0.679v-2.561c0-0.256,0.059-0.485,0.176-0.677c0.095-0.143,0.366-0.487,0.53-0.614
				c0.188-0.154,0.471-0.245,0.729-0.245h1.177c0.259,0,0.542,0.091,0.729,0.245c0.165,0.127,0.435,0.472,0.529,0.614
				c0.118,0.191,0.166,0.421,0.166,0.677v1.588h-3.4v0.948c0,0.089,0.012,0.167,0.035,0.218c0.106,0.217,0.365,0.513,0.553,0.626
				c0.059,0.04,0.118,0.052,0.2,0.052h1.235c0.083,0,0.153-0.012,0.212-0.052c0.188-0.113,0.446-0.435,0.54-0.626L87.803,51.348z
				 M85.014,48.646v0.896h2.765v-0.896c0-0.089,0-0.167-0.024-0.218c-0.105-0.218-0.376-0.513-0.564-0.628
				c-0.059-0.037-0.129-0.051-0.212-0.051h-1.165c-0.082,0-0.141,0.014-0.2,0.051c-0.188,0.115-0.459,0.41-0.565,0.628
				C85.026,48.479,85.014,48.557,85.014,48.646z"/>
			<path fill="#010101" d="M90.707,52.653c-0.022-0.218-0.105-0.501-0.105-0.717v-6.965h0.635v6.811
				c0,0.281,0.083,0.589,0.105,0.871H90.707z"/>
			<path fill="#010101" d="M96.956,51.348l0.623,0.23c-0.047,0.103-0.095,0.179-0.165,0.28c-0.093,0.141-0.364,0.487-0.528,0.615
				c-0.188,0.153-0.46,0.242-0.719,0.242h-1.199c-0.26,0-0.541-0.089-0.73-0.242c-0.164-0.128-0.434-0.475-0.529-0.615
				c-0.117-0.191-0.177-0.423-0.177-0.679v-2.561c0-0.256,0.06-0.485,0.177-0.677c0.096-0.143,0.365-0.487,0.529-0.614
				c0.189-0.154,0.471-0.245,0.73-0.245h1.176c0.261,0,0.542,0.091,0.73,0.245c0.164,0.127,0.435,0.472,0.528,0.614
				c0.118,0.191,0.166,0.421,0.166,0.677v1.588h-3.401v0.948c0,0.089,0.012,0.167,0.036,0.218c0.105,0.217,0.364,0.513,0.552,0.626
				c0.059,0.04,0.117,0.052,0.201,0.052h1.235c0.082,0,0.152-0.012,0.213-0.052c0.188-0.113,0.444-0.435,0.54-0.626L96.956,51.348z
				 M94.167,48.646v0.896h2.766v-0.896c0-0.089,0-0.167-0.025-0.218c-0.104-0.218-0.375-0.513-0.563-0.628
				c-0.059-0.037-0.13-0.051-0.212-0.051h-1.164c-0.083,0-0.142,0.014-0.2,0.051c-0.188,0.115-0.459,0.41-0.564,0.628
				C94.178,48.479,94.167,48.557,94.167,48.646z"/>
			<path fill="#010101" d="M103.026,52.474c-0.188,0.153-0.459,0.242-0.717,0.242h-1.2c-0.26,0-0.542-0.089-0.73-0.242
				c-0.164-0.128-0.435-0.475-0.528-0.615c-0.119-0.191-0.166-0.423-0.166-0.679v-2.561c0-0.256,0.047-0.485,0.166-0.677
				c0.094-0.143,0.364-0.487,0.528-0.614c0.188-0.154,0.471-0.245,0.73-0.245h1.164c0.259,0,0.53,0.091,0.718,0.245
				c0.295,0.229,0.542,0.639,0.693,0.908l-0.61,0.219c-0.095-0.219-0.378-0.54-0.565-0.655c-0.059-0.037-0.129-0.051-0.211-0.051
				h-1.177c-0.082,0-0.153,0.014-0.212,0.051c-0.189,0.115-0.446,0.41-0.554,0.628c-0.022,0.051-0.035,0.129-0.035,0.218v2.51
				c0,0.089,0.013,0.167,0.035,0.218c0.107,0.217,0.354,0.513,0.542,0.626c0.059,0.04,0.129,0.052,0.212,0.052h1.223
				c0.083,0,0.154-0.012,0.213-0.052c0.188-0.113,0.471-0.435,0.552-0.626l0.013-0.025l0.612,0.23
				C103.58,51.858,103.308,52.256,103.026,52.474z"/>
			<path fill="#010101" d="M109.498,51.858c-0.095,0.141-0.365,0.487-0.53,0.615c-0.188,0.153-0.47,0.242-0.729,0.242h-1.176
				c-0.259,0-0.542-0.089-0.73-0.242c-0.164-0.128-0.435-0.475-0.528-0.615c-0.117-0.191-0.166-0.423-0.166-0.679v-2.561
				c0-0.256,0.049-0.485,0.166-0.677c0.094-0.143,0.364-0.487,0.528-0.614c0.188-0.154,0.472-0.245,0.73-0.245h1.176
				c0.26,0,0.541,0.091,0.729,0.245c0.165,0.127,0.436,0.472,0.53,0.614c0.118,0.191,0.164,0.421,0.164,0.677v2.561
				C109.662,51.436,109.616,51.667,109.498,51.858z M109.026,48.646c0-0.089,0-0.167-0.023-0.218
				c-0.106-0.218-0.375-0.513-0.564-0.628c-0.06-0.037-0.13-0.051-0.212-0.051h-1.152c-0.083,0-0.153,0.014-0.212,0.051
				c-0.188,0.115-0.447,0.41-0.552,0.628c-0.025,0.051-0.037,0.129-0.037,0.218v2.51c0,0.089,0.012,0.167,0.037,0.218
				c0.104,0.217,0.364,0.513,0.552,0.626c0.059,0.04,0.129,0.052,0.212,0.052h1.152c0.082,0,0.152-0.012,0.212-0.052
				c0.189-0.113,0.458-0.409,0.564-0.626c0.023-0.051,0.023-0.129,0.023-0.218V48.646z"/>
			<path fill="#010101" d="M113.59,47.749c-0.059,0-0.117,0.014-0.164,0.039c-0.2,0.114-0.707,0.462-0.883,0.769v4.097h-0.635
				v-4.598l-0.07-0.908h0.635l0.07,0.652c0.143-0.165,0.318-0.345,0.448-0.448c0.164-0.126,0.376-0.269,0.576-0.269h0.588
				c0.247,0,0.541,0.091,0.73,0.245c0.163,0.127,0.435,0.472,0.529,0.614l0.011,0.024c0.176-0.218,0.4-0.475,0.577-0.615
				c0.164-0.126,0.389-0.269,0.587-0.269h0.555c0.246,0,0.541,0.091,0.729,0.245c0.165,0.127,0.436,0.472,0.53,0.614
				c0.117,0.191,0.163,0.421,0.163,0.677v4.034h-0.635v-4.008c0-0.089-0.011-0.167-0.034-0.218c-0.106-0.218-0.366-0.525-0.554-0.64
				c-0.059-0.039-0.129-0.039-0.211-0.039h-0.506c-0.059,0-0.13,0.014-0.177,0.039c-0.188,0.114-0.694,0.448-0.87,0.755v0.076v4.034
				h-0.624v-4.008c0-0.089-0.012-0.167-0.036-0.218c-0.105-0.218-0.375-0.525-0.564-0.64c-0.059-0.039-0.13-0.039-0.212-0.039
				H113.59z"/>
			<path fill="#010101" d="M122.556,47.749c-0.06,0-0.118,0.014-0.165,0.039c-0.2,0.114-0.705,0.462-0.883,0.769v4.097h-0.635
				v-4.598l-0.07-0.908h0.635l0.07,0.652c0.141-0.165,0.317-0.345,0.447-0.448c0.164-0.126,0.377-0.269,0.577-0.269h0.588
				c0.247,0,0.541,0.091,0.729,0.245c0.166,0.127,0.437,0.472,0.53,0.614l0.012,0.024c0.177-0.218,0.4-0.475,0.576-0.615
				c0.165-0.126,0.389-0.269,0.59-0.269h0.552c0.248,0,0.541,0.091,0.73,0.245c0.163,0.127,0.434,0.472,0.528,0.614
				c0.117,0.191,0.165,0.421,0.165,0.677v4.034h-0.635v-4.008c0-0.089-0.013-0.167-0.037-0.218c-0.105-0.218-0.364-0.525-0.552-0.64
				c-0.06-0.039-0.129-0.039-0.212-0.039h-0.507c-0.059,0-0.129,0.014-0.176,0.039c-0.188,0.114-0.694,0.448-0.871,0.755v0.076
				v4.034h-0.623v-4.008c0-0.089-0.013-0.167-0.034-0.218c-0.106-0.218-0.378-0.525-0.565-0.64
				c-0.059-0.039-0.129-0.039-0.213-0.039H122.556z"/>
			<path fill="#010101" d="M133.121,52.653l-0.07-0.641c-0.142,0.167-0.305,0.333-0.436,0.437c-0.163,0.127-0.388,0.267-0.589,0.267
				h-0.882c-0.259,0-0.54-0.089-0.729-0.242c-0.165-0.128-0.436-0.475-0.531-0.615c-0.117-0.191-0.163-0.423-0.163-0.679v-4.032
				h0.636v4.008c0,0.089,0,0.167,0.022,0.218c0.106,0.217,0.376,0.513,0.565,0.626c0.059,0.04,0.129,0.052,0.211,0.052h0.836
				c0.059,0,0.118-0.012,0.164-0.038c0.2-0.115,0.707-0.461,0.883-0.769v-4.097h0.636v4.596l0.081,0.91H133.121z"/>
			<path fill="#010101" d="M139.333,52.653v-4.008c0-0.089,0-0.167-0.024-0.218c-0.105-0.218-0.376-0.513-0.565-0.628
				c-0.059-0.037-0.129-0.051-0.21-0.051h-0.837c-0.059,0-0.117,0.014-0.164,0.039c-0.2,0.114-0.706,0.462-0.883,0.769v4.097h-0.635
				v-4.598l-0.082-0.908h0.636l0.069,0.641c0.142-0.166,0.306-0.333,0.436-0.437c0.165-0.126,0.388-0.269,0.59-0.269h0.881
				c0.258,0,0.541,0.091,0.73,0.245c0.163,0.127,0.436,0.472,0.529,0.614c0.118,0.191,0.164,0.421,0.164,0.677v4.034H139.333z"/>
			<path fill="#010101" d="M142.239,45.727v-0.819h0.729v0.819H142.239z M142.287,52.653v-5.506h0.634v5.506H142.287z"/>
			<path fill="#010101" d="M148.533,52.474c-0.188,0.153-0.458,0.242-0.717,0.242h-1.201c-0.258,0-0.54-0.089-0.729-0.242
				c-0.164-0.128-0.436-0.475-0.529-0.615c-0.118-0.191-0.165-0.423-0.165-0.679v-2.561c0-0.256,0.047-0.485,0.165-0.677
				c0.094-0.143,0.365-0.487,0.529-0.614c0.188-0.154,0.471-0.245,0.729-0.245h1.165c0.26,0,0.53,0.091,0.719,0.245
				c0.294,0.229,0.541,0.639,0.694,0.908l-0.613,0.219c-0.093-0.219-0.376-0.54-0.565-0.655c-0.059-0.037-0.128-0.051-0.21-0.051
				h-1.178c-0.082,0-0.151,0.014-0.21,0.051c-0.188,0.115-0.448,0.41-0.555,0.628c-0.022,0.051-0.035,0.129-0.035,0.218v2.51
				c0,0.089,0.013,0.167,0.035,0.218c0.106,0.217,0.354,0.513,0.542,0.626c0.059,0.04,0.13,0.052,0.211,0.052h1.224
				c0.084,0,0.154-0.012,0.213-0.052c0.188-0.113,0.47-0.435,0.553-0.626l0.013-0.025l0.61,0.23
				C149.086,51.858,148.815,52.256,148.533,52.474z"/>
			<path fill="#010101" d="M154.511,52.653l-0.071-0.641c-0.142,0.167-0.318,0.333-0.447,0.437c-0.176,0.14-0.377,0.267-0.575,0.267
				h-1.036c-0.271,0-0.529-0.089-0.719-0.242c-0.151-0.141-0.424-0.461-0.517-0.602c-0.118-0.191-0.178-0.423-0.178-0.679v-0.257
				c0-0.269,0.06-0.485,0.178-0.679c0.093-0.141,0.365-0.46,0.517-0.601c0.189-0.154,0.447-0.243,0.719-0.243h2.046v-0.781
				c0-0.103-0.012-0.167-0.022-0.205c-0.106-0.218-0.377-0.513-0.564-0.628c-0.06-0.037-0.13-0.051-0.212-0.051h-1.107
				c-0.081,0-0.14,0.014-0.199,0.051c-0.188,0.115-0.436,0.423-0.564,0.642l-0.611-0.219c0.034-0.064,0.093-0.178,0.176-0.294
				c0.106-0.166,0.365-0.474,0.53-0.614c0.188-0.153,0.435-0.231,0.706-0.231h1.081c0.271,0,0.542,0.091,0.729,0.245
				c0.176,0.113,0.437,0.46,0.529,0.601c0.13,0.191,0.165,0.435,0.165,0.69v3.124l0.083,0.91H154.511z M154.427,51.23v-1.15h-2.035
				c-0.081,0-0.152,0.013-0.211,0.051c-0.188,0.115-0.436,0.383-0.541,0.602c-0.023,0.052-0.036,0.116-0.036,0.204v0.257
				c0,0.089,0.013,0.154,0.036,0.205c0.105,0.218,0.353,0.487,0.541,0.601c0.059,0.04,0.13,0.052,0.211,0.052h0.988
				c0.059,0,0.117-0.012,0.166-0.038C153.734,51.91,154.275,51.538,154.427,51.23z"/>
			<path fill="#010101" d="M158.439,47.813v3.277c0,0.089,0.013,0.191,0.036,0.243c0.106,0.218,0.342,0.487,0.529,0.603
				c0.059,0.038,0.153,0.051,0.235,0.051h0.741v0.666h-0.753c-0.259,0-0.529-0.091-0.718-0.245
				c-0.164-0.127-0.436-0.472-0.529-0.614c-0.118-0.191-0.177-0.421-0.177-0.677v-3.304h-0.835v-0.666h0.835v-2.176h0.635v2.176
				h1.554v0.666H158.439z"/>
			<path fill="#010101" d="M161.934,45.727v-0.819h0.729v0.819H161.934z M161.982,52.653v-5.506h0.635v5.506H161.982z"/>
			<path fill="#010101" d="M168.688,51.858c-0.094,0.141-0.366,0.487-0.53,0.615c-0.188,0.153-0.471,0.242-0.729,0.242h-1.178
				c-0.258,0-0.54-0.089-0.729-0.242c-0.164-0.128-0.437-0.475-0.529-0.615c-0.119-0.191-0.165-0.423-0.165-0.679v-2.561
				c0-0.256,0.046-0.485,0.165-0.677c0.093-0.143,0.365-0.487,0.529-0.614c0.188-0.154,0.471-0.245,0.729-0.245h1.178
				c0.258,0,0.54,0.091,0.729,0.245c0.164,0.127,0.437,0.472,0.53,0.614c0.118,0.191,0.164,0.421,0.164,0.677v2.561
				C168.852,51.436,168.806,51.667,168.688,51.858z M168.216,48.646c0-0.089,0-0.167-0.023-0.218
				c-0.105-0.218-0.374-0.513-0.564-0.628c-0.059-0.037-0.129-0.051-0.211-0.051h-1.152c-0.084,0-0.154,0.014-0.213,0.051
				c-0.188,0.115-0.447,0.41-0.554,0.628c-0.022,0.051-0.034,0.129-0.034,0.218v2.51c0,0.089,0.012,0.167,0.034,0.218
				c0.106,0.217,0.365,0.513,0.554,0.626c0.059,0.04,0.129,0.052,0.213,0.052h1.152c0.082,0,0.152-0.012,0.211-0.052
				c0.19-0.113,0.459-0.409,0.564-0.626c0.023-0.051,0.023-0.129,0.023-0.218V48.646z"/>
			<path fill="#010101" d="M174.428,52.653v-4.008c0-0.089,0-0.167-0.023-0.218c-0.106-0.218-0.377-0.513-0.564-0.628
				c-0.059-0.037-0.129-0.051-0.211-0.051h-0.836c-0.059,0-0.117,0.014-0.166,0.039c-0.198,0.114-0.705,0.462-0.881,0.769v4.097
				h-0.636v-4.598l-0.082-0.908h0.636l0.07,0.641c0.141-0.166,0.306-0.333,0.435-0.437c0.164-0.126,0.388-0.269,0.589-0.269h0.883
				c0.258,0,0.54,0.091,0.728,0.245c0.165,0.127,0.437,0.472,0.531,0.614c0.118,0.191,0.164,0.421,0.164,0.677v4.034H174.428z"/>
			<path fill="#010101" d="M181.064,51.91c-0.094,0.141-0.316,0.436-0.481,0.563c-0.188,0.153-0.47,0.242-0.719,0.242h-1.411
				c-0.246,0-0.529-0.089-0.717-0.242c-0.165-0.128-0.425-0.461-0.518-0.602c-0.059-0.102-0.143-0.231-0.166-0.294l0.611-0.23
				c0.095,0.217,0.366,0.538,0.554,0.651c0.06,0.04,0.129,0.052,0.213,0.052h1.422c0.084,0,0.143-0.012,0.202-0.052
				c0.188-0.113,0.411-0.358,0.517-0.575c0.023-0.051,0.035-0.129,0.035-0.217v-0.462c0-0.256-0.199-0.447-0.448-0.474l-1.94-0.154
				c-0.576-0.051-1.024-0.536-1.024-1.164v-0.385c0-0.256,0.059-0.485,0.177-0.677c0.095-0.143,0.318-0.437,0.483-0.563
				c0.188-0.154,0.471-0.245,0.718-0.245h1.223c0.247,0,0.529,0.091,0.719,0.245c0.164,0.127,0.435,0.472,0.529,0.614
				c0.07,0.103,0.14,0.216,0.165,0.28l-0.612,0.232c-0.096-0.219-0.378-0.54-0.565-0.655c-0.059-0.037-0.117-0.051-0.199-0.051
				h-1.247c-0.082,0-0.152,0.014-0.212,0.051c-0.189,0.115-0.399,0.348-0.506,0.563c-0.024,0.051-0.036,0.129-0.036,0.218v0.385
				c0,0.257,0.201,0.448,0.448,0.474l1.939,0.166c0.577,0.052,1.024,0.539,1.024,1.165v0.46
				C181.241,51.487,181.181,51.718,181.064,51.91z"/>
		</g>
	</g>
</g>
</svg>
