<?xml version="1.0" encoding="UTF-8"?>
<svg width="229px" height="36px" viewBox="0 0 229 36" version="1.1" xmlns="http://www.w3.org/2000/svg" xmlns:xlink="http://www.w3.org/1999/xlink">
    <!-- Generator: Sketch 42 (36781) - http://www.bohemiancoding.com/sketch -->
    <title>mergecommit-logo</title>
    <desc>Created with Sketch.</desc>
    <defs></defs>
    <g id="Page-1" stroke="none" stroke-width="1" fill="none" fill-rule="evenodd">
        <g id="iPad-Pro-Portrait" transform="translate(-274.000000, -604.000000)" fill="#000000">
            <g id="mergecommit-logo" transform="translate(274.000000, 604.000000)">
                <path d="M5.77909091,14.1754545 L5.77909091,28 L0.262727273,28 L0.262727273,7.81818182 L5.77909091,7.81818182 L5.77909091,11.1818182 L6.72090909,11.1818182 C7.14697183,10.0381761 7.81969237,9.13560937 8.73909091,8.47409091 C9.65848945,7.81257245 10.7012063,7.48181818 11.8672727,7.48181818 C12.9660661,7.48181818 13.8910568,7.80696645 14.6422727,8.45727273 C15.3934886,9.10757901 15.937271,10.0157517 16.2736364,11.1818182 L17.4845455,11.1818182 C17.9106082,10.0381761 18.5777227,9.13560937 19.4859091,8.47409091 C20.3940955,7.81257245 21.4199943,7.48181818 22.5636364,7.48181818 C24.0660681,7.48181818 25.2433291,8.05363065 26.0954545,9.19727273 C26.94758,10.3409148 27.3736364,11.9218081 27.3736364,13.94 L27.3736364,28 L21.8572727,28 L21.8572727,14.4109091 C21.8572727,13.5139349 21.6946986,12.8580324 21.3695455,12.4431818 C21.0443923,12.0283313 20.601518,11.8209091 20.0409091,11.8209091 C19.4130272,11.8209091 18.8019727,12.0227253 18.2077273,12.4263636 C17.6134819,12.830002 17.0696994,13.4130265 16.5763636,14.1754545 L16.5763636,28 L11.06,28 L11.06,14.4109091 C11.06,13.5139349 10.8974259,12.8580324 10.5722727,12.4431818 C10.2471196,12.0283313 9.80424523,11.8209091 9.24363636,11.8209091 C8.61575444,11.8209091 8.00469994,12.0227253 7.41045455,12.4263636 C6.81620915,12.830002 6.27242671,13.4130265 5.77909091,14.1754545 Z M48.1954546,23.3581818 C47.5002996,25.1297058 46.4351587,26.4022689 45,27.1759091 C43.5648414,27.9495493 41.5803157,28.3363636 39.0463637,28.3363636 C36.2433194,28.3363636 34.0513716,27.6580371 32.4704546,26.3013636 C30.8895376,24.9446902 30.099091,23.0442546 30.099091,20.6 L30.099091,15.1509091 C30.099091,12.7290788 30.9007496,10.8454613 32.504091,9.5 C34.1074323,8.15453873 36.2881681,7.48181818 39.0463637,7.48181818 C41.8045593,7.48181818 43.9796891,8.16014473 45.5718182,9.51681818 C47.1639474,10.8734916 47.96,12.7851392 47.96,15.2518182 L47.96,18.9854545 L35.6154546,18.9854545 L35.6154546,20.6 C35.6154546,21.9678856 35.9125728,22.9825725 36.5068182,23.6440909 C37.1010636,24.3056094 38.0821144,24.6363636 39.45,24.6363636 C40.6609152,24.6363636 41.5690879,24.4345475 42.1745455,24.0309091 C42.7800031,23.6272707 43.2396954,22.9769742 43.5536364,22.08 L48.1954546,23.3581818 Z M35.6154546,15.1845455 L35.6154546,15.9581818 L42.4436364,15.9581818 L42.4436364,15.2854545 C42.4436364,13.7381741 42.1745482,12.6450032 41.6363637,12.0059091 C41.0981792,11.366815 40.2236425,11.0472727 39.0127273,11.0472727 C37.8018122,11.0472727 36.9328815,11.366815 36.4059091,12.0059091 C35.8789368,12.6450032 35.6154546,13.7045381 35.6154546,15.1845455 Z M50.6854546,28 L50.6854546,7.81818182 L56.2018183,7.81818182 L56.2018183,11.1818182 L57.1436365,11.1818182 C57.5696992,9.90362997 58.2312077,8.96742721 59.1281819,8.37318182 C60.0251561,7.77893642 60.9893889,7.48181818 62.0209092,7.48181818 C63.6803114,7.48181818 64.9136324,8.01438861 65.7209092,9.07954545 C66.5281859,10.1447023 66.9318183,11.6190815 66.9318183,13.5027273 L66.9318183,16.6645455 L61.9200001,16.6645455 L61.9200001,14.3436364 C61.9200001,13.5812083 61.763032,12.9701538 61.449091,12.5104545 C61.13515,12.0507553 60.6193976,11.8209091 59.9018183,11.8209091 C59.2739363,11.8209091 58.6236398,12.0731793 57.9509092,12.5777273 C57.2781785,13.0822752 56.6951541,13.7606018 56.2018183,14.6127273 L56.2018183,28 L50.6854546,28 Z M89.1327274,29.1772727 C89.1327274,30.9936454 88.4936429,32.4287826 87.2154547,33.4827273 C85.9372665,34.5366719 84.165769,35.0636364 81.9009092,35.0636364 L75.7454547,35.0636364 C73.2563513,35.0636364 71.3727338,34.626368 70.0945456,33.7518182 C68.8163574,32.8772684 68.1772729,31.7112194 68.1772729,30.2536364 C68.1772729,29.154843 68.4912091,28.2690943 69.1190911,27.5963636 C69.746973,26.923633 70.5430256,26.5312127 71.5072729,26.4190909 L71.5072729,25.7463636 C70.7448448,25.5221201 70.1057603,25.1521238 69.5900001,24.6363636 C69.07424,24.1206035 68.8163638,23.3245508 68.8163638,22.2481818 C68.8163638,21.1045397 69.2256021,20.151519 70.0440911,19.3890909 C70.86258,18.6266629 71.9109028,18.1669705 73.1890911,18.01 L73.1890911,17.3709091 C72.045449,17.0345438 71.1821243,16.5075793 70.5990911,15.79 C70.0160578,15.0724207 69.7245456,14.242732 69.7245456,13.3009091 L69.7245456,12.9309091 C69.7245456,11.3387799 70.4309022,10.0886409 71.8436365,9.18045455 C73.2563708,8.27226819 75.3305925,7.81818182 78.0663638,7.81818182 L88.9645456,7.81818182 L88.9645456,11.2490909 L83.9527274,10.5763636 L83.9527274,11.2490909 C84.7151555,11.4733345 85.343028,11.9218148 85.8363638,12.5945455 C86.3296996,13.2672761 86.5763638,13.9848447 86.5763638,14.7472727 L86.5763638,15.1845455 C86.5763638,16.7542503 85.8756132,17.9875713 84.4740911,18.8845455 C83.0725689,19.7815196 80.9703172,20.23 78.1672729,20.23 L74.9718183,20.23 C74.321512,20.23 73.8113656,20.3645441 73.4413638,20.6336364 C73.0713619,20.9027286 72.8863638,21.351209 72.8863638,21.9790909 C72.8863638,22.6069728 73.0881799,23.0554532 73.4918183,23.3245455 C73.8954567,23.5936377 74.4448452,23.7281818 75.1400001,23.7281818 L82.1027274,23.7281818 C84.3003142,23.7281818 86.0213576,24.1710562 87.2659092,25.0568182 C88.5104609,25.9425802 89.1327274,27.3160513 89.1327274,29.1772727 Z M78.1672729,17.3709091 C79.2660662,17.3709091 80.0565129,17.1410629 80.5386365,16.6813636 C81.0207601,16.2216644 81.2618183,15.5657618 81.2618183,14.7136364 L81.2618183,13.6709091 C81.2618183,12.841208 81.0151541,12.2021235 80.5218183,11.7536364 C80.0284825,11.3051493 79.2436419,11.0809091 78.1672729,11.0809091 C77.0684795,11.0809091 76.2724269,11.3051493 75.7790911,11.7536364 C75.2857553,12.2021235 75.0390911,12.841208 75.0390911,13.6709091 L75.0390911,14.7136364 C75.0390911,15.5657618 75.2801492,16.2216644 75.7622729,16.6813636 C76.2443965,17.1410629 77.0460551,17.3709091 78.1672729,17.3709091 Z M75.7790911,31.7672727 L81.6990911,31.7672727 C82.5512165,31.7672727 83.2519671,31.6327286 83.8013638,31.3636364 C84.3507605,31.0945441 84.6254547,30.5451557 84.6254547,29.7154545 C84.6254547,28.9081778 84.3563665,28.3756073 83.818182,28.1177273 C83.2799975,27.8598472 82.5960649,27.7309091 81.7663638,27.7309091 L73.3909092,27.7309091 L73.3909092,29.5472727 C73.3909092,30.2872764 73.5871194,30.8422709 73.9795456,31.2122727 C74.3719718,31.5822746 74.9718143,31.7672727 75.7790911,31.7672727 Z M108.954546,23.3581818 C108.259391,25.1297058 107.19425,26.4022689 105.759091,27.1759091 C104.323932,27.9495493 102.339407,28.3363636 99.8054547,28.3363636 C97.0024104,28.3363636 94.8104626,27.6580371 93.2295456,26.3013636 C91.6486286,24.9446902 90.858182,23.0442546 90.858182,20.6 L90.858182,15.1509091 C90.858182,12.7290788 91.6598407,10.8454613 93.263182,9.5 C94.8665234,8.15453873 97.0472591,7.48181818 99.8054547,7.48181818 C102.56365,7.48181818 104.73878,8.16014473 106.330909,9.51681818 C107.923038,10.8734916 108.719091,12.7851392 108.719091,15.2518182 L108.719091,18.9854545 L96.3745456,18.9854545 L96.3745456,20.6 C96.3745456,21.9678856 96.6716639,22.9825725 97.2659093,23.6440909 C97.8601547,24.3056094 98.8412055,24.6363636 100.209091,24.6363636 C101.420006,24.6363636 102.328179,24.4345475 102.933637,24.0309091 C103.539094,23.6272707 103.998786,22.9769742 104.312727,22.08 L108.954546,23.3581818 Z M96.3745456,15.1845455 L96.3745456,15.9581818 L103.202727,15.9581818 L103.202727,15.2854545 C103.202727,13.7381741 102.933639,12.6450032 102.395455,12.0059091 C101.85727,11.366815 100.982734,11.0472727 99.7718184,11.0472727 C98.5609032,11.0472727 97.6919725,11.366815 97.1650002,12.0059091 C96.6380279,12.6450032 96.3745456,13.7045381 96.3745456,15.1845455 Z" id="merge"></path>
                <path d="M120.47,28.3363636 C117.666956,28.3363636 115.59834,27.6860671 114.264091,26.3854545 C112.929842,25.084842 112.262727,23.2684965 112.262727,20.9363636 L112.262727,15.0163636 C112.262727,12.4824116 113.008326,10.593188 114.499545,9.34863636 C115.990765,8.10408469 117.969685,7.48181818 120.436364,7.48181818 C122.903043,7.48181818 124.769842,8.04241864 126.036818,9.16363636 C127.303794,10.2848541 128.026969,12.0227155 128.206364,14.3772727 L125.010909,14.5454545 C124.921212,12.9757497 124.517579,11.8937908 123.8,11.2995455 C123.082421,10.7053001 121.96122,10.4081818 120.436364,10.4081818 C118.82181,10.4081818 117.599701,10.7613601 116.77,11.4677273 C115.940299,12.1740944 115.525455,13.3569614 115.525455,15.0163636 L115.525455,20.9363636 C115.525455,22.5284928 115.940299,23.6721177 116.77,24.3672727 C117.599701,25.0624277 118.833022,25.41 120.47,25.41 C121.972432,25.41 123.082421,25.1689418 123.8,24.6868182 C124.517579,24.2046946 124.921212,23.2909158 125.010909,21.9454545 L128.206364,22.1136364 C128.049393,24.2663744 127.337431,25.8416617 126.070455,26.8395455 C124.803479,27.8374292 122.936679,28.3363636 120.47,28.3363636 Z M139.165455,28.3363636 C136.788473,28.3363636 134.893643,27.6972791 133.480909,26.4190909 C132.068175,25.1409027 131.361818,23.2348612 131.361818,20.7009091 L131.361818,15.2518182 C131.361818,12.6730174 132.068175,10.7333398 133.480909,9.43272727 C134.893643,8.13211471 136.799685,7.48181818 139.199091,7.48181818 C141.553648,7.48181818 143.437266,8.13211471 144.85,9.43272727 C146.262734,10.7333398 146.969091,12.6730174 146.969091,15.2518182 L146.969091,20.7009091 C146.969091,23.2348612 146.262734,25.1409027 144.85,26.4190909 C143.437266,27.6972791 141.542436,28.3363636 139.165455,28.3363636 Z M139.165455,25.41 C140.667886,25.41 141.800299,25.0400037 142.562727,24.3 C143.325155,23.5599963 143.706364,22.3715233 143.706364,20.7345455 L143.706364,15.2518182 C143.706364,13.5924159 143.325155,12.370307 142.562727,11.5854545 C141.800299,10.8006021 140.667886,10.4081818 139.165455,10.4081818 C137.640598,10.4081818 136.50258,10.8006021 135.751364,11.5854545 C135.000148,12.370307 134.624545,13.5924159 134.624545,15.2518182 L134.624545,20.7345455 C134.624545,22.3715233 135.000148,23.5599963 135.751364,24.3 C136.50258,25.0400037 137.640598,25.41 139.165455,25.41 Z M153.723636,13.6036364 L153.723636,28 L150.460909,28 L150.460909,7.81818182 L153.723636,7.81818182 L153.723636,10.9463636 L154.631818,10.9463636 C154.945759,9.91484333 155.56242,9.07954865 156.481818,8.44045455 C157.401217,7.80136044 158.455146,7.48181818 159.643636,7.48181818 C160.720005,7.48181818 161.644996,7.79014843 162.418636,8.40681818 C163.192277,9.02348793 163.758483,9.86999462 164.117273,10.9463636 L165.294545,10.9463636 C165.608486,9.91484333 166.236359,9.07954865 167.178182,8.44045455 C168.120005,7.80136044 169.20757,7.48181818 170.440909,7.48181818 C171.920916,7.48181818 173.103783,8.04241864 173.989545,9.16363636 C174.875307,10.2848541 175.318182,11.7760513 175.318182,13.6372727 L175.318182,28 L172.055455,28 L172.055455,14.1754545 C172.055455,12.942115 171.820002,12.0339423 171.349091,11.4509091 C170.878179,10.8678759 170.227883,10.5763636 169.398182,10.5763636 C168.478783,10.5763636 167.593035,10.8454519 166.740909,11.3836364 C165.888784,11.9218209 165.148791,12.6618135 164.520909,13.6036364 L164.520909,28 L161.258182,28 L161.258182,14.1754545 C161.258182,12.942115 161.02273,12.0339423 160.551818,11.4509091 C160.080907,10.8678759 159.419398,10.5763636 158.567273,10.5763636 C157.670299,10.5763636 156.795762,10.8454519 155.943636,11.3836364 C155.091511,11.9218209 154.351518,12.6618135 153.723636,13.6036364 Z M182.106364,13.6036364 L182.106364,28 L178.843636,28 L178.843636,7.81818182 L182.106364,7.81818182 L182.106364,10.9463636 L183.014545,10.9463636 C183.328486,9.91484333 183.945147,9.07954865 184.864545,8.44045455 C185.783944,7.80136044 186.837873,7.48181818 188.026364,7.48181818 C189.102733,7.48181818 190.027723,7.79014843 190.801364,8.40681818 C191.575004,9.02348793 192.14121,9.86999462 192.5,10.9463636 L193.677273,10.9463636 C193.991214,9.91484333 194.619086,9.07954865 195.560909,8.44045455 C196.502732,7.80136044 197.590297,7.48181818 198.823636,7.48181818 C200.303644,7.48181818 201.486511,8.04241864 202.372273,9.16363636 C203.258035,10.2848541 203.700909,11.7760513 203.700909,13.6372727 L203.700909,28 L200.438182,28 L200.438182,14.1754545 C200.438182,12.942115 200.20273,12.0339423 199.731818,11.4509091 C199.260907,10.8678759 198.61061,10.5763636 197.780909,10.5763636 C196.861511,10.5763636 195.975762,10.8454519 195.123636,11.3836364 C194.271511,11.9218209 193.531518,12.6618135 192.903636,13.6036364 L192.903636,28 L189.640909,28 L189.640909,14.1754545 C189.640909,12.942115 189.405457,12.0339423 188.934545,11.4509091 C188.463634,10.8678759 187.802125,10.5763636 186.95,10.5763636 C186.053026,10.5763636 185.178489,10.8454519 184.326364,11.3836364 C183.474238,11.9218209 182.734246,12.6618135 182.106364,13.6036364 Z M208.22,28 L208.22,7.81818182 L211.482727,7.81818182 L211.482727,28 L208.22,28 Z M209.834545,4.08454545 C209.027269,4.08454545 208.376972,3.95000135 207.883636,3.68090909 C207.390301,3.41181684 207.143636,2.91848844 207.143636,2.20090909 L207.143636,1.96545455 C207.143636,1.22545085 207.390301,0.715304432 207.883636,0.435 C208.376972,0.154695568 209.027269,0.0145454545 209.834545,0.0145454545 C210.641822,0.0145454545 211.292119,0.154695568 211.785455,0.435 C212.27879,0.715304432 212.525455,1.22545085 212.525455,1.96545455 L212.525455,2.20090909 C212.525455,2.91848844 212.273184,3.41181684 211.768636,3.68090909 C211.264088,3.95000135 210.619398,4.08454545 209.834545,4.08454545 Z M224.319091,28.3027273 C222.278475,28.3027273 220.725611,27.7365208 219.660455,26.6040909 C218.595298,25.471661 218.062727,23.8066777 218.062727,21.6090909 L218.062727,10.7445455 L214.362727,10.7445455 L214.362727,7.81818182 L218.062727,7.81818182 L218.062727,1.09090909 L221.325455,1.09090909 L221.325455,7.81818182 L228.086364,7.81818182 L228.086364,10.7445455 L221.325455,10.7445455 L221.325455,21.71 C221.325455,22.9433395 221.622573,23.8571182 222.216818,24.4513636 C222.811064,25.045609 223.590298,25.3427273 224.554545,25.3427273 C225.003033,25.3427273 225.501967,25.2866672 226.051364,25.1745455 C226.60076,25.0624237 227.166967,24.8942435 227.75,24.67 L228.355455,27.5290909 C227.682724,27.7981832 227.004397,27.9943933 226.320455,28.1177273 C225.636512,28.2410612 224.969397,28.3027273 224.319091,28.3027273 Z" id="commit"></path>
            </g>
        </g>
    </g>
</svg>