<?xml version="1.0" encoding="utf-8"?>
<!-- Generator: Adobe Illustrator 16.0.0, SVG Export Plug-In . SVG Version: 6.00 Build 0)  -->
<!DOCTYPE svg PUBLIC "-//W3C//DTD SVG 1.1//EN" "http://www.w3.org/Graphics/SVG/1.1/DTD/svg11.dtd">
<svg version="1.1" id="Layer_1" xmlns="http://www.w3.org/2000/svg" xmlns:xlink="http://www.w3.org/1999/xlink" x="0px" y="0px"
	 width="393.999px" height="86px" viewBox="0 0 393.999 86" enable-background="new 0 0 393.999 86" xml:space="preserve">
<g>
	<path d="M108.006,27.223h5.28l13.04,21.041h0.08V27.223h4.76v28.56h-5.28l-13-21h-0.12v21h-4.76V27.223z"/>
	<path d="M148.285,27.223h19.72v4.32h-14.72v7.48h12.92v4.08h-12.92v12.68h-5V27.223z"/>
	<path d="M180.485,27.223h23.12v4.32h-9.08v24.24h-5v-24.24h-9.04V27.223z"/>
	<path d="M213.404,50.382h5.561v5.4h-5.561V50.382z"/>
	<path d="M236.005,27.223h5v13l12.72-13h6.16l-11.4,11.4l12.2,17.16h-6.239l-9.36-13.64l-4.08,4.041v9.6h-5V27.223z"/>
	<path d="M274.604,27.223h13.64c3.146,0,5.507,0.68,7.08,2.04s2.36,3.254,2.36,5.68c0,1.36-0.2,2.487-0.601,3.38
		c-0.399,0.894-0.866,1.614-1.399,2.16c-0.534,0.547-1.061,0.94-1.58,1.18c-0.521,0.24-0.9,0.4-1.14,0.48v0.08
		c0.426,0.054,0.886,0.187,1.38,0.4c0.493,0.214,0.953,0.554,1.38,1.02c0.426,0.467,0.78,1.074,1.06,1.82
		c0.28,0.747,0.42,1.68,0.42,2.801c0,1.68,0.127,3.207,0.38,4.58c0.254,1.373,0.646,2.354,1.181,2.939h-5.36
		c-0.374-0.613-0.594-1.293-0.66-2.04c-0.066-0.746-0.1-1.466-0.1-2.16c0-1.306-0.08-2.433-0.24-3.38
		c-0.16-0.946-0.453-1.732-0.88-2.359s-1.007-1.087-1.74-1.38s-1.674-0.44-2.819-0.44h-7.36v11.76h-5V27.223z M279.604,40.223h8.2
		c1.6,0,2.812-0.38,3.64-1.14c0.826-0.76,1.24-1.9,1.24-3.42c0-0.906-0.134-1.646-0.4-2.22c-0.267-0.573-0.634-1.02-1.1-1.34
		c-0.467-0.32-1-0.533-1.601-0.64c-0.6-0.106-1.22-0.16-1.859-0.16h-8.12V40.223z"/>
	<path d="M313.965,27.223h20.56v4.32h-15.56v7.48h14.4v4.08h-14.4v8.36h15.84v4.32h-20.84V27.223z"/>
	<path d="M350.364,27.223h11.84c2.187,0,4.08,0.374,5.68,1.12c1.601,0.747,2.906,1.767,3.921,3.06
		c1.013,1.293,1.766,2.807,2.26,4.54c0.493,1.733,0.74,3.587,0.74,5.56c0,1.974-0.247,3.827-0.74,5.559
		c-0.494,1.734-1.247,3.248-2.26,4.541c-1.015,1.293-2.32,2.313-3.921,3.06c-1.6,0.747-3.493,1.12-5.68,1.12h-11.84V27.223z
		 M355.364,51.703h4.92c1.946,0,3.54-0.26,4.78-0.779c1.24-0.521,2.213-1.24,2.92-2.16c0.706-0.92,1.187-2,1.439-3.24
		c0.254-1.24,0.381-2.58,0.381-4.02c0-1.44-0.127-2.78-0.381-4.02c-0.253-1.24-0.733-2.32-1.439-3.24
		c-0.707-0.92-1.68-1.64-2.92-2.16s-2.834-0.78-4.78-0.78h-4.92V51.703z"/>
</g>
<g>
	<g>
		<path fill="#E0E2DB" d="M87.494,20.703h0.002c0-6.74-5.414-12.221-12.057-12.221H48.666H21.892
			c-6.651,0-12.057,5.48-12.057,12.221v24.4c0,1.071,0.141,2.154,0.422,3.194c0.089,0.415,0.228,0.827,0.408,1.265
			c0.772,1.99,2.053,3.748,3.714,5.098c1.646,1.686,3.784,3.55,6.37,5.531l0.366,0.27l-0.01,0.008l1.448,1.104l0.001-0.001
			l-0.001,0.001l1.687,1.287c3.858,2.949,10.375,7.938,19.954,15.236c1.562,1.188,3.351,2.189,4.471,2.189
			c1.115,0,2.92-1.004,4.475-2.189c9.583-7.299,16.094-12.287,19.953-15.236l3.142-2.394l-0.008-0.007l0.356-0.27
			c2.586-1.981,4.732-3.848,6.367-5.531c1.663-1.35,2.945-3.105,3.719-5.098c0.181-0.438,0.319-0.85,0.41-1.265
			c0.277-1.04,0.416-2.123,0.416-3.194V21.965h-0.002V20.703z"/>
		<linearGradient id="SVGID_1_" gradientUnits="userSpaceOnUse" x1="23.9971" y1="62.4048" x2="61.0037" y2="-1.6925">
			<stop  offset="0" style="stop-color:#000000;stop-opacity:0"/>
			<stop  offset="1" style="stop-color:#000000;stop-opacity:0.2"/>
		</linearGradient>
		<path fill="url(#SVGID_1_)" d="M87.496,20.703c0-6.74-5.414-12.221-12.057-12.221H48.666H21.892
			c-6.651,0-12.057,5.48-12.057,12.221v24.4c0,1.071,0.141,2.154,0.422,3.194c0.089,0.415,0.228,0.827,0.408,1.265
			c0.772,1.99,2.053,3.748,3.714,5.098c1.646,1.686,3.784,3.55,6.37,5.531l0.366,0.27l-0.01,0.008l1.448,1.104l64.939-39.605v-1.264
			H87.496z"/>
	</g>
	<g>
		<path fill="#FFFFFF" d="M33.143,16.545v16.589l15.634-16.589H59.76L44.126,32.35l17.148,24.21H50.233L38.184,38.57l-5.042,5.101
			v12.89h-8.8V16.545H33.143z"/>
		<path fill="#FFFFFF" d="M66.219,35.964v3.824h0.08c0.266-0.637,0.623-1.228,1.074-1.771s0.969-1.01,1.555-1.396
			c0.582-0.385,1.207-0.684,1.871-0.896c0.664-0.212,1.354-0.318,2.072-0.318c0.369,0,0.78,0.066,1.234,0.199v5.258
			c-0.268-0.053-0.585-0.101-0.956-0.14c-0.373-0.041-0.731-0.061-1.076-0.061c-1.034,0-1.911,0.174-2.63,0.519
			c-0.718,0.345-1.295,0.817-1.732,1.415c-0.438,0.597-0.75,1.294-0.938,2.091c-0.186,0.798-0.277,1.661-0.277,2.591v9.281H60.84
			V35.964H66.219z"/>
	</g>
</g>
</svg>
