<?xml version="1.0" encoding="UTF-8"?>
<svg width="137px" height="39px" viewBox="0 0 137 39" version="1.1" xmlns="http://www.w3.org/2000/svg" xmlns:xlink="http://www.w3.org/1999/xlink">
    <g id="Page-1" stroke="none" stroke-width="1" fill="none" fill-rule="evenodd">
        <g id="Landing-page" transform="translate(-100.000000, -56.000000)" fill="#2C2F31">
            <g id="Hero-section" transform="translate(100.000000, 56.000000)">
                <g id="Logo">
                    <path d="M20.0686985,10.7274978 C19.9251457,10.7208154 19.7807296,10.717437 19.6355244,10.717437 C19.4267864,10.717437 19.219679,10.7244185 19.014423,10.7381607 L16.9792015,0.00891908726 L22.1005102,0.00891908726 L20.0686985,10.7274978 Z M22.3435742,11.1243018 C22.0043339,11.0194758 21.6566731,10.9338273 21.3018583,10.8686227 L22.1097586,0.020630898 L27.0565629,1.34612313 L22.3435742,11.1243018 Z M24.4619661,12.0905164 C24.1517644,11.8978596 23.8292043,11.72322 23.4957481,11.5680602 L27.0624649,1.35982952 L31.4976483,3.92048388 L24.4619661,12.0905164 Z M26.284711,13.576753 C26.0253395,13.3031594 25.7492618,13.0455616 25.4581114,12.8055932 L31.4998018,3.93525079 L35.1211139,7.5565629 L26.284711,13.576753 Z M27.6844974,15.5003683 C27.4974499,15.1571941 27.289095,14.8273061 27.0612098,14.5124817 L35.119372,7.57138399 L37.6800263,12.0065674 L27.6844974,15.5003683 Z M28.5470829,17.7470274 C28.4529528,17.3519594 28.3332328,16.9668158 28.1897715,16.5934453 L37.6745078,12.0204327 L39,16.967237 L28.5470829,17.7470274 Z M28.7918104,20.1671385 C28.7947834,20.0711878 28.7962808,19.9748655 28.7962808,19.8781934 C28.7962808,19.5554213 28.7795877,19.236548 28.7470178,18.9223899 L38.9910809,16.9792015 L38.9910809,22.1005102 L28.7918104,20.1671385 Z M28.388087,22.5905407 C28.5133495,22.185873 28.6113202,21.7692109 28.6798481,21.3427055 L38.9793691,22.1097586 L37.6538769,27.0565629 L28.388087,22.5905407 Z M27.3414048,24.8339182 C27.5774134,24.4676951 27.7880272,24.0835622 27.970757,23.6840088 L37.6401705,27.0624649 L35.0795161,31.4976483 L27.3414048,24.8339182 Z M25.7226717,26.7242049 C26.0546957,26.4287726 26.3650845,26.1095507 26.6511636,25.7692136 L35.0647492,31.4998018 L31.4434371,35.1211139 L25.7226717,26.7242049 Z M23.6500283,28.114772 C24.054869,27.9170834 24.4429742,27.6904263 24.8116449,27.4374997 L31.428616,35.119372 L26.9934326,37.6800263 L23.6500283,28.114772 Z M21.2787027,28.8919886 C21.7254083,28.811088 22.160838,28.6977962 22.582471,28.5546337 L26.9795673,37.6745078 L22.032763,39 L21.2787027,28.8919886 Z M18.7932557,29.0007462 C19.0706238,29.02603 19.3515653,29.0389498 19.6355244,29.0389498 C19.801583,29.0389498 19.9666096,29.0345314 20.1304932,29.0258057 L22.0207985,38.9910809 L16.8994898,38.9910809 L18.7932557,29.0007462 Z M16.3822793,28.4444781 C16.7905785,28.5996251 17.2128449,28.7264194 17.6466739,28.822456 L16.8902414,38.9793691 L11.9434371,37.6538769 L16.3822793,28.4444781 Z M14.2259252,27.271913 C14.5727249,27.5260789 14.9380692,27.756434 15.3195503,27.9605706 L11.9375351,37.6401705 L7.50235166,35.0795161 L14.2259252,27.271913 Z M12.4721623,25.5888878 C12.7342729,25.9172411 13.0184881,26.2271733 13.3225544,26.516431 L7.50019824,35.0647492 L3.87888612,31.4434371 L12.4721623,25.5888878 Z M11.2311845,23.529104 C11.3944448,23.9044066 11.5821076,24.2666442 11.7921698,24.6138134 L3.88062804,31.428616 L1.31997369,26.9934326 L11.2311845,23.529104 Z M10.5758644,21.2438007 C10.6347234,21.6376076 10.7186479,22.0232221 10.8259625,22.3989687 L1.32549223,26.9795673 L-4.68514116e-14,22.032763 L10.5758644,21.2438007 Z M10.5270923,18.8933126 C10.4925074,19.2168668 10.474768,19.5454585 10.474768,19.8781934 C10.474768,19.9306629 10.4752091,19.9830294 10.4760878,20.0352894 L0.00891908726,22.0207985 L0.00891908726,16.8994898 L10.5270923,18.8933126 Z M11.0676548,16.6291225 C10.9372506,16.9728143 10.8269326,17.3263924 10.7381343,17.6884236 L0.020630898,16.8902414 L1.34612313,11.9434371 L11.0676548,16.6291225 Z M12.153021,14.5918602 C11.9453244,14.8853078 11.7544556,15.1915095 11.5818203,15.5090596 L1.35982952,11.9375351 L3.92048388,7.50235166 L12.153021,14.5918602 Z M13.7017309,12.8987309 C13.4325363,13.1278181 13.1767621,13.3722032 12.9357526,13.6305417 L3.93525079,7.50019824 L7.5565629,3.87888612 L13.7017309,12.8987309 Z M15.6153287,11.6443966 C15.3001626,11.7985672 14.9951546,11.9703001 14.7015797,12.1583206 L7.57138399,3.88062804 L12.0065674,1.31997369 L15.6153287,11.6443966 Z M17.7807754,10.9053022 C17.4361295,10.9761705 17.0985482,11.066396 16.7692177,11.1747924 L12.0204327,1.32549223 L16.967237,-1.33226763e-15 L17.7807754,10.9053022 Z" id="Combined-Shape"></path>
                    <path d="M49.2164179,20.4175824 L49.2164179,24.7692308 L47,24.7692308 L47,13.2307692 L51.6007463,13.2307692 C52.2052269,13.2307692 52.731341,13.3269221 53.1791045,13.5192308 C53.6268679,13.7115394 53.9990657,13.9642841 54.295709,14.2774725 C54.5923522,14.5906609 54.8162306,14.9478002 54.9673507,15.3489011 C55.1184709,15.750002 55.1940299,16.1593386 55.1940299,16.5769231 L55.1940299,16.9725275 C55.1940299,17.401101 55.1184709,17.8214265 54.9673507,18.2335165 C54.8162306,18.6456065 54.5923522,19.0137346 54.295709,19.3379121 C53.9990657,19.6620895 53.6268679,19.9230759 53.1791045,20.1208791 C52.731341,20.3186823 52.2052269,20.4175824 51.6007463,20.4175824 L49.2164179,20.4175824 Z M49.2164179,18.3406593 L51.3824627,18.3406593 C51.8750025,18.3406593 52.2639911,18.2087925 52.5494403,17.9450549 C52.8348895,17.6813174 52.9776119,17.3406614 52.9776119,16.9230769 L52.9776119,16.7252747 C52.9776119,16.3076902 52.8348895,15.9670343 52.5494403,15.7032967 C52.2639911,15.4395591 51.8750025,15.3076923 51.3824627,15.3076923 L49.2164179,15.3076923 L49.2164179,18.3406593 Z M65.1847015,24.7692308 L62.9682836,24.7692308 L62.9682836,21.3076923 C62.9682836,21.0439547 62.8983216,20.8296712 62.7583955,20.6648352 C62.6184694,20.4999992 62.3861957,20.4175824 62.0615672,20.4175824 L59.5093284,20.4175824 L59.5093284,24.7692308 L57.2929104,24.7692308 L57.2929104,13.2307692 L61.7929104,13.2307692 C62.3973911,13.2307692 62.9291022,13.313186 63.3880597,13.478022 C63.8470172,13.642858 64.2304089,13.8708777 64.5382463,14.1620879 C64.8460836,14.4532982 65.0811559,14.7912069 65.2434701,15.1758242 C65.4057844,15.5604415 65.4869403,15.9725253 65.4869403,16.4120879 L65.4869403,16.8076923 C65.4869403,17.2802221 65.3582102,17.7225254 65.1007463,18.1346154 C64.8432823,18.5467054 64.4458982,18.8626363 63.9085821,19.0824176 L63.9085821,19.3791209 C64.3003751,19.4230771 64.6110063,19.5714273 64.8404851,19.8241758 C65.0699638,20.0769243 65.1847015,20.3956025 65.1847015,20.7802198 L65.1847015,24.7692308 Z M59.5093284,18.3406593 L61.625,18.3406593 C62.1623161,18.3406593 62.5708941,18.2170342 62.8507463,17.9697802 C63.1305984,17.7225262 63.2705224,17.3736286 63.2705224,16.9230769 L63.2705224,16.7252747 C63.2705224,16.3406574 63.1305984,16.0082432 62.8507463,15.728022 C62.5708941,15.4478008 62.1623161,15.3076923 61.625,15.3076923 L59.5093284,15.3076923 L59.5093284,18.3406593 Z M67.5522388,13.2307692 L75.4104478,13.2307692 L75.4104478,15.3076923 L72.5895522,15.3076923 L72.5895522,22.6923077 L75.4104478,22.6923077 L75.4104478,24.7692308 L67.5522388,24.7692308 L67.5522388,22.6923077 L70.3731343,22.6923077 L70.3731343,15.3076923 L67.5522388,15.3076923 L67.5522388,13.2307692 Z M83.3526119,23.6813187 L83.6548507,23.6813187 L83.6548507,13.2307692 L85.8712687,13.2307692 L85.8712687,24.7692308 L81.5391791,24.7692308 L80.1623134,14.3186813 L79.8600746,14.3186813 L79.8600746,24.7692308 L77.6436567,24.7692308 L77.6436567,13.2307692 L81.9757463,13.2307692 L83.3526119,23.6813187 Z M92.0671642,23.021978 C92.4925394,23.021978 92.8423494,22.9587918 93.1166045,22.8324176 C93.3908596,22.7060433 93.603544,22.5357154 93.7546642,22.3214286 C93.9057843,22.1071418 94.0093281,21.8598915 94.0652985,21.5796703 C94.1212689,21.2994491 94.1492537,21.0109905 94.1492537,20.7142857 L94.1492537,20.4175824 L96.3656716,20.4175824 L96.3656716,20.7142857 C96.3656716,22.087919 95.9990708,23.1456007 95.2658582,23.8873626 C94.5326456,24.6291246 93.4664249,25 92.0671642,25 C90.7238739,25 89.6604517,24.5989051 88.8768657,23.7967033 C88.0932797,22.9945015 87.7014925,21.8241835 87.7014925,20.2857143 L87.7014925,17.7142857 C87.7014925,16.9780183 87.8022378,16.315937 88.0037313,15.728022 C88.2052249,15.140107 88.4962668,14.6456064 88.8768657,14.2445055 C89.2574646,13.8434046 89.7164152,13.5357154 90.2537313,13.3214286 C90.7910475,13.1071418 91.395519,13 92.0671642,13 C92.7611975,13 93.376863,13.0989001 93.9141791,13.2967033 C94.4514952,13.4945065 94.9020504,13.7802179 95.2658582,14.1538462 C95.629666,14.5274744 95.903917,14.9780193 96.0886194,15.5054945 C96.2733218,16.0329697 96.3656716,16.6263703 96.3656716,17.2857143 L96.3656716,17.5824176 L94.1492537,17.5824176 L94.1492537,17.2857143 C94.1492537,17.0109876 94.115672,16.7362651 94.0485075,16.4615385 C93.9813429,16.1868118 93.8694038,15.9395615 93.7126866,15.7197802 C93.5559694,15.4999989 93.3432849,15.3214293 93.0746269,15.1840659 C92.8059688,15.0467026 92.4701513,14.978022 92.0671642,14.978022 C91.6977593,14.978022 91.3787327,15.0467026 91.1100746,15.1840659 C90.8414166,15.3214293 90.6175382,15.5082406 90.4384328,15.7445055 C90.2593275,15.9807704 90.1277989,16.2554929 90.0438433,16.5686813 C89.9598876,16.8818697 89.9179104,17.2087895 89.9179104,17.5494505 L89.9179104,20.4505495 C89.9179104,20.8241777 89.9570892,21.1675809 90.0354478,21.4807692 C90.1138064,21.7939576 90.2369395,22.0659329 90.4048507,22.2967033 C90.572762,22.5274737 90.7938419,22.7060433 91.068097,22.8324176 C91.3423521,22.9587918 91.6753712,23.021978 92.0671642,23.021978 Z M98.380597,13.2307692 L106.238806,13.2307692 L106.238806,15.3076923 L103.41791,15.3076923 L103.41791,22.6923077 L106.238806,22.6923077 L106.238806,24.7692308 L98.380597,24.7692308 L98.380597,22.6923077 L101.201493,22.6923077 L101.201493,15.3076923 L98.380597,15.3076923 L98.380597,13.2307692 Z M110.873134,20.4175824 L110.873134,24.7692308 L108.656716,24.7692308 L108.656716,13.2307692 L113.257463,13.2307692 C113.861943,13.2307692 114.388057,13.3269221 114.835821,13.5192308 C115.283584,13.7115394 115.655782,13.9642841 115.952425,14.2774725 C116.249069,14.5906609 116.472947,14.9478002 116.624067,15.3489011 C116.775187,15.750002 116.850746,16.1593386 116.850746,16.5769231 L116.850746,16.9725275 C116.850746,17.401101 116.775187,17.8214265 116.624067,18.2335165 C116.472947,18.6456065 116.249069,19.0137346 115.952425,19.3379121 C115.655782,19.6620895 115.283584,19.9230759 114.835821,20.1208791 C114.388057,20.3186823 113.861943,20.4175824 113.257463,20.4175824 L110.873134,20.4175824 Z M110.873134,18.3406593 L113.039179,18.3406593 C113.531719,18.3406593 113.920708,18.2087925 114.206157,17.9450549 C114.491606,17.6813174 114.634328,17.3406614 114.634328,16.9230769 L114.634328,16.7252747 C114.634328,16.3076902 114.491606,15.9670343 114.206157,15.7032967 C113.920708,15.4395591 113.531719,15.3076923 113.039179,15.3076923 L110.873134,15.3076923 L110.873134,18.3406593 Z M119.100746,13.2307692 L121.317164,13.2307692 L121.317164,22.6923077 L126.656716,22.6923077 L126.656716,24.7692308 L119.100746,24.7692308 L119.100746,13.2307692 Z M129.376866,13.2307692 L136.798507,13.2307692 L136.798507,15.3076923 L131.593284,15.3076923 L131.593284,17.9450549 L136.597015,17.9450549 L136.597015,20.021978 L131.593284,20.021978 L131.593284,22.6923077 L137,22.6923077 L137,24.7692308 L129.376866,24.7692308 L129.376866,13.2307692 Z" id="PRINCIPLE"></path>
                </g>
            </g>
        </g>
    </g>
</svg>